solid OpenSCAD_Model
  facet normal -1 0 0
    outer loop
      vertex 3 -15.6 -7.65
      vertex 3 -15.6 -3.94646
      vertex 3 -12.1 -7.65
    endloop
  endfacet
  facet normal -1 0 0
    outer loop
      vertex 3 -12.1 -7.01797
      vertex 3 -15.6 -3.94646
      vertex 3 -12.1 -3.94646
    endloop
  endfacet
  facet normal -1 0 0
    outer loop
      vertex 3 -12.1 -7.65
      vertex 3 -15.6 -3.94646
      vertex 3 -12.1 -7.01797
    endloop
  endfacet
  facet normal 0 -1 2.22045e-016
    outer loop
      vertex 3 -15.6 -3.94646
      vertex 3 -15.6 -7.65
      vertex 17.048 -15.6 -7.65
    endloop
  endfacet
  facet normal 0 -1 2.22045e-016
    outer loop
      vertex 8.9 -15.6 0.35
      vertex 3 -15.6 -3.94646
      vertex 17.048 -15.6 0.35
    endloop
  endfacet
  facet normal 0 -1 2.22045e-016
    outer loop
      vertex 17.048 -15.6 0.35
      vertex 3 -15.6 -3.94646
      vertex 17.048 -15.6 -7.65
    endloop
  endfacet
  facet normal 0 -1 2.22045e-016
    outer loop
      vertex 3.53553 -15.6 -3.53553
      vertex 3 -15.6 -3.94646
      vertex 8.9 -15.6 0.35
    endloop
  endfacet
  facet normal 0 -1 2.22045e-016
    outer loop
      vertex 5 -15.6 3.4639e-015
      vertex 4.82963 -15.6 -1.29409
      vertex 8.9 -15.6 5.82709
    endloop
  endfacet
  facet normal 0 -1 2.22045e-016
    outer loop
      vertex 4.33013 -15.6 2.5
      vertex 4.82963 -15.6 1.2941
      vertex 5.74263 -15.6 7.65
    endloop
  endfacet
  facet normal 0 -1 2.22045e-016
    outer loop
      vertex 3 -15.6 5.19615
      vertex 3 -15.6 3.94646
      vertex 4.41673 -15.6 7.65
    endloop
  endfacet
  facet normal 0 -1 2.22045e-016
    outer loop
      vertex 3 -15.6 3.94646
      vertex 3.53553 -15.6 3.53553
      vertex 4.41673 -15.6 7.65
    endloop
  endfacet
  facet normal 0 -1 2.22045e-016
    outer loop
      vertex 4.41673 -15.6 7.65
      vertex 4.33013 -15.6 2.5
      vertex 5.74263 -15.6 7.65
    endloop
  endfacet
  facet normal 0 -1 2.22045e-016
    outer loop
      vertex 5.74263 -15.6 7.65
      vertex 4.82963 -15.6 1.2941
      vertex 8.9 -15.6 5.82709
    endloop
  endfacet
  facet normal 0 -1 2.22045e-016
    outer loop
      vertex 4.82963 -15.6 1.2941
      vertex 5 -15.6 3.4639e-015
      vertex 8.9 -15.6 5.82709
    endloop
  endfacet
  facet normal 0 -1 2.22045e-016
    outer loop
      vertex 8.9 -15.6 5.82709
      vertex 4.82963 -15.6 -1.29409
      vertex 8.9 -15.6 0.35
    endloop
  endfacet
  facet normal 0 -1 2.22045e-016
    outer loop
      vertex 4.82963 -15.6 -1.29409
      vertex 4.33013 -15.6 -2.5
      vertex 8.9 -15.6 0.35
    endloop
  endfacet
  facet normal 0 -1 2.22045e-016
    outer loop
      vertex 4.33013 -15.6 -2.5
      vertex 3.53553 -15.6 -3.53553
      vertex 8.9 -15.6 0.35
    endloop
  endfacet
  facet normal 0 -1 2.22045e-016
    outer loop
      vertex 3.53553 -15.6 3.53553
      vertex 4.33013 -15.6 2.5
      vertex 4.41673 -15.6 7.65
    endloop
  endfacet
  facet normal 0 -2.22045e-016 -1
    outer loop
      vertex 3 -15.6 -7.65
      vertex 3 -12.1 -7.65
      vertex 17.048 -15.6 -7.65
    endloop
  endfacet
  facet normal 0 -2.22045e-016 -1
    outer loop
      vertex 17.048 -15.6 -7.65
      vertex 3 -12.1 -7.65
      vertex 7.65 -12.1 -7.65
    endloop
  endfacet
  facet normal 0 -2.22045e-016 -1
    outer loop
      vertex 11.35 -10.5 -7.65
      vertex 7.65 -12.1 -7.65
      vertex 7.65 12.1 -7.65
    endloop
  endfacet
  facet normal 0 -2.22045e-016 -1
    outer loop
      vertex 7.65 12.1 -7.65
      vertex 3 12.1 -7.65
      vertex 3 15.6 -7.65
    endloop
  endfacet
  facet normal 0 -2.22045e-016 -1
    outer loop
      vertex 7.65 12.1 -7.65
      vertex 3 15.6 -7.65
      vertex 17.048 15.6 -7.65
    endloop
  endfacet
  facet normal 0 -2.22045e-016 -1
    outer loop
      vertex 17.0706 4.58815 -7.65
      vertex 17.048 15.6 -7.65
      vertex 18.3 14.348 -7.65
    endloop
  endfacet
  facet normal 0 -2.22045e-016 -1
    outer loop
      vertex 16.65 10.5 -7.65
      vertex 17.048 15.6 -7.65
      vertex 17.0706 4.58815 -7.65
    endloop
  endfacet
  facet normal 0 -2.22045e-016 -1
    outer loop
      vertex 7.65 12.1 -7.65
      vertex 15.925 4.11362 -7.65
      vertex 14.9412 3.35876 -7.65
    endloop
  endfacet
  facet normal 0 -2.22045e-016 -1
    outer loop
      vertex 17.0706 -4.58815 -7.65
      vertex 16.65 -10.5 -7.65
      vertex 15.925 -4.11362 -7.65
    endloop
  endfacet
  facet normal 0 -2.22045e-016 -1
    outer loop
      vertex 7.65 12.1 -7.65
      vertex 14.9412 3.35876 -7.65
      vertex 14.1864 2.375 -7.65
    endloop
  endfacet
  facet normal 0 -2.22045e-016 -1
    outer loop
      vertex 12.675 -8.20503 -7.65
      vertex 7.65 12.1 -7.65
      vertex 14 -7.85 -7.65
    endloop
  endfacet
  facet normal 0 -2.22045e-016 -1
    outer loop
      vertex 7.65 12.1 -7.65
      vertex 14.1864 2.375 -7.65
      vertex 13.7119 1.22939 -7.65
    endloop
  endfacet
  facet normal 0 -2.22045e-016 -1
    outer loop
      vertex 7.65 12.1 -7.65
      vertex 13.7119 1.22939 -7.65
      vertex 13.55 0 -7.65
    endloop
  endfacet
  facet normal 0 -2.22045e-016 -1
    outer loop
      vertex 7.65 12.1 -7.65
      vertex 13.55 0 -7.65
      vertex 13.7119 -1.22939 -7.65
    endloop
  endfacet
  facet normal 0 -2.22045e-016 -1
    outer loop
      vertex 16.295 -9.175 -7.65
      vertex 15.925 -4.11362 -7.65
      vertex 16.65 -10.5 -7.65
    endloop
  endfacet
  facet normal 0 -2.22045e-016 -1
    outer loop
      vertex 15.325 -8.20503 -7.65
      vertex 14.9412 -3.35876 -7.65
      vertex 16.295 -9.175 -7.65
    endloop
  endfacet
  facet normal 0 -2.22045e-016 -1
    outer loop
      vertex 17.0706 -4.58815 -7.65
      vertex 17.048 -15.6 -7.65
      vertex 16.65 -10.5 -7.65
    endloop
  endfacet
  facet normal 0 -2.22045e-016 -1
    outer loop
      vertex 18.3 -4.75 -7.65
      vertex 17.048 -15.6 -7.65
      vertex 17.0706 -4.58815 -7.65
    endloop
  endfacet
  facet normal 0 -2.22045e-016 -1
    outer loop
      vertex 15.925 4.11362 -7.65
      vertex 16.65 10.5 -7.65
      vertex 17.0706 4.58815 -7.65
    endloop
  endfacet
  facet normal 0 -2.22045e-016 -1
    outer loop
      vertex 14 -13.15 -7.65
      vertex 17.048 -15.6 -7.65
      vertex 12.675 -12.795 -7.65
    endloop
  endfacet
  facet normal 0 -2.22045e-016 -1
    outer loop
      vertex 17.048 -15.6 -7.65
      vertex 18.3 -4.75 -7.65
      vertex 18.3 -14.348 -7.65
    endloop
  endfacet
  facet normal 0 -2.22045e-016 -1
    outer loop
      vertex 11.705 -11.825 -7.65
      vertex 7.65 -12.1 -7.65
      vertex 11.35 -10.5 -7.65
    endloop
  endfacet
  facet normal 0 -2.22045e-016 -1
    outer loop
      vertex 11.705 -9.175 -7.65
      vertex 11.35 -10.5 -7.65
      vertex 7.65 12.1 -7.65
    endloop
  endfacet
  facet normal 0 -2.22045e-016 -1
    outer loop
      vertex 12.675 -12.795 -7.65
      vertex 7.65 -12.1 -7.65
      vertex 11.705 -11.825 -7.65
    endloop
  endfacet
  facet normal 0 -2.22045e-016 -1
    outer loop
      vertex 17.048 -15.6 -7.65
      vertex 7.65 -12.1 -7.65
      vertex 12.675 -12.795 -7.65
    endloop
  endfacet
  facet normal 0 -2.22045e-016 -1
    outer loop
      vertex 15.325 -12.795 -7.65
      vertex 17.048 -15.6 -7.65
      vertex 14 -13.15 -7.65
    endloop
  endfacet
  facet normal 0 -2.22045e-016 -1
    outer loop
      vertex 14 -7.85 -7.65
      vertex 7.65 12.1 -7.65
      vertex 15.325 -8.20503 -7.65
    endloop
  endfacet
  facet normal 0 -2.22045e-016 -1
    outer loop
      vertex 16.295 -11.825 -7.65
      vertex 17.048 -15.6 -7.65
      vertex 15.325 -12.795 -7.65
    endloop
  endfacet
  facet normal 0 -2.22045e-016 -1
    outer loop
      vertex 15.925 -4.11362 -7.65
      vertex 16.295 -9.175 -7.65
      vertex 14.9412 -3.35876 -7.65
    endloop
  endfacet
  facet normal 0 -2.22045e-016 -1
    outer loop
      vertex 16.65 -10.5 -7.65
      vertex 17.048 -15.6 -7.65
      vertex 16.295 -11.825 -7.65
    endloop
  endfacet
  facet normal 0 -2.22045e-016 -1
    outer loop
      vertex 15.325 -8.20503 -7.65
      vertex 13.7119 -1.22939 -7.65
      vertex 14.1864 -2.375 -7.65
    endloop
  endfacet
  facet normal 0 -2.22045e-016 -1
    outer loop
      vertex 15.325 -8.20503 -7.65
      vertex 14.1864 -2.375 -7.65
      vertex 14.9412 -3.35876 -7.65
    endloop
  endfacet
  facet normal 0 -2.22045e-016 -1
    outer loop
      vertex 7.65 12.1 -7.65
      vertex 13.7119 -1.22939 -7.65
      vertex 15.325 -8.20503 -7.65
    endloop
  endfacet
  facet normal 0 -2.22045e-016 -1
    outer loop
      vertex 14 7.85 -7.65
      vertex 15.925 4.11362 -7.65
      vertex 12.675 8.20503 -7.65
    endloop
  endfacet
  facet normal 0 -2.22045e-016 -1
    outer loop
      vertex 12.675 -8.20503 -7.65
      vertex 11.705 -9.175 -7.65
      vertex 7.65 12.1 -7.65
    endloop
  endfacet
  facet normal 0 -2.22045e-016 -1
    outer loop
      vertex 7.65 12.1 -7.65
      vertex 11.35 10.5 -7.65
      vertex 11.705 9.175 -7.65
    endloop
  endfacet
  facet normal 0 -2.22045e-016 -1
    outer loop
      vertex 7.65 12.1 -7.65
      vertex 11.705 9.175 -7.65
      vertex 15.925 4.11362 -7.65
    endloop
  endfacet
  facet normal 0 -2.22045e-016 -1
    outer loop
      vertex 11.705 9.175 -7.65
      vertex 12.675 8.20503 -7.65
      vertex 15.925 4.11362 -7.65
    endloop
  endfacet
  facet normal 0 -2.22045e-016 -1
    outer loop
      vertex 14 13.15 -7.65
      vertex 17.048 15.6 -7.65
      vertex 15.325 12.795 -7.65
    endloop
  endfacet
  facet normal 0 -2.22045e-016 -1
    outer loop
      vertex 16.65 10.5 -7.65
      vertex 15.925 4.11362 -7.65
      vertex 16.295 9.175 -7.65
    endloop
  endfacet
  facet normal 0 -2.22045e-016 -1
    outer loop
      vertex 14 7.85 -7.65
      vertex 15.325 8.20503 -7.65
      vertex 15.925 4.11362 -7.65
    endloop
  endfacet
  facet normal 0 -2.22045e-016 -1
    outer loop
      vertex 15.325 12.795 -7.65
      vertex 17.048 15.6 -7.65
      vertex 16.295 11.825 -7.65
    endloop
  endfacet
  facet normal 0 -2.22045e-016 -1
    outer loop
      vertex 15.325 8.20503 -7.65
      vertex 16.295 9.175 -7.65
      vertex 15.925 4.11362 -7.65
    endloop
  endfacet
  facet normal 0 -2.22045e-016 -1
    outer loop
      vertex 16.295 11.825 -7.65
      vertex 17.048 15.6 -7.65
      vertex 16.65 10.5 -7.65
    endloop
  endfacet
  facet normal 0 -2.22045e-016 -1
    outer loop
      vertex 7.65 12.1 -7.65
      vertex 17.048 15.6 -7.65
      vertex 14 13.15 -7.65
    endloop
  endfacet
  facet normal 0 -2.22045e-016 -1
    outer loop
      vertex 7.65 12.1 -7.65
      vertex 14 13.15 -7.65
      vertex 12.675 12.795 -7.65
    endloop
  endfacet
  facet normal 0 -2.22045e-016 -1
    outer loop
      vertex 7.65 12.1 -7.65
      vertex 12.675 12.795 -7.65
      vertex 11.705 11.825 -7.65
    endloop
  endfacet
  facet normal 0 -2.22045e-016 -1
    outer loop
      vertex 7.65 12.1 -7.65
      vertex 11.705 11.825 -7.65
      vertex 11.35 10.5 -7.65
    endloop
  endfacet
  facet normal 0 -2.22045e-016 -1
    outer loop
      vertex 17.0706 4.58815 -7.65
      vertex 18.3 14.348 -7.65
      vertex 18.3 4.75 -7.65
    endloop
  endfacet
  facet normal 0 1 -2.22045e-016
    outer loop
      vertex 3.5195 -12.1 -6.79232
      vertex 7.65 -12.1 -7.65
      vertex 3 -12.1 -7.01797
    endloop
  endfacet
  facet normal 0 1 -2.22045e-016
    outer loop
      vertex 3.5195 -12.1 -6.79232
      vertex 4.4116 -12.1 -6.24982
      vertex 7.65 -12.1 -7.65
    endloop
  endfacet
  facet normal 0 1 -2.22045e-016
    outer loop
      vertex 4.4116 -12.1 -6.24982
      vertex 5.22153 -12.1 -5.59089
      vertex 7.65 -12.1 -7.65
    endloop
  endfacet
  facet normal 0 1 -2.22045e-016
    outer loop
      vertex 5.22153 -12.1 -5.59089
      vertex 5.93419 -12.1 -4.82782
      vertex 7.65 -12.1 -7.65
    endloop
  endfacet
  facet normal 0 1 -2.22045e-016
    outer loop
      vertex 5.93419 -12.1 -4.82782
      vertex 6.53631 -12.1 -3.97482
      vertex 7.65 -12.1 -7.65
    endloop
  endfacet
  facet normal 0 1 -2.22045e-016
    outer loop
      vertex 6.53631 -12.1 -3.97482
      vertex 7.01667 -12.1 -3.04777
      vertex 7.65 -12.1 -7.65
    endloop
  endfacet
  facet normal 0 1 -2.22045e-016
    outer loop
      vertex 7.01667 -12.1 -3.04777
      vertex 7.36632 -12.1 -2.06394
      vertex 7.65 -12.1 -7.65
    endloop
  endfacet
  facet normal 0 1 -2.22045e-016
    outer loop
      vertex 7.65 -12.1 -7.65
      vertex 7.57875 -12.1 -1.04167
      vertex 7.65 -12.1 1.79856e-015
    endloop
  endfacet
  facet normal 0 1 -2.22045e-016
    outer loop
      vertex 7.36632 -12.1 -2.06394
      vertex 7.57875 -12.1 -1.04167
      vertex 7.65 -12.1 -7.65
    endloop
  endfacet
  facet normal 0 1 -2.22045e-016
    outer loop
      vertex 7.65 -12.1 -7.65
      vertex 3 -12.1 -7.65
      vertex 3 -12.1 -7.01797
    endloop
  endfacet
  facet normal 0 1 -2.22045e-016
    outer loop
      vertex 7.36632 -12.1 2.06395
      vertex 4.33013 -12.1 -2.5
      vertex 7.01667 -12.1 3.04777
    endloop
  endfacet
  facet normal 0 1 -2.22045e-016
    outer loop
      vertex 6.53631 -12.1 3.97482
      vertex 4.82963 -12.1 -1.29409
      vertex 5.93419 -12.1 4.82782
    endloop
  endfacet
  facet normal 0 1 -2.22045e-016
    outer loop
      vertex 5.22153 -12.1 5.5909
      vertex 5 -12.1 2.68674e-015
      vertex 4.4116 -12.1 6.24982
    endloop
  endfacet
  facet normal 0 1 -2.22045e-016
    outer loop
      vertex 4.4116 -12.1 6.24982
      vertex 4.82963 -12.1 1.2941
      vertex 3.81707 -12.1 6.61136
    endloop
  endfacet
  facet normal 0 1 -2.22045e-016
    outer loop
      vertex 3.81707 -12.1 6.61136
      vertex 4.33013 -12.1 2.5
      vertex 3 -12.1 5.19615
    endloop
  endfacet
  facet normal 0 1 -2.22045e-016
    outer loop
      vertex 3 -12.1 5.19615
      vertex 3.53553 -12.1 3.53553
      vertex 3 -12.1 3.94646
    endloop
  endfacet
  facet normal 0 1 -2.22045e-016
    outer loop
      vertex 4.33013 -12.1 2.5
      vertex 3.53553 -12.1 3.53553
      vertex 3 -12.1 5.19615
    endloop
  endfacet
  facet normal 0 1 -2.22045e-016
    outer loop
      vertex 4.82963 -12.1 1.2941
      vertex 4.33013 -12.1 2.5
      vertex 3.81707 -12.1 6.61136
    endloop
  endfacet
  facet normal 0 1 -2.22045e-016
    outer loop
      vertex 5 -12.1 2.68674e-015
      vertex 4.82963 -12.1 1.2941
      vertex 4.4116 -12.1 6.24982
    endloop
  endfacet
  facet normal 0 1 -2.22045e-016
    outer loop
      vertex 5.93419 -12.1 4.82782
      vertex 5 -12.1 2.68674e-015
      vertex 5.22153 -12.1 5.5909
    endloop
  endfacet
  facet normal 0 1 -2.22045e-016
    outer loop
      vertex 4.82963 -12.1 -1.29409
      vertex 5 -12.1 2.68674e-015
      vertex 5.93419 -12.1 4.82782
    endloop
  endfacet
  facet normal 0 1 -2.22045e-016
    outer loop
      vertex 7.01667 -12.1 3.04777
      vertex 4.82963 -12.1 -1.29409
      vertex 6.53631 -12.1 3.97482
    endloop
  endfacet
  facet normal 0 1 -2.22045e-016
    outer loop
      vertex 4.33013 -12.1 -2.5
      vertex 4.82963 -12.1 -1.29409
      vertex 7.01667 -12.1 3.04777
    endloop
  endfacet
  facet normal 0 1 -2.22045e-016
    outer loop
      vertex 7.57875 -12.1 1.04168
      vertex 4.33013 -12.1 -2.5
      vertex 7.36632 -12.1 2.06395
    endloop
  endfacet
  facet normal 0 1 -2.22045e-016
    outer loop
      vertex 3.53553 -12.1 -3.53553
      vertex 4.33013 -12.1 -2.5
      vertex 7.57875 -12.1 1.04168
    endloop
  endfacet
  facet normal 0 1 -2.22045e-016
    outer loop
      vertex 3.53553 -12.1 -3.53553
      vertex 7.57875 -12.1 1.04168
      vertex 7.65 -12.1 2.68674e-015
    endloop
  endfacet
  facet normal 0 1 -2.22045e-016
    outer loop
      vertex 3.53553 -12.1 -3.53553
      vertex 7.65 -12.1 2.68674e-015
      vertex 7.57875 -12.1 -1.04167
    endloop
  endfacet
  facet normal 0 1 -2.22045e-016
    outer loop
      vertex 3.53553 -12.1 -3.53553
      vertex 7.57875 -12.1 -1.04167
      vertex 3 -12.1 -3.94646
    endloop
  endfacet
  facet normal 0 1 -2.22045e-016
    outer loop
      vertex 7.57875 -12.1 -1.04167
      vertex 7.36632 -12.1 -2.06394
      vertex 3 -12.1 -3.94646
    endloop
  endfacet
  facet normal 0 1 -2.22045e-016
    outer loop
      vertex 7.36632 -12.1 -2.06394
      vertex 7.01667 -12.1 -3.04777
      vertex 3 -12.1 -3.94646
    endloop
  endfacet
  facet normal 0 1 -2.22045e-016
    outer loop
      vertex 7.01667 -12.1 -3.04777
      vertex 6.53631 -12.1 -3.97482
      vertex 3 -12.1 -3.94646
    endloop
  endfacet
  facet normal 0 1 -2.22045e-016
    outer loop
      vertex 6.53631 -12.1 -3.97482
      vertex 5.93419 -12.1 -4.82782
      vertex 3 -12.1 -3.94646
    endloop
  endfacet
  facet normal 0 1 -2.22045e-016
    outer loop
      vertex 5.93419 -12.1 -4.82782
      vertex 5.22153 -12.1 -5.59089
      vertex 3 -12.1 -3.94646
    endloop
  endfacet
  facet normal 0 1 -2.22045e-016
    outer loop
      vertex 5.22153 -12.1 -5.59089
      vertex 4.4116 -12.1 -6.24982
      vertex 3 -12.1 -3.94646
    endloop
  endfacet
  facet normal 0 1 -2.22045e-016
    outer loop
      vertex 4.4116 -12.1 -6.24982
      vertex 3.5195 -12.1 -6.79232
      vertex 3 -12.1 -3.94646
    endloop
  endfacet
  facet normal 0 1 -2.22045e-016
    outer loop
      vertex 3.5195 -12.1 -6.79232
      vertex 3 -12.1 -7.01797
      vertex 3 -12.1 -3.94646
    endloop
  endfacet
  facet normal -0.608761 1.7616e-016 0.793353
    outer loop
      vertex 3.53553 -15.6 -3.53553
      vertex 3.53553 -12.1 -3.53553
      vertex 3 -12.1 -3.94646
    endloop
  endfacet
  facet normal -0.608761 1.7616e-016 0.793353
    outer loop
      vertex 3 -15.6 -3.94646
      vertex 3.53553 -15.6 -3.53553
      vertex 3 -12.1 -3.94646
    endloop
  endfacet
  facet normal -0.793353 1.35172e-016 0.608761
    outer loop
      vertex 4.33013 -12.1 -2.5
      vertex 3.53553 -12.1 -3.53553
      vertex 4.33013 -15.6 -2.5
    endloop
  endfacet
  facet normal -0.793353 1.35172e-016 0.608761
    outer loop
      vertex 4.33013 -15.6 -2.5
      vertex 3.53553 -12.1 -3.53553
      vertex 3.53553 -15.6 -3.53553
    endloop
  endfacet
  facet normal -0.92388 8.49728e-017 0.382683
    outer loop
      vertex 4.82963 -12.1 -1.29409
      vertex 4.33013 -12.1 -2.5
      vertex 4.82963 -15.6 -1.29409
    endloop
  endfacet
  facet normal -0.92388 8.49728e-017 0.382683
    outer loop
      vertex 4.82963 -15.6 -1.29409
      vertex 4.33013 -12.1 -2.5
      vertex 4.33013 -15.6 -2.5
    endloop
  endfacet
  facet normal -0.991445 2.89827e-017 0.130526
    outer loop
      vertex 5 -12.1 2.68674e-015
      vertex 4.82963 -12.1 -1.29409
      vertex 5 -15.6 3.4639e-015
    endloop
  endfacet
  facet normal -0.991445 2.89827e-017 0.130526
    outer loop
      vertex 5 -15.6 3.4639e-015
      vertex 4.82963 -12.1 -1.29409
      vertex 4.82963 -15.6 -1.29409
    endloop
  endfacet
  facet normal -0.991445 -2.89827e-017 -0.130526
    outer loop
      vertex 5 -12.1 2.68674e-015
      vertex 5 -15.6 3.4639e-015
      vertex 4.82963 -12.1 1.2941
    endloop
  endfacet
  facet normal -0.991445 -2.89827e-017 -0.130526
    outer loop
      vertex 4.82963 -12.1 1.2941
      vertex 5 -15.6 3.4639e-015
      vertex 4.82963 -15.6 1.2941
    endloop
  endfacet
  facet normal -0.92388 -8.49728e-017 -0.382683
    outer loop
      vertex 4.82963 -12.1 1.2941
      vertex 4.82963 -15.6 1.2941
      vertex 4.33013 -12.1 2.5
    endloop
  endfacet
  facet normal -0.92388 -8.49728e-017 -0.382683
    outer loop
      vertex 4.33013 -12.1 2.5
      vertex 4.82963 -15.6 1.2941
      vertex 4.33013 -15.6 2.5
    endloop
  endfacet
  facet normal -0.793353 -1.35172e-016 -0.608761
    outer loop
      vertex 4.33013 -12.1 2.5
      vertex 4.33013 -15.6 2.5
      vertex 3.53553 -12.1 3.53553
    endloop
  endfacet
  facet normal -0.793353 -1.35172e-016 -0.608761
    outer loop
      vertex 3.53553 -12.1 3.53553
      vertex 4.33013 -15.6 2.5
      vertex 3.53553 -15.6 3.53553
    endloop
  endfacet
  facet normal -0.608761 -1.7616e-016 -0.793353
    outer loop
      vertex 3.53553 -12.1 3.53553
      vertex 3.53553 -15.6 3.53553
      vertex 3 -12.1 3.94646
    endloop
  endfacet
  facet normal -0.608761 -1.7616e-016 -0.793353
    outer loop
      vertex 3 -12.1 3.94646
      vertex 3.53553 -15.6 3.53553
      vertex 3 -15.6 3.94646
    endloop
  endfacet
  facet normal -1 0 0
    outer loop
      vertex 3 -15.6 3.94646
      vertex 3 -15.6 5.19615
      vertex 3 -12.1 3.94646
    endloop
  endfacet
  facet normal -1 0 0
    outer loop
      vertex 3 -12.1 3.94646
      vertex 3 -15.6 5.19615
      vertex 3 -12.1 5.19615
    endloop
  endfacet
  facet normal -0.866025 0 0.5
    outer loop
      vertex 3.81707 -12.1 6.61136
      vertex 4.41673 -15.6 7.65
      vertex 3.81707 12.1 6.61136
    endloop
  endfacet
  facet normal -0.866025 0 0.5
    outer loop
      vertex 4.41673 15.6 7.65
      vertex 3 15.6 5.19615
      vertex 3.81707 12.1 6.61136
    endloop
  endfacet
  facet normal -0.866025 0 0.5
    outer loop
      vertex 4.41673 15.6 7.65
      vertex 3.81707 12.1 6.61136
      vertex 4.41673 -15.6 7.65
    endloop
  endfacet
  facet normal -0.866025 0 0.5
    outer loop
      vertex 4.41673 -15.6 7.65
      vertex 3.81707 -12.1 6.61136
      vertex 3 -12.1 5.19615
    endloop
  endfacet
  facet normal -0.866025 0 0.5
    outer loop
      vertex 4.41673 -15.6 7.65
      vertex 3 -12.1 5.19615
      vertex 3 -15.6 5.19615
    endloop
  endfacet
  facet normal -0.866025 0 0.5
    outer loop
      vertex 3.81707 12.1 6.61136
      vertex 3 15.6 5.19615
      vertex 3 12.1 5.19615
    endloop
  endfacet
  facet normal 0 0 1
    outer loop
      vertex 5.74263 -15.6 7.65
      vertex 5.74263 15.6 7.65
      vertex 4.41673 15.6 7.65
    endloop
  endfacet
  facet normal 0 0 1
    outer loop
      vertex 4.41673 -15.6 7.65
      vertex 5.74263 -15.6 7.65
      vertex 4.41673 15.6 7.65
    endloop
  endfacet
  facet normal 0.5 0 0.866025
    outer loop
      vertex 9.10659 -9.06316 5.70782
      vertex 11.8814 5.86088 4.10579
      vertex 8.95191 -9.77419 5.79712
    endloop
  endfacet
  facet normal 0.5 0 0.866025
    outer loop
      vertex 8.9 -15.6 5.82709
      vertex 8.9 -10.5 5.82709
      vertex 5.74263 15.6 7.65
    endloop
  endfacet
  facet normal 0.5 0 0.866025
    outer loop
      vertex 10.1457 7.16021 5.1079
      vertex 8.9 -10.5 5.82709
      vertex 8.95191 -9.77419 5.79712
    endloop
  endfacet
  facet normal 0.5 0 0.866025
    outer loop
      vertex 9.36088 -8.38138 5.56101
      vertex 14 5.4 2.88261
      vertex 9.10659 -9.06316 5.70782
    endloop
  endfacet
  facet normal 0.5 0 0.866025
    outer loop
      vertex 9.70961 -7.74273 5.35967
      vertex 13.55 0 3.14241
      vertex 9.36088 -8.38138 5.56101
    endloop
  endfacet
  facet normal 0.5 0 0.866025
    outer loop
      vertex 10.1457 -7.16021 5.1079
      vertex 13.7119 -1.22939 3.04897
      vertex 9.70961 -7.74273 5.35967
    endloop
  endfacet
  facet normal 0.5 0 0.866025
    outer loop
      vertex 10.6602 -6.64568 4.81083
      vertex 14.1864 -2.375 2.775
      vertex 10.1457 -7.16021 5.1079
    endloop
  endfacet
  facet normal 0.5 0 0.866025
    outer loop
      vertex 11.2427 -6.20961 4.47452
      vertex 14.9412 -3.35876 2.33918
      vertex 10.6602 -6.64568 4.81083
    endloop
  endfacet
  facet normal 0.5 0 0.866025
    outer loop
      vertex 11.8814 -5.86088 4.10579
      vertex 14.9412 -3.35876 2.33918
      vertex 11.2427 -6.20961 4.47452
    endloop
  endfacet
  facet normal 0.5 0 0.866025
    outer loop
      vertex 12.5632 -5.60659 3.71216
      vertex 15.925 -4.11362 1.77121
      vertex 11.8814 -5.86088 4.10579
    endloop
  endfacet
  facet normal 0.5 0 0.866025
    outer loop
      vertex 13.2742 -5.45191 3.30165
      vertex 17.0706 -4.58815 1.10979
      vertex 12.5632 -5.60659 3.71216
    endloop
  endfacet
  facet normal 0.5 0 0.866025
    outer loop
      vertex 14 -5.4 2.88261
      vertex 18.3 -4.75 0.4
      vertex 13.2742 -5.45191 3.30165
    endloop
  endfacet
  facet normal 0.5 0 0.866025
    outer loop
      vertex 13.7119 1.22939 3.04897
      vertex 14.1864 2.375 2.775
      vertex 9.36088 -8.38138 5.56101
    endloop
  endfacet
  facet normal 0.5 0 0.866025
    outer loop
      vertex 18.3 -5.4 0.4
      vertex 18.3 -4.75 0.4
      vertex 14 -5.4 2.88261
    endloop
  endfacet
  facet normal 0.5 0 0.866025
    outer loop
      vertex 18.3 -4.75 0.4
      vertex 17.0706 -4.58815 1.10979
      vertex 13.2742 -5.45191 3.30165
    endloop
  endfacet
  facet normal 0.5 0 0.866025
    outer loop
      vertex 14.1864 2.375 2.775
      vertex 14 5.4 2.88261
      vertex 9.36088 -8.38138 5.56101
    endloop
  endfacet
  facet normal 0.5 0 0.866025
    outer loop
      vertex 17.0706 -4.58815 1.10979
      vertex 15.925 -4.11362 1.77121
      vertex 12.5632 -5.60659 3.71216
    endloop
  endfacet
  facet normal 0.5 0 0.866025
    outer loop
      vertex 15.925 -4.11362 1.77121
      vertex 14.9412 -3.35876 2.33918
      vertex 11.8814 -5.86088 4.10579
    endloop
  endfacet
  facet normal 0.5 0 0.866025
    outer loop
      vertex 14.9412 -3.35876 2.33918
      vertex 14.1864 -2.375 2.775
      vertex 10.6602 -6.64568 4.81083
    endloop
  endfacet
  facet normal 0.5 0 0.866025
    outer loop
      vertex 14.1864 -2.375 2.775
      vertex 13.7119 -1.22939 3.04897
      vertex 10.1457 -7.16021 5.1079
    endloop
  endfacet
  facet normal 0.5 0 0.866025
    outer loop
      vertex 13.7119 -1.22939 3.04897
      vertex 13.55 0 3.14241
      vertex 9.70961 -7.74273 5.35967
    endloop
  endfacet
  facet normal 0.5 0 0.866025
    outer loop
      vertex 13.55 0 3.14241
      vertex 13.7119 1.22939 3.04897
      vertex 9.36088 -8.38138 5.56101
    endloop
  endfacet
  facet normal 0.5 0 0.866025
    outer loop
      vertex 14.9412 3.35876 2.33918
      vertex 14 5.4 2.88261
      vertex 14.1864 2.375 2.775
    endloop
  endfacet
  facet normal 0.5 0 0.866025
    outer loop
      vertex 15.925 4.11362 1.77121
      vertex 14 5.4 2.88261
      vertex 14.9412 3.35876 2.33918
    endloop
  endfacet
  facet normal 0.5 0 0.866025
    outer loop
      vertex 17.0706 4.58815 1.10979
      vertex 18.3 5.4 0.4
      vertex 15.925 4.11362 1.77121
    endloop
  endfacet
  facet normal 0.5 0 0.866025
    outer loop
      vertex 14 5.4 2.88261
      vertex 13.2742 5.45191 3.30165
      vertex 9.10659 -9.06316 5.70782
    endloop
  endfacet
  facet normal 0.5 0 0.866025
    outer loop
      vertex 18.3 4.75 0.4
      vertex 18.3 5.4 0.4
      vertex 17.0706 4.58815 1.10979
    endloop
  endfacet
  facet normal 0.5 0 0.866025
    outer loop
      vertex 18.3 5.4 0.4
      vertex 14 5.4 2.88261
      vertex 15.925 4.11362 1.77121
    endloop
  endfacet
  facet normal 0.5 0 0.866025
    outer loop
      vertex 12.5632 5.60659 3.71216
      vertex 11.8814 5.86088 4.10579
      vertex 9.10659 -9.06316 5.70782
    endloop
  endfacet
  facet normal 0.5 0 0.866025
    outer loop
      vertex 13.2742 5.45191 3.30165
      vertex 12.5632 5.60659 3.71216
      vertex 9.10659 -9.06316 5.70782
    endloop
  endfacet
  facet normal 0.5 0 0.866025
    outer loop
      vertex 11.2427 6.20961 4.47452
      vertex 10.6602 6.64568 4.81083
      vertex 8.95191 -9.77419 5.79712
    endloop
  endfacet
  facet normal 0.5 0 0.866025
    outer loop
      vertex 10.6602 6.64568 4.81083
      vertex 10.1457 7.16021 5.1079
      vertex 8.95191 -9.77419 5.79712
    endloop
  endfacet
  facet normal 0.5 0 0.866025
    outer loop
      vertex 11.8814 5.86088 4.10579
      vertex 11.2427 6.20961 4.47452
      vertex 8.95191 -9.77419 5.79712
    endloop
  endfacet
  facet normal 0.5 0 0.866025
    outer loop
      vertex 9.70961 7.74273 5.35967
      vertex 9.36088 8.38138 5.56101
      vertex 8.9 -10.5 5.82709
    endloop
  endfacet
  facet normal 0.5 0 0.866025
    outer loop
      vertex 9.36088 8.38138 5.56101
      vertex 9.10659 9.06316 5.70782
      vertex 8.9 -10.5 5.82709
    endloop
  endfacet
  facet normal 0.5 0 0.866025
    outer loop
      vertex 10.1457 7.16021 5.1079
      vertex 9.70961 7.74273 5.35967
      vertex 8.9 -10.5 5.82709
    endloop
  endfacet
  facet normal 0.5 0 0.866025
    outer loop
      vertex 9.10659 9.06316 5.70782
      vertex 8.95191 9.77419 5.79712
      vertex 8.9 -10.5 5.82709
    endloop
  endfacet
  facet normal 0.5 0 0.866025
    outer loop
      vertex 8.95191 9.77419 5.79712
      vertex 8.9 10.5 5.82709
      vertex 8.9 -10.5 5.82709
    endloop
  endfacet
  facet normal 0.5 0 0.866025
    outer loop
      vertex 8.9 10.5 5.82709
      vertex 5.74263 15.6 7.65
      vertex 8.9 -10.5 5.82709
    endloop
  endfacet
  facet normal 0.5 0 0.866025
    outer loop
      vertex 8.9 15.6 5.82709
      vertex 5.74263 15.6 7.65
      vertex 8.9 10.5 5.82709
    endloop
  endfacet
  facet normal 0.5 0 0.866025
    outer loop
      vertex 5.74263 15.6 7.65
      vertex 5.74263 -15.6 7.65
      vertex 8.9 -15.6 5.82709
    endloop
  endfacet
  facet normal 1 0 0
    outer loop
      vertex 8.9 -10.5 0.35
      vertex 8.9 -10.5 5.82709
      vertex 8.9 -15.6 5.82709
    endloop
  endfacet
  facet normal 1 0 0
    outer loop
      vertex 8.9 -15.6 0.35
      vertex 8.9 -10.5 0.35
      vertex 8.9 -15.6 5.82709
    endloop
  endfacet
  facet normal 0 0 1
    outer loop
      vertex 17.048 -15.6 0.35
      vertex 18.3 -14.348 0.35
      vertex 18.3 -5.4 0.35
    endloop
  endfacet
  facet normal 0 0 1
    outer loop
      vertex 16.65 -10.5 0.35
      vertex 16.295 -11.825 0.35
      vertex 17.048 -15.6 0.35
    endloop
  endfacet
  facet normal 0 0 1
    outer loop
      vertex 16.65 -10.5 0.35
      vertex 17.048 -15.6 0.35
      vertex 18.3 -5.4 0.35
    endloop
  endfacet
  facet normal 0 0 1
    outer loop
      vertex 16.295 -11.825 0.35
      vertex 15.325 -12.795 0.35
      vertex 17.048 -15.6 0.35
    endloop
  endfacet
  facet normal 0 0 1
    outer loop
      vertex 14 -7.85 0.35
      vertex 14 -5.4 0.35
      vertex 13.2742 -5.45191 0.35
    endloop
  endfacet
  facet normal 0 0 1
    outer loop
      vertex 12.675 -8.20503 0.35
      vertex 14 -7.85 0.35
      vertex 12.5632 -5.60659 0.35
    endloop
  endfacet
  facet normal 0 0 1
    outer loop
      vertex 14 -7.85 0.35
      vertex 15.325 -8.20503 0.35
      vertex 14 -5.4 0.35
    endloop
  endfacet
  facet normal 0 0 1
    outer loop
      vertex 11.705 -9.175 0.35
      vertex 10.6602 -6.64568 0.35
      vertex 10.1457 -7.16021 0.35
    endloop
  endfacet
  facet normal 0 0 1
    outer loop
      vertex 11.35 -10.5 0.35
      vertex 9.70961 -7.74273 0.35
      vertex 9.36088 -8.38138 0.35
    endloop
  endfacet
  facet normal 0 0 1
    outer loop
      vertex 11.705 -9.175 0.35
      vertex 12.675 -8.20503 0.35
      vertex 11.2427 -6.20961 0.35
    endloop
  endfacet
  facet normal 0 0 1
    outer loop
      vertex 8.9 -15.6 0.35
      vertex 17.048 -15.6 0.35
      vertex 8.9 -10.5 0.35
    endloop
  endfacet
  facet normal 0 0 1
    outer loop
      vertex 9.10659 -9.06316 0.35
      vertex 11.35 -10.5 0.35
      vertex 9.36088 -8.38138 0.35
    endloop
  endfacet
  facet normal 0 0 1
    outer loop
      vertex 14 -13.15 0.35
      vertex 12.675 -12.795 0.35
      vertex 17.048 -15.6 0.35
    endloop
  endfacet
  facet normal 0 0 1
    outer loop
      vertex 9.70961 -7.74273 0.35
      vertex 11.705 -9.175 0.35
      vertex 10.1457 -7.16021 0.35
    endloop
  endfacet
  facet normal 0 0 1
    outer loop
      vertex 11.2427 -6.20961 0.35
      vertex 12.675 -8.20503 0.35
      vertex 11.8814 -5.86088 0.35
    endloop
  endfacet
  facet normal 0 0 1
    outer loop
      vertex 12.5632 -5.60659 0.35
      vertex 14 -7.85 0.35
      vertex 13.2742 -5.45191 0.35
    endloop
  endfacet
  facet normal 0 0 1
    outer loop
      vertex 15.325 -12.795 0.35
      vertex 14 -13.15 0.35
      vertex 17.048 -15.6 0.35
    endloop
  endfacet
  facet normal 0 0 1
    outer loop
      vertex 14 -5.4 0.35
      vertex 15.325 -8.20503 0.35
      vertex 18.3 -5.4 0.35
    endloop
  endfacet
  facet normal 0 0 1
    outer loop
      vertex 15.325 -8.20503 0.35
      vertex 16.295 -9.175 0.35
      vertex 18.3 -5.4 0.35
    endloop
  endfacet
  facet normal 0 0 1
    outer loop
      vertex 16.295 -9.175 0.35
      vertex 16.65 -10.5 0.35
      vertex 18.3 -5.4 0.35
    endloop
  endfacet
  facet normal 0 0 1
    outer loop
      vertex 12.675 -8.20503 0.35
      vertex 12.5632 -5.60659 0.35
      vertex 11.8814 -5.86088 0.35
    endloop
  endfacet
  facet normal 0 0 1
    outer loop
      vertex 11.35 -10.5 0.35
      vertex 11.705 -9.175 0.35
      vertex 9.70961 -7.74273 0.35
    endloop
  endfacet
  facet normal 0 0 1
    outer loop
      vertex 11.705 -9.175 0.35
      vertex 11.2427 -6.20961 0.35
      vertex 10.6602 -6.64568 0.35
    endloop
  endfacet
  facet normal 0 0 1
    outer loop
      vertex 8.9 -10.5 0.35
      vertex 12.675 -12.795 0.35
      vertex 8.95191 -9.77419 0.35
    endloop
  endfacet
  facet normal 0 0 1
    outer loop
      vertex 8.9 -10.5 0.35
      vertex 17.048 -15.6 0.35
      vertex 12.675 -12.795 0.35
    endloop
  endfacet
  facet normal 0 0 1
    outer loop
      vertex 12.675 -12.795 0.35
      vertex 11.705 -11.825 0.35
      vertex 8.95191 -9.77419 0.35
    endloop
  endfacet
  facet normal 0 0 1
    outer loop
      vertex 11.705 -11.825 0.35
      vertex 9.10659 -9.06316 0.35
      vertex 8.95191 -9.77419 0.35
    endloop
  endfacet
  facet normal 0 0 1
    outer loop
      vertex 11.705 -11.825 0.35
      vertex 11.35 -10.5 0.35
      vertex 9.10659 -9.06316 0.35
    endloop
  endfacet
  facet normal 0.707107 -0.707107 0
    outer loop
      vertex 17.048 -15.6 0.35
      vertex 17.048 -15.6 -7.65
      vertex 18.3 -14.348 -7.65
    endloop
  endfacet
  facet normal 0.707107 -0.707107 0
    outer loop
      vertex 18.3 -14.348 0.35
      vertex 17.048 -15.6 0.35
      vertex 18.3 -14.348 -7.65
    endloop
  endfacet
  facet normal 1 0 0
    outer loop
      vertex 18.3 -14.348 0.35
      vertex 18.3 -14.348 -7.65
      vertex 18.3 -4.75 -7.65
    endloop
  endfacet
  facet normal 1 0 0
    outer loop
      vertex 18.3 -5.4 0.35
      vertex 18.3 -14.348 0.35
      vertex 18.3 -4.75 -7.65
    endloop
  endfacet
  facet normal 1 0 0
    outer loop
      vertex 18.3 -4.75 0.4
      vertex 18.3 -5.4 0.35
      vertex 18.3 -4.75 -7.65
    endloop
  endfacet
  facet normal 1 0 0
    outer loop
      vertex 18.3 -5.4 0.4
      vertex 18.3 -5.4 0.35
      vertex 18.3 -4.75 0.4
    endloop
  endfacet
  facet normal 0.130526 0.991445 0
    outer loop
      vertex 18.3 -4.75 0.4
      vertex 18.3 -4.75 -7.65
      vertex 17.0706 -4.58815 1.10979
    endloop
  endfacet
  facet normal 0.130526 0.991445 0
    outer loop
      vertex 18.3 -4.75 -7.65
      vertex 17.0706 -4.58815 -7.65
      vertex 17.0706 -4.58815 1.10979
    endloop
  endfacet
  facet normal 0.382683 0.92388 0
    outer loop
      vertex 17.0706 -4.58815 1.10979
      vertex 17.0706 -4.58815 -7.65
      vertex 15.925 -4.11362 1.77121
    endloop
  endfacet
  facet normal 0.382683 0.92388 0
    outer loop
      vertex 15.925 -4.11362 1.77121
      vertex 17.0706 -4.58815 -7.65
      vertex 15.925 -4.11362 -7.65
    endloop
  endfacet
  facet normal 0.608762 0.793353 0
    outer loop
      vertex 15.925 -4.11362 1.77121
      vertex 15.925 -4.11362 -7.65
      vertex 14.9412 -3.35876 2.33918
    endloop
  endfacet
  facet normal 0.608762 0.793353 0
    outer loop
      vertex 14.9412 -3.35876 2.33918
      vertex 15.925 -4.11362 -7.65
      vertex 14.9412 -3.35876 -7.65
    endloop
  endfacet
  facet normal 0.793353 0.608762 0
    outer loop
      vertex 14.1864 -2.375 2.775
      vertex 14.9412 -3.35876 2.33918
      vertex 14.9412 -3.35876 -7.65
    endloop
  endfacet
  facet normal 0.793353 0.608762 0
    outer loop
      vertex 14.1864 -2.375 -7.65
      vertex 14.1864 -2.375 2.775
      vertex 14.9412 -3.35876 -7.65
    endloop
  endfacet
  facet normal 0.92388 0.382683 0
    outer loop
      vertex 13.7119 -1.22939 3.04897
      vertex 14.1864 -2.375 2.775
      vertex 14.1864 -2.375 -7.65
    endloop
  endfacet
  facet normal 0.92388 0.382683 0
    outer loop
      vertex 13.7119 -1.22939 -7.65
      vertex 13.7119 -1.22939 3.04897
      vertex 14.1864 -2.375 -7.65
    endloop
  endfacet
  facet normal 0.991445 0.130526 0
    outer loop
      vertex 13.55 0 3.14241
      vertex 13.7119 -1.22939 3.04897
      vertex 13.7119 -1.22939 -7.65
    endloop
  endfacet
  facet normal 0.991445 0.130526 0
    outer loop
      vertex 13.55 0 -7.65
      vertex 13.55 0 3.14241
      vertex 13.7119 -1.22939 -7.65
    endloop
  endfacet
  facet normal 0.991445 -0.130526 0
    outer loop
      vertex 13.7119 1.22939 -7.65
      vertex 13.7119 1.22939 3.04897
      vertex 13.55 0 3.14241
    endloop
  endfacet
  facet normal 0.991445 -0.130526 0
    outer loop
      vertex 13.55 0 -7.65
      vertex 13.7119 1.22939 -7.65
      vertex 13.55 0 3.14241
    endloop
  endfacet
  facet normal 0.92388 -0.382683 0
    outer loop
      vertex 14.1864 2.375 -7.65
      vertex 14.1864 2.375 2.775
      vertex 13.7119 1.22939 3.04897
    endloop
  endfacet
  facet normal 0.92388 -0.382683 0
    outer loop
      vertex 13.7119 1.22939 -7.65
      vertex 14.1864 2.375 -7.65
      vertex 13.7119 1.22939 3.04897
    endloop
  endfacet
  facet normal 0.793353 -0.608762 0
    outer loop
      vertex 14.9412 3.35876 -7.65
      vertex 14.9412 3.35876 2.33918
      vertex 14.1864 2.375 2.775
    endloop
  endfacet
  facet normal 0.793353 -0.608762 0
    outer loop
      vertex 14.1864 2.375 -7.65
      vertex 14.9412 3.35876 -7.65
      vertex 14.1864 2.375 2.775
    endloop
  endfacet
  facet normal 0.608762 -0.793353 0
    outer loop
      vertex 15.925 4.11362 -7.65
      vertex 15.925 4.11362 1.77121
      vertex 14.9412 3.35876 2.33918
    endloop
  endfacet
  facet normal 0.608762 -0.793353 0
    outer loop
      vertex 14.9412 3.35876 -7.65
      vertex 15.925 4.11362 -7.65
      vertex 14.9412 3.35876 2.33918
    endloop
  endfacet
  facet normal 0.382683 -0.92388 0
    outer loop
      vertex 17.0706 4.58815 -7.65
      vertex 17.0706 4.58815 1.10979
      vertex 15.925 4.11362 1.77121
    endloop
  endfacet
  facet normal 0.382683 -0.92388 0
    outer loop
      vertex 15.925 4.11362 -7.65
      vertex 17.0706 4.58815 -7.65
      vertex 15.925 4.11362 1.77121
    endloop
  endfacet
  facet normal 0.130526 -0.991445 0
    outer loop
      vertex 17.0706 4.58815 1.10979
      vertex 18.3 4.75 -7.65
      vertex 18.3 4.75 0.4
    endloop
  endfacet
  facet normal 0.130526 -0.991445 0
    outer loop
      vertex 17.0706 4.58815 1.10979
      vertex 17.0706 4.58815 -7.65
      vertex 18.3 4.75 -7.65
    endloop
  endfacet
  facet normal 1 0 0
    outer loop
      vertex 18.3 4.75 0.4
      vertex 18.3 4.75 -7.65
      vertex 18.3 14.348 -7.65
    endloop
  endfacet
  facet normal 1 0 0
    outer loop
      vertex 18.3 5.4 0.35
      vertex 18.3 4.75 0.4
      vertex 18.3 14.348 -7.65
    endloop
  endfacet
  facet normal 1 0 0
    outer loop
      vertex 18.3 14.348 0.35
      vertex 18.3 5.4 0.35
      vertex 18.3 14.348 -7.65
    endloop
  endfacet
  facet normal 1 0 0
    outer loop
      vertex 18.3 5.4 0.35
      vertex 18.3 5.4 0.4
      vertex 18.3 4.75 0.4
    endloop
  endfacet
  facet normal 0.707107 0.707107 0
    outer loop
      vertex 17.048 15.6 0.35
      vertex 18.3 14.348 0.35
      vertex 17.048 15.6 -7.65
    endloop
  endfacet
  facet normal 0.707107 0.707107 0
    outer loop
      vertex 17.048 15.6 -7.65
      vertex 18.3 14.348 0.35
      vertex 18.3 14.348 -7.65
    endloop
  endfacet
  facet normal 0 1 -2.22045e-016
    outer loop
      vertex 3 15.6 -7.65
      vertex 3 15.6 -3.94646
      vertex 17.048 15.6 -7.65
    endloop
  endfacet
  facet normal 0 1 -2.22045e-016
    outer loop
      vertex 17.048 15.6 -7.65
      vertex 3 15.6 -3.94646
      vertex 3.53553 15.6 -3.53553
    endloop
  endfacet
  facet normal 0 1 -2.22045e-016
    outer loop
      vertex 17.048 15.6 -7.65
      vertex 3.53553 15.6 -3.53553
      vertex 4.33013 15.6 -2.5
    endloop
  endfacet
  facet normal 0 1 -2.22045e-016
    outer loop
      vertex 4.33013 15.6 -2.5
      vertex 4.82963 15.6 -1.2941
      vertex 17.048 15.6 -7.65
    endloop
  endfacet
  facet normal 0 1 -2.22045e-016
    outer loop
      vertex 4.82963 15.6 -1.2941
      vertex 5 15.6 -3.4639e-015
      vertex 17.048 15.6 -7.65
    endloop
  endfacet
  facet normal 0 1 -2.22045e-016
    outer loop
      vertex 5 15.6 -3.4639e-015
      vertex 4.82963 15.6 1.29409
      vertex 17.048 15.6 -7.65
    endloop
  endfacet
  facet normal 0 1 -2.22045e-016
    outer loop
      vertex 4.82963 15.6 1.29409
      vertex 4.33013 15.6 2.5
      vertex 17.048 15.6 -7.65
    endloop
  endfacet
  facet normal 0 1 -2.22045e-016
    outer loop
      vertex 4.33013 15.6 2.5
      vertex 3.53553 15.6 3.53553
      vertex 17.048 15.6 -7.65
    endloop
  endfacet
  facet normal 0 1 -2.22045e-016
    outer loop
      vertex 3.53553 15.6 3.53553
      vertex 3 15.6 3.94646
      vertex 3 15.6 5.19615
    endloop
  endfacet
  facet normal 0 1 -2.22045e-016
    outer loop
      vertex 3.53553 15.6 3.53553
      vertex 3 15.6 5.19615
      vertex 17.048 15.6 -7.65
    endloop
  endfacet
  facet normal 0 1 -2.22045e-016
    outer loop
      vertex 8.9 15.6 0.35
      vertex 3 15.6 5.19615
      vertex 4.41673 15.6 7.65
    endloop
  endfacet
  facet normal 0 1 -2.22045e-016
    outer loop
      vertex 17.048 15.6 -7.65
      vertex 3 15.6 5.19615
      vertex 8.9 15.6 0.35
    endloop
  endfacet
  facet normal 0 1 -2.22045e-016
    outer loop
      vertex 17.048 15.6 0.35
      vertex 17.048 15.6 -7.65
      vertex 8.9 15.6 0.35
    endloop
  endfacet
  facet normal 0 1 -2.22045e-016
    outer loop
      vertex 8.9 15.6 0.35
      vertex 4.41673 15.6 7.65
      vertex 5.74263 15.6 7.65
    endloop
  endfacet
  facet normal 0 1 -2.22045e-016
    outer loop
      vertex 8.9 15.6 0.35
      vertex 5.74263 15.6 7.65
      vertex 8.9 15.6 5.82709
    endloop
  endfacet
  facet normal -1 0 0
    outer loop
      vertex 3 12.1 -7.65
      vertex 3 12.1 -3.94646
      vertex 3 15.6 -7.65
    endloop
  endfacet
  facet normal -1 0 0
    outer loop
      vertex 3 15.6 -7.65
      vertex 3 12.1 -3.94646
      vertex 3 15.6 -3.94646
    endloop
  endfacet
  facet normal 0 -1 2.22045e-016
    outer loop
      vertex 7.65 12.1 -7.65
      vertex 7.65 12.1 -3.57492e-015
      vertex 5 12.1 -3.57492e-015
    endloop
  endfacet
  facet normal 0 -1 2.22045e-016
    outer loop
      vertex 4.33013 12.1 -2.5
      vertex 7.65 12.1 -7.65
      vertex 4.82963 12.1 -1.2941
    endloop
  endfacet
  facet normal 0 -1 2.22045e-016
    outer loop
      vertex 4.82963 12.1 -1.2941
      vertex 7.65 12.1 -7.65
      vertex 5 12.1 -3.57492e-015
    endloop
  endfacet
  facet normal 0 -1 2.22045e-016
    outer loop
      vertex 3.53553 12.1 -3.53553
      vertex 7.65 12.1 -7.65
      vertex 4.33013 12.1 -2.5
    endloop
  endfacet
  facet normal 0 -1 2.22045e-016
    outer loop
      vertex 3 12.1 -3.94646
      vertex 7.65 12.1 -7.65
      vertex 3.53553 12.1 -3.53553
    endloop
  endfacet
  facet normal 0 -1 2.22045e-016
    outer loop
      vertex 3 12.1 -7.65
      vertex 7.65 12.1 -7.65
      vertex 3 12.1 -3.94646
    endloop
  endfacet
  facet normal -1 0 0
    outer loop
      vertex 7.65 12.1 -3.57492e-015
      vertex 7.65 12.1 -7.65
      vertex 7.65 -12.1 1.79856e-015
    endloop
  endfacet
  facet normal -1 0 0
    outer loop
      vertex 7.65 -12.1 1.79856e-015
      vertex 7.65 12.1 -7.65
      vertex 7.65 -12.1 -7.65
    endloop
  endfacet
  facet normal 0.965926 0.258819 0
    outer loop
      vertex 11.35 -10.5 0.35
      vertex 11.705 -11.825 0.35
      vertex 11.705 -11.825 -7.65
    endloop
  endfacet
  facet normal 0.965926 0.258819 0
    outer loop
      vertex 11.35 -10.5 -7.65
      vertex 11.35 -10.5 0.35
      vertex 11.705 -11.825 -7.65
    endloop
  endfacet
  facet normal 0.965926 -0.258819 0
    outer loop
      vertex 11.705 -9.175 -7.65
      vertex 11.705 -9.175 0.35
      vertex 11.35 -10.5 0.35
    endloop
  endfacet
  facet normal 0.965926 -0.258819 0
    outer loop
      vertex 11.35 -10.5 -7.65
      vertex 11.705 -9.175 -7.65
      vertex 11.35 -10.5 0.35
    endloop
  endfacet
  facet normal 0.707107 -0.707107 0
    outer loop
      vertex 12.675 -8.20503 -7.65
      vertex 12.675 -8.20503 0.35
      vertex 11.705 -9.175 0.35
    endloop
  endfacet
  facet normal 0.707107 -0.707107 0
    outer loop
      vertex 11.705 -9.175 -7.65
      vertex 12.675 -8.20503 -7.65
      vertex 11.705 -9.175 0.35
    endloop
  endfacet
  facet normal 0.258819 -0.965926 0
    outer loop
      vertex 14 -7.85 -7.65
      vertex 14 -7.85 0.35
      vertex 12.675 -8.20503 0.35
    endloop
  endfacet
  facet normal 0.258819 -0.965926 0
    outer loop
      vertex 12.675 -8.20503 -7.65
      vertex 14 -7.85 -7.65
      vertex 12.675 -8.20503 0.35
    endloop
  endfacet
  facet normal -0.258819 -0.965926 0
    outer loop
      vertex 15.325 -8.20503 -7.65
      vertex 15.325 -8.20503 0.35
      vertex 14 -7.85 0.35
    endloop
  endfacet
  facet normal -0.258819 -0.965926 0
    outer loop
      vertex 14 -7.85 -7.65
      vertex 15.325 -8.20503 -7.65
      vertex 14 -7.85 0.35
    endloop
  endfacet
  facet normal -0.707107 -0.707107 0
    outer loop
      vertex 16.295 -9.175 -7.65
      vertex 16.295 -9.175 0.35
      vertex 15.325 -8.20503 0.35
    endloop
  endfacet
  facet normal -0.707107 -0.707107 0
    outer loop
      vertex 15.325 -8.20503 -7.65
      vertex 16.295 -9.175 -7.65
      vertex 15.325 -8.20503 0.35
    endloop
  endfacet
  facet normal -0.965926 -0.258819 0
    outer loop
      vertex 16.65 -10.5 0.35
      vertex 16.295 -9.175 0.35
      vertex 16.65 -10.5 -7.65
    endloop
  endfacet
  facet normal -0.965926 -0.258819 0
    outer loop
      vertex 16.65 -10.5 -7.65
      vertex 16.295 -9.175 0.35
      vertex 16.295 -9.175 -7.65
    endloop
  endfacet
  facet normal -0.965926 0.258819 0
    outer loop
      vertex 16.65 -10.5 0.35
      vertex 16.65 -10.5 -7.65
      vertex 16.295 -11.825 0.35
    endloop
  endfacet
  facet normal -0.965926 0.258819 0
    outer loop
      vertex 16.295 -11.825 0.35
      vertex 16.65 -10.5 -7.65
      vertex 16.295 -11.825 -7.65
    endloop
  endfacet
  facet normal -0.707107 0.707107 0
    outer loop
      vertex 16.295 -11.825 0.35
      vertex 16.295 -11.825 -7.65
      vertex 15.325 -12.795 0.35
    endloop
  endfacet
  facet normal -0.707107 0.707107 0
    outer loop
      vertex 15.325 -12.795 0.35
      vertex 16.295 -11.825 -7.65
      vertex 15.325 -12.795 -7.65
    endloop
  endfacet
  facet normal -0.258819 0.965926 0
    outer loop
      vertex 15.325 -12.795 0.35
      vertex 15.325 -12.795 -7.65
      vertex 14 -13.15 0.35
    endloop
  endfacet
  facet normal -0.258819 0.965926 0
    outer loop
      vertex 14 -13.15 0.35
      vertex 15.325 -12.795 -7.65
      vertex 14 -13.15 -7.65
    endloop
  endfacet
  facet normal 0.258819 0.965926 0
    outer loop
      vertex 14 -13.15 0.35
      vertex 14 -13.15 -7.65
      vertex 12.675 -12.795 0.35
    endloop
  endfacet
  facet normal 0.258819 0.965926 0
    outer loop
      vertex 12.675 -12.795 0.35
      vertex 14 -13.15 -7.65
      vertex 12.675 -12.795 -7.65
    endloop
  endfacet
  facet normal 0.707107 0.707107 0
    outer loop
      vertex 12.675 -12.795 0.35
      vertex 12.675 -12.795 -7.65
      vertex 11.705 -11.825 0.35
    endloop
  endfacet
  facet normal 0.707107 0.707107 0
    outer loop
      vertex 11.705 -11.825 0.35
      vertex 12.675 -12.795 -7.65
      vertex 11.705 -11.825 -7.65
    endloop
  endfacet
  facet normal 0.965926 -0.258819 0
    outer loop
      vertex 11.705 11.825 -7.65
      vertex 11.705 11.825 0.35
      vertex 11.35 10.5 0.35
    endloop
  endfacet
  facet normal 0.965926 -0.258819 0
    outer loop
      vertex 11.35 10.5 -7.65
      vertex 11.705 11.825 -7.65
      vertex 11.35 10.5 0.35
    endloop
  endfacet
  facet normal 0.965926 0.258819 0
    outer loop
      vertex 11.35 10.5 0.35
      vertex 11.705 9.175 0.35
      vertex 11.705 9.175 -7.65
    endloop
  endfacet
  facet normal 0.965926 0.258819 0
    outer loop
      vertex 11.35 10.5 -7.65
      vertex 11.35 10.5 0.35
      vertex 11.705 9.175 -7.65
    endloop
  endfacet
  facet normal 0.707107 -0.707107 0
    outer loop
      vertex 12.675 12.795 -7.65
      vertex 12.675 12.795 0.35
      vertex 11.705 11.825 0.35
    endloop
  endfacet
  facet normal 0.707107 -0.707107 0
    outer loop
      vertex 11.705 11.825 -7.65
      vertex 12.675 12.795 -7.65
      vertex 11.705 11.825 0.35
    endloop
  endfacet
  facet normal 0.258819 -0.965926 0
    outer loop
      vertex 14 13.15 -7.65
      vertex 14 13.15 0.35
      vertex 12.675 12.795 0.35
    endloop
  endfacet
  facet normal 0.258819 -0.965926 0
    outer loop
      vertex 12.675 12.795 -7.65
      vertex 14 13.15 -7.65
      vertex 12.675 12.795 0.35
    endloop
  endfacet
  facet normal -0.258819 -0.965926 0
    outer loop
      vertex 15.325 12.795 -7.65
      vertex 15.325 12.795 0.35
      vertex 14 13.15 0.35
    endloop
  endfacet
  facet normal -0.258819 -0.965926 0
    outer loop
      vertex 14 13.15 -7.65
      vertex 15.325 12.795 -7.65
      vertex 14 13.15 0.35
    endloop
  endfacet
  facet normal -0.707107 -0.707107 0
    outer loop
      vertex 16.295 11.825 -7.65
      vertex 16.295 11.825 0.35
      vertex 15.325 12.795 0.35
    endloop
  endfacet
  facet normal -0.707107 -0.707107 0
    outer loop
      vertex 15.325 12.795 -7.65
      vertex 16.295 11.825 -7.65
      vertex 15.325 12.795 0.35
    endloop
  endfacet
  facet normal -0.965926 -0.258819 0
    outer loop
      vertex 16.65 10.5 0.35
      vertex 16.295 11.825 0.35
      vertex 16.65 10.5 -7.65
    endloop
  endfacet
  facet normal -0.965926 -0.258819 0
    outer loop
      vertex 16.65 10.5 -7.65
      vertex 16.295 11.825 0.35
      vertex 16.295 11.825 -7.65
    endloop
  endfacet
  facet normal -0.965926 0.258819 0
    outer loop
      vertex 16.65 10.5 0.35
      vertex 16.65 10.5 -7.65
      vertex 16.295 9.175 0.35
    endloop
  endfacet
  facet normal -0.965926 0.258819 0
    outer loop
      vertex 16.295 9.175 0.35
      vertex 16.65 10.5 -7.65
      vertex 16.295 9.175 -7.65
    endloop
  endfacet
  facet normal -0.707107 0.707107 0
    outer loop
      vertex 16.295 9.175 0.35
      vertex 16.295 9.175 -7.65
      vertex 15.325 8.20503 0.35
    endloop
  endfacet
  facet normal -0.707107 0.707107 0
    outer loop
      vertex 15.325 8.20503 0.35
      vertex 16.295 9.175 -7.65
      vertex 15.325 8.20503 -7.65
    endloop
  endfacet
  facet normal -0.258819 0.965926 0
    outer loop
      vertex 15.325 8.20503 0.35
      vertex 15.325 8.20503 -7.65
      vertex 14 7.85 0.35
    endloop
  endfacet
  facet normal -0.258819 0.965926 0
    outer loop
      vertex 14 7.85 0.35
      vertex 15.325 8.20503 -7.65
      vertex 14 7.85 -7.65
    endloop
  endfacet
  facet normal 0.258819 0.965926 0
    outer loop
      vertex 14 7.85 0.35
      vertex 14 7.85 -7.65
      vertex 12.675 8.20503 0.35
    endloop
  endfacet
  facet normal 0.258819 0.965926 0
    outer loop
      vertex 12.675 8.20503 0.35
      vertex 14 7.85 -7.65
      vertex 12.675 8.20503 -7.65
    endloop
  endfacet
  facet normal 0.707107 0.707107 0
    outer loop
      vertex 12.675 8.20503 0.35
      vertex 12.675 8.20503 -7.65
      vertex 11.705 9.175 0.35
    endloop
  endfacet
  facet normal 0.707107 0.707107 0
    outer loop
      vertex 11.705 9.175 0.35
      vertex 12.675 8.20503 -7.65
      vertex 11.705 9.175 -7.65
    endloop
  endfacet
  facet normal -0.997669 1.5153e-017 0.0682429
    outer loop
      vertex 7.65 12.1 -2.68674e-015
      vertex 7.65 12.1 -3.57492e-015
      vertex 7.65 -12.1 2.68674e-015
    endloop
  endfacet
  facet normal -0.997669 1.5153e-017 0.0682429
    outer loop
      vertex 7.65 -12.1 2.68674e-015
      vertex 7.65 12.1 -3.57492e-015
      vertex 7.65 -12.1 1.79856e-015
    endloop
  endfacet
  facet normal -0.997669 1.5153e-017 0.0682429
    outer loop
      vertex 7.65 -12.1 2.68674e-015
      vertex 7.65 -12.1 1.79856e-015
      vertex 7.57875 -12.1 -1.04167
    endloop
  endfacet
  facet normal -0.997669 -1.5153e-017 -0.0682429
    outer loop
      vertex 7.65 12.1 -2.68674e-015
      vertex 7.65 -12.1 2.68674e-015
      vertex 7.57875 12.1 1.04167
    endloop
  endfacet
  facet normal -0.997669 -1.5153e-017 -0.0682429
    outer loop
      vertex 7.57875 12.1 1.04167
      vertex 7.65 -12.1 2.68674e-015
      vertex 7.57875 -12.1 1.04168
    endloop
  endfacet
  facet normal -0.979084 -4.51763e-017 -0.203456
    outer loop
      vertex 7.57875 12.1 1.04167
      vertex 7.57875 -12.1 1.04168
      vertex 7.36632 12.1 2.06394
    endloop
  endfacet
  facet normal -0.979084 -4.51763e-017 -0.203456
    outer loop
      vertex 7.36632 12.1 2.06394
      vertex 7.57875 -12.1 1.04168
      vertex 7.36632 -12.1 2.06395
    endloop
  endfacet
  facet normal -0.942261 -7.43583e-017 -0.33488
    outer loop
      vertex 7.36632 12.1 2.06394
      vertex 7.36632 -12.1 2.06395
      vertex 7.01667 12.1 3.04777
    endloop
  endfacet
  facet normal -0.942261 -7.43583e-017 -0.33488
    outer loop
      vertex 7.01667 12.1 3.04777
      vertex 7.36632 -12.1 2.06395
      vertex 7.01667 -12.1 3.04777
    endloop
  endfacet
  facet normal -0.887885 -1.02155e-016 -0.460065
    outer loop
      vertex 7.01667 12.1 3.04777
      vertex 7.01667 -12.1 3.04777
      vertex 6.53631 12.1 3.97482
    endloop
  endfacet
  facet normal -0.887885 -1.02155e-016 -0.460065
    outer loop
      vertex 6.53631 12.1 3.97482
      vertex 7.01667 -12.1 3.04777
      vertex 6.53631 -12.1 3.97482
    endloop
  endfacet
  facet normal -0.81697 -1.28049e-016 -0.57668
    outer loop
      vertex 6.53631 12.1 3.97482
      vertex 6.53631 -12.1 3.97482
      vertex 5.93419 12.1 4.82782
    endloop
  endfacet
  facet normal -0.81697 -1.28049e-016 -0.57668
    outer loop
      vertex 5.93419 12.1 4.82782
      vertex 6.53631 -12.1 3.97482
      vertex 5.93419 -12.1 4.82782
    endloop
  endfacet
  facet normal -0.730836 -1.51557e-016 -0.682553
    outer loop
      vertex 5.93419 12.1 4.82782
      vertex 5.93419 -12.1 4.82782
      vertex 5.22153 12.1 5.59089
    endloop
  endfacet
  facet normal -0.730836 -1.51557e-016 -0.682553
    outer loop
      vertex 5.22153 12.1 5.59089
      vertex 5.93419 -12.1 4.82782
      vertex 5.22153 -12.1 5.5909
    endloop
  endfacet
  facet normal -0.631088 -1.72243e-016 -0.775711
    outer loop
      vertex 5.22153 12.1 5.59089
      vertex 5.22153 -12.1 5.5909
      vertex 4.4116 12.1 6.24982
    endloop
  endfacet
  facet normal -0.631088 -1.72243e-016 -0.775711
    outer loop
      vertex 4.4116 12.1 6.24982
      vertex 5.22153 -12.1 5.5909
      vertex 4.4116 -12.1 6.24982
    endloop
  endfacet
  facet normal -0.519584 -1.89719e-016 -0.854419
    outer loop
      vertex 4.4116 -12.1 6.24982
      vertex 3.81707 -12.1 6.61136
      vertex 4.4116 12.1 6.24982
    endloop
  endfacet
  facet normal -0.519584 -1.89719e-016 -0.854419
    outer loop
      vertex 4.4116 12.1 6.24982
      vertex 3.81707 -12.1 6.61136
      vertex 3.81707 12.1 6.61136
    endloop
  endfacet
  facet normal 0 -1 2.22045e-016
    outer loop
      vertex 7.65 12.1 -3.57492e-015
      vertex 4.33013 12.1 2.5
      vertex 4.82963 12.1 1.29409
    endloop
  endfacet
  facet normal 0 -1 2.22045e-016
    outer loop
      vertex 5 12.1 -2.68674e-015
      vertex 7.65 12.1 -3.57492e-015
      vertex 4.82963 12.1 1.29409
    endloop
  endfacet
  facet normal 0 -1 2.22045e-016
    outer loop
      vertex 3.53553 12.1 3.53553
      vertex 4.33013 12.1 2.5
      vertex 7.65 12.1 -3.57492e-015
    endloop
  endfacet
  facet normal 0 -1 2.22045e-016
    outer loop
      vertex 5 12.1 -3.57492e-015
      vertex 7.65 12.1 -3.57492e-015
      vertex 5 12.1 -2.68674e-015
    endloop
  endfacet
  facet normal 0 -1 2.22045e-016
    outer loop
      vertex 7.65 12.1 -3.57492e-015
      vertex 7.65 12.1 -2.68674e-015
      vertex 3.53553 12.1 3.53553
    endloop
  endfacet
  facet normal 0 -1 2.22045e-016
    outer loop
      vertex 7.65 12.1 -2.68674e-015
      vertex 7.57875 12.1 1.04167
      vertex 3.53553 12.1 3.53553
    endloop
  endfacet
  facet normal 0 -1 2.22045e-016
    outer loop
      vertex 7.57875 12.1 1.04167
      vertex 7.36632 12.1 2.06394
      vertex 3.53553 12.1 3.53553
    endloop
  endfacet
  facet normal 0 -1 2.22045e-016
    outer loop
      vertex 7.36632 12.1 2.06394
      vertex 7.01667 12.1 3.04777
      vertex 3.53553 12.1 3.53553
    endloop
  endfacet
  facet normal 0 -1 2.22045e-016
    outer loop
      vertex 7.01667 12.1 3.04777
      vertex 6.53631 12.1 3.97482
      vertex 3.53553 12.1 3.53553
    endloop
  endfacet
  facet normal 0 -1 2.22045e-016
    outer loop
      vertex 6.53631 12.1 3.97482
      vertex 5.93419 12.1 4.82782
      vertex 3.53553 12.1 3.53553
    endloop
  endfacet
  facet normal 0 -1 2.22045e-016
    outer loop
      vertex 5.93419 12.1 4.82782
      vertex 5.22153 12.1 5.59089
      vertex 3.53553 12.1 3.53553
    endloop
  endfacet
  facet normal 0 -1 2.22045e-016
    outer loop
      vertex 5.22153 12.1 5.59089
      vertex 4.4116 12.1 6.24982
      vertex 3.53553 12.1 3.53553
    endloop
  endfacet
  facet normal 0 -1 2.22045e-016
    outer loop
      vertex 4.4116 12.1 6.24982
      vertex 3.81707 12.1 6.61136
      vertex 3.53553 12.1 3.53553
    endloop
  endfacet
  facet normal 0 -1 2.22045e-016
    outer loop
      vertex 3.81707 12.1 6.61136
      vertex 3 12.1 5.19615
      vertex 3.53553 12.1 3.53553
    endloop
  endfacet
  facet normal 0 -1 2.22045e-016
    outer loop
      vertex 3 12.1 5.19615
      vertex 3 12.1 3.94646
      vertex 3.53553 12.1 3.53553
    endloop
  endfacet
  facet normal -1 0 0
    outer loop
      vertex 3 12.1 3.94646
      vertex 3 12.1 5.19615
      vertex 3 15.6 3.94646
    endloop
  endfacet
  facet normal -1 0 0
    outer loop
      vertex 3 15.6 3.94646
      vertex 3 12.1 5.19615
      vertex 3 15.6 5.19615
    endloop
  endfacet
  facet normal 1 0 0
    outer loop
      vertex 8.9 15.6 0.35
      vertex 8.9 15.6 5.82709
      vertex 8.9 10.5 5.82709
    endloop
  endfacet
  facet normal 1 0 0
    outer loop
      vertex 8.9 10.5 0.35
      vertex 8.9 15.6 0.35
      vertex 8.9 10.5 5.82709
    endloop
  endfacet
  facet normal 0.997452 0.0713396 0
    outer loop
      vertex 8.9 10.5 5.82709
      vertex 8.95191 9.77419 5.79712
      vertex 8.95191 9.77419 0.35
    endloop
  endfacet
  facet normal 0.997452 0.0713396 0
    outer loop
      vertex 8.9 10.5 0.35
      vertex 8.9 10.5 5.82709
      vertex 8.95191 9.77419 0.35
    endloop
  endfacet
  facet normal 0.977147 0.212565 0
    outer loop
      vertex 8.95191 9.77419 5.79712
      vertex 9.10659 9.06316 5.70782
      vertex 9.10659 9.06316 0.35
    endloop
  endfacet
  facet normal 0.977147 0.212565 0
    outer loop
      vertex 8.95191 9.77419 0.35
      vertex 8.95191 9.77419 5.79712
      vertex 9.10659 9.06316 0.35
    endloop
  endfacet
  facet normal 0.93695 0.349464 0
    outer loop
      vertex 9.10659 9.06316 5.70782
      vertex 9.36088 8.38138 5.56101
      vertex 9.36088 8.38138 0.35
    endloop
  endfacet
  facet normal 0.93695 0.349464 0
    outer loop
      vertex 9.10659 9.06316 0.35
      vertex 9.10659 9.06316 5.70782
      vertex 9.36088 8.38138 0.35
    endloop
  endfacet
  facet normal 0.877679 0.479249 0
    outer loop
      vertex 9.36088 8.38138 5.56101
      vertex 9.70961 7.74273 5.35967
      vertex 9.70961 7.74273 0.35
    endloop
  endfacet
  facet normal 0.877679 0.479249 0
    outer loop
      vertex 9.36088 8.38138 0.35
      vertex 9.36088 8.38138 5.56101
      vertex 9.70961 7.74273 0.35
    endloop
  endfacet
  facet normal 0.800542 0.599277 0
    outer loop
      vertex 9.70961 7.74273 5.35967
      vertex 10.1457 7.16021 5.1079
      vertex 10.1457 7.16021 0.35
    endloop
  endfacet
  facet normal 0.800542 0.599277 0
    outer loop
      vertex 9.70961 7.74273 0.35
      vertex 9.70961 7.74273 5.35967
      vertex 10.1457 7.16021 0.35
    endloop
  endfacet
  facet normal 0.707107 0.707107 0
    outer loop
      vertex 10.6602 6.64568 4.81083
      vertex 10.6602 6.64568 0.35
      vertex 10.1457 7.16021 5.1079
    endloop
  endfacet
  facet normal 0.707107 0.707107 0
    outer loop
      vertex 10.1457 7.16021 5.1079
      vertex 10.6602 6.64568 0.35
      vertex 10.1457 7.16021 0.35
    endloop
  endfacet
  facet normal 0.599277 0.800542 0
    outer loop
      vertex 11.2427 6.20961 4.47452
      vertex 11.2427 6.20961 0.35
      vertex 10.6602 6.64568 4.81083
    endloop
  endfacet
  facet normal 0.599277 0.800542 0
    outer loop
      vertex 10.6602 6.64568 4.81083
      vertex 11.2427 6.20961 0.35
      vertex 10.6602 6.64568 0.35
    endloop
  endfacet
  facet normal 0.479249 0.877679 0
    outer loop
      vertex 11.8814 5.86088 4.10579
      vertex 11.8814 5.86088 0.35
      vertex 11.2427 6.20961 4.47452
    endloop
  endfacet
  facet normal 0.479249 0.877679 0
    outer loop
      vertex 11.2427 6.20961 4.47452
      vertex 11.8814 5.86088 0.35
      vertex 11.2427 6.20961 0.35
    endloop
  endfacet
  facet normal 0.349464 0.93695 0
    outer loop
      vertex 12.5632 5.60659 3.71216
      vertex 12.5632 5.60659 0.35
      vertex 11.8814 5.86088 4.10579
    endloop
  endfacet
  facet normal 0.349464 0.93695 0
    outer loop
      vertex 11.8814 5.86088 4.10579
      vertex 12.5632 5.60659 0.35
      vertex 11.8814 5.86088 0.35
    endloop
  endfacet
  facet normal 0.212565 0.977147 0
    outer loop
      vertex 13.2742 5.45191 3.30165
      vertex 13.2742 5.45191 0.35
      vertex 12.5632 5.60659 3.71216
    endloop
  endfacet
  facet normal 0.212565 0.977147 0
    outer loop
      vertex 12.5632 5.60659 3.71216
      vertex 13.2742 5.45191 0.35
      vertex 12.5632 5.60659 0.35
    endloop
  endfacet
  facet normal 0.0713396 0.997452 0
    outer loop
      vertex 14 5.4 2.88261
      vertex 14 5.4 0.35
      vertex 13.2742 5.45191 3.30165
    endloop
  endfacet
  facet normal 0.0713396 0.997452 0
    outer loop
      vertex 13.2742 5.45191 3.30165
      vertex 14 5.4 0.35
      vertex 13.2742 5.45191 0.35
    endloop
  endfacet
  facet normal 0 1 0
    outer loop
      vertex 18.3 5.4 0.4
      vertex 18.3 5.4 0.35
      vertex 14 5.4 2.88261
    endloop
  endfacet
  facet normal 0 1 0
    outer loop
      vertex 18.3 5.4 0.35
      vertex 14 5.4 0.35
      vertex 14 5.4 2.88261
    endloop
  endfacet
  facet normal 0 -1 0
    outer loop
      vertex 14 -5.4 2.88261
      vertex 18.3 -5.4 0.35
      vertex 18.3 -5.4 0.4
    endloop
  endfacet
  facet normal 0 -1 0
    outer loop
      vertex 14 -5.4 2.88261
      vertex 14 -5.4 0.35
      vertex 18.3 -5.4 0.35
    endloop
  endfacet
  facet normal 0.0713396 -0.997452 0
    outer loop
      vertex 14 -5.4 0.35
      vertex 14 -5.4 2.88261
      vertex 13.2742 -5.45191 3.30165
    endloop
  endfacet
  facet normal 0.0713396 -0.997452 0
    outer loop
      vertex 13.2742 -5.45191 0.35
      vertex 14 -5.4 0.35
      vertex 13.2742 -5.45191 3.30165
    endloop
  endfacet
  facet normal 0.212565 -0.977147 0
    outer loop
      vertex 13.2742 -5.45191 0.35
      vertex 13.2742 -5.45191 3.30165
      vertex 12.5632 -5.60659 3.71216
    endloop
  endfacet
  facet normal 0.212565 -0.977147 0
    outer loop
      vertex 12.5632 -5.60659 0.35
      vertex 13.2742 -5.45191 0.35
      vertex 12.5632 -5.60659 3.71216
    endloop
  endfacet
  facet normal 0.349464 -0.93695 0
    outer loop
      vertex 12.5632 -5.60659 0.35
      vertex 12.5632 -5.60659 3.71216
      vertex 11.8814 -5.86088 4.10579
    endloop
  endfacet
  facet normal 0.349464 -0.93695 0
    outer loop
      vertex 11.8814 -5.86088 0.35
      vertex 12.5632 -5.60659 0.35
      vertex 11.8814 -5.86088 4.10579
    endloop
  endfacet
  facet normal 0.479249 -0.877679 0
    outer loop
      vertex 11.8814 -5.86088 0.35
      vertex 11.8814 -5.86088 4.10579
      vertex 11.2427 -6.20961 4.47452
    endloop
  endfacet
  facet normal 0.479249 -0.877679 0
    outer loop
      vertex 11.2427 -6.20961 0.35
      vertex 11.8814 -5.86088 0.35
      vertex 11.2427 -6.20961 4.47452
    endloop
  endfacet
  facet normal 0.599277 -0.800542 0
    outer loop
      vertex 11.2427 -6.20961 0.35
      vertex 11.2427 -6.20961 4.47452
      vertex 10.6602 -6.64568 4.81083
    endloop
  endfacet
  facet normal 0.599277 -0.800542 0
    outer loop
      vertex 10.6602 -6.64568 0.35
      vertex 11.2427 -6.20961 0.35
      vertex 10.6602 -6.64568 4.81083
    endloop
  endfacet
  facet normal 0.707107 -0.707107 0
    outer loop
      vertex 10.6602 -6.64568 0.35
      vertex 10.6602 -6.64568 4.81083
      vertex 10.1457 -7.16021 5.1079
    endloop
  endfacet
  facet normal 0.707107 -0.707107 0
    outer loop
      vertex 10.1457 -7.16021 0.35
      vertex 10.6602 -6.64568 0.35
      vertex 10.1457 -7.16021 5.1079
    endloop
  endfacet
  facet normal 0.800542 -0.599277 0
    outer loop
      vertex 10.1457 -7.16021 0.35
      vertex 10.1457 -7.16021 5.1079
      vertex 9.70961 -7.74273 5.35967
    endloop
  endfacet
  facet normal 0.800542 -0.599277 0
    outer loop
      vertex 9.70961 -7.74273 0.35
      vertex 10.1457 -7.16021 0.35
      vertex 9.70961 -7.74273 5.35967
    endloop
  endfacet
  facet normal 0.877679 -0.479249 0
    outer loop
      vertex 9.70961 -7.74273 0.35
      vertex 9.70961 -7.74273 5.35967
      vertex 9.36088 -8.38138 5.56101
    endloop
  endfacet
  facet normal 0.877679 -0.479249 0
    outer loop
      vertex 9.36088 -8.38138 0.35
      vertex 9.70961 -7.74273 0.35
      vertex 9.36088 -8.38138 5.56101
    endloop
  endfacet
  facet normal 0.93695 -0.349464 0
    outer loop
      vertex 9.36088 -8.38138 0.35
      vertex 9.36088 -8.38138 5.56101
      vertex 9.10659 -9.06316 5.70782
    endloop
  endfacet
  facet normal 0.93695 -0.349464 0
    outer loop
      vertex 9.10659 -9.06316 0.35
      vertex 9.36088 -8.38138 0.35
      vertex 9.10659 -9.06316 5.70782
    endloop
  endfacet
  facet normal 0.977147 -0.212565 0
    outer loop
      vertex 9.10659 -9.06316 0.35
      vertex 9.10659 -9.06316 5.70782
      vertex 8.95191 -9.77419 5.79712
    endloop
  endfacet
  facet normal 0.977147 -0.212565 0
    outer loop
      vertex 8.95191 -9.77419 0.35
      vertex 9.10659 -9.06316 0.35
      vertex 8.95191 -9.77419 5.79712
    endloop
  endfacet
  facet normal 0.997452 -0.0713396 0
    outer loop
      vertex 8.95191 -9.77419 0.35
      vertex 8.95191 -9.77419 5.79712
      vertex 8.9 -10.5 5.82709
    endloop
  endfacet
  facet normal 0.997452 -0.0713396 0
    outer loop
      vertex 8.9 -10.5 0.35
      vertex 8.95191 -9.77419 0.35
      vertex 8.9 -10.5 5.82709
    endloop
  endfacet
  facet normal 0 0 1
    outer loop
      vertex 8.95191 9.77419 0.35
      vertex 9.10659 9.06316 0.35
      vertex 9.36088 8.38138 0.35
    endloop
  endfacet
  facet normal 0 0 1
    outer loop
      vertex 10.1457 7.16021 0.35
      vertex 8.95191 9.77419 0.35
      vertex 9.70961 7.74273 0.35
    endloop
  endfacet
  facet normal 0 0 1
    outer loop
      vertex 9.70961 7.74273 0.35
      vertex 8.95191 9.77419 0.35
      vertex 9.36088 8.38138 0.35
    endloop
  endfacet
  facet normal 0 0 1
    outer loop
      vertex 10.6602 6.64568 0.35
      vertex 8.95191 9.77419 0.35
      vertex 10.1457 7.16021 0.35
    endloop
  endfacet
  facet normal 0 0 1
    outer loop
      vertex 11.2427 6.20961 0.35
      vertex 8.95191 9.77419 0.35
      vertex 10.6602 6.64568 0.35
    endloop
  endfacet
  facet normal 0 0 1
    outer loop
      vertex 11.8814 5.86088 0.35
      vertex 8.95191 9.77419 0.35
      vertex 11.2427 6.20961 0.35
    endloop
  endfacet
  facet normal 0 0 1
    outer loop
      vertex 12.5632 5.60659 0.35
      vertex 8.95191 9.77419 0.35
      vertex 11.8814 5.86088 0.35
    endloop
  endfacet
  facet normal 0 0 1
    outer loop
      vertex 13.2742 5.45191 0.35
      vertex 8.95191 9.77419 0.35
      vertex 12.5632 5.60659 0.35
    endloop
  endfacet
  facet normal 0 0 1
    outer loop
      vertex 14 5.4 0.35
      vertex 8.95191 9.77419 0.35
      vertex 13.2742 5.45191 0.35
    endloop
  endfacet
  facet normal 0 0 1
    outer loop
      vertex 18.3 5.4 0.35
      vertex 8.95191 9.77419 0.35
      vertex 14 5.4 0.35
    endloop
  endfacet
  facet normal 0 0 1
    outer loop
      vertex 12.675 8.20503 0.35
      vertex 8.95191 9.77419 0.35
      vertex 18.3 5.4 0.35
    endloop
  endfacet
  facet normal 0 0 1
    outer loop
      vertex 8.9 10.5 0.35
      vertex 8.95191 9.77419 0.35
      vertex 8.9 15.6 0.35
    endloop
  endfacet
  facet normal 0 0 1
    outer loop
      vertex 15.325 12.795 0.35
      vertex 16.295 11.825 0.35
      vertex 18.3 14.348 0.35
    endloop
  endfacet
  facet normal 0 0 1
    outer loop
      vertex 12.675 8.20503 0.35
      vertex 11.705 9.175 0.35
      vertex 8.95191 9.77419 0.35
    endloop
  endfacet
  facet normal 0 0 1
    outer loop
      vertex 14 13.15 0.35
      vertex 15.325 12.795 0.35
      vertex 18.3 14.348 0.35
    endloop
  endfacet
  facet normal 0 0 1
    outer loop
      vertex 8.9 15.6 0.35
      vertex 8.95191 9.77419 0.35
      vertex 11.705 11.825 0.35
    endloop
  endfacet
  facet normal 0 0 1
    outer loop
      vertex 8.9 15.6 0.35
      vertex 12.675 12.795 0.35
      vertex 17.048 15.6 0.35
    endloop
  endfacet
  facet normal 0 0 1
    outer loop
      vertex 8.9 15.6 0.35
      vertex 11.705 11.825 0.35
      vertex 12.675 12.795 0.35
    endloop
  endfacet
  facet normal 0 0 1
    outer loop
      vertex 17.048 15.6 0.35
      vertex 14 13.15 0.35
      vertex 18.3 14.348 0.35
    endloop
  endfacet
  facet normal 0 0 1
    outer loop
      vertex 12.675 12.795 0.35
      vertex 14 13.15 0.35
      vertex 17.048 15.6 0.35
    endloop
  endfacet
  facet normal 0 0 1
    outer loop
      vertex 15.325 8.20503 0.35
      vertex 14 7.85 0.35
      vertex 18.3 5.4 0.35
    endloop
  endfacet
  facet normal 0 0 1
    outer loop
      vertex 18.3 14.348 0.35
      vertex 16.295 11.825 0.35
      vertex 18.3 5.4 0.35
    endloop
  endfacet
  facet normal 0 0 1
    outer loop
      vertex 16.295 11.825 0.35
      vertex 16.65 10.5 0.35
      vertex 18.3 5.4 0.35
    endloop
  endfacet
  facet normal 0 0 1
    outer loop
      vertex 16.65 10.5 0.35
      vertex 16.295 9.175 0.35
      vertex 18.3 5.4 0.35
    endloop
  endfacet
  facet normal 0 0 1
    outer loop
      vertex 16.295 9.175 0.35
      vertex 15.325 8.20503 0.35
      vertex 18.3 5.4 0.35
    endloop
  endfacet
  facet normal 0 0 1
    outer loop
      vertex 14 7.85 0.35
      vertex 12.675 8.20503 0.35
      vertex 18.3 5.4 0.35
    endloop
  endfacet
  facet normal 0 0 1
    outer loop
      vertex 11.35 10.5 0.35
      vertex 8.95191 9.77419 0.35
      vertex 11.705 9.175 0.35
    endloop
  endfacet
  facet normal 0 0 1
    outer loop
      vertex 11.35 10.5 0.35
      vertex 11.705 11.825 0.35
      vertex 8.95191 9.77419 0.35
    endloop
  endfacet
  facet normal -0.608761 -1.7616e-016 -0.793353
    outer loop
      vertex 3.53553 15.6 3.53553
      vertex 3.53553 12.1 3.53553
      vertex 3 15.6 3.94646
    endloop
  endfacet
  facet normal -0.608761 -1.7616e-016 -0.793353
    outer loop
      vertex 3 15.6 3.94646
      vertex 3.53553 12.1 3.53553
      vertex 3 12.1 3.94646
    endloop
  endfacet
  facet normal -0.793353 -1.35172e-016 -0.608761
    outer loop
      vertex 4.33013 15.6 2.5
      vertex 4.33013 12.1 2.5
      vertex 3.53553 15.6 3.53553
    endloop
  endfacet
  facet normal -0.793353 -1.35172e-016 -0.608761
    outer loop
      vertex 3.53553 15.6 3.53553
      vertex 4.33013 12.1 2.5
      vertex 3.53553 12.1 3.53553
    endloop
  endfacet
  facet normal -0.92388 -8.49728e-017 -0.382683
    outer loop
      vertex 4.82963 15.6 1.29409
      vertex 4.82963 12.1 1.29409
      vertex 4.33013 15.6 2.5
    endloop
  endfacet
  facet normal -0.92388 -8.49728e-017 -0.382683
    outer loop
      vertex 4.33013 15.6 2.5
      vertex 4.82963 12.1 1.29409
      vertex 4.33013 12.1 2.5
    endloop
  endfacet
  facet normal -0.991445 -2.89827e-017 -0.130526
    outer loop
      vertex 5 15.6 -3.4639e-015
      vertex 5 12.1 -2.68674e-015
      vertex 4.82963 15.6 1.29409
    endloop
  endfacet
  facet normal -0.991445 -2.89827e-017 -0.130526
    outer loop
      vertex 4.82963 15.6 1.29409
      vertex 5 12.1 -2.68674e-015
      vertex 4.82963 12.1 1.29409
    endloop
  endfacet
  facet normal -0.991445 2.89827e-017 0.130526
    outer loop
      vertex 5 12.1 -3.57492e-015
      vertex 5 12.1 -2.68674e-015
      vertex 5 15.6 -3.4639e-015
    endloop
  endfacet
  facet normal -0.991445 2.89827e-017 0.130526
    outer loop
      vertex 5 12.1 -3.57492e-015
      vertex 5 15.6 -3.4639e-015
      vertex 4.82963 15.6 -1.2941
    endloop
  endfacet
  facet normal -0.991445 2.89827e-017 0.130526
    outer loop
      vertex 5 12.1 -3.57492e-015
      vertex 4.82963 15.6 -1.2941
      vertex 4.82963 12.1 -1.2941
    endloop
  endfacet
  facet normal -0.92388 8.49728e-017 0.382683
    outer loop
      vertex 4.82963 15.6 -1.2941
      vertex 4.33013 15.6 -2.5
      vertex 4.82963 12.1 -1.2941
    endloop
  endfacet
  facet normal -0.92388 8.49728e-017 0.382683
    outer loop
      vertex 4.82963 12.1 -1.2941
      vertex 4.33013 15.6 -2.5
      vertex 4.33013 12.1 -2.5
    endloop
  endfacet
  facet normal -0.793353 1.35172e-016 0.608761
    outer loop
      vertex 4.33013 15.6 -2.5
      vertex 3.53553 15.6 -3.53553
      vertex 4.33013 12.1 -2.5
    endloop
  endfacet
  facet normal -0.793353 1.35172e-016 0.608761
    outer loop
      vertex 4.33013 12.1 -2.5
      vertex 3.53553 15.6 -3.53553
      vertex 3.53553 12.1 -3.53553
    endloop
  endfacet
  facet normal -0.608761 1.7616e-016 0.793353
    outer loop
      vertex 3.53553 12.1 -3.53553
      vertex 3.53553 15.6 -3.53553
      vertex 3 15.6 -3.94646
    endloop
  endfacet
  facet normal -0.608761 1.7616e-016 0.793353
    outer loop
      vertex 3 12.1 -3.94646
      vertex 3.53553 12.1 -3.53553
      vertex 3 15.6 -3.94646
    endloop
  endfacet
endsolid OpenSCAD_Model
