solid OpenSCAD_Model
  facet normal -1 0 0
    outer loop
      vertex 0 8.28427 7.7
      vertex 0 8.28427 17.7
      vertex 0 20 7.7
    endloop
  endfacet
  facet normal -1 0 0
    outer loop
      vertex 0 20 7.7
      vertex 0 8.28427 17.7
      vertex 0 20 17.7
    endloop
  endfacet
  facet normal -0.707107 -0.707107 0
    outer loop
      vertex 8.28427 0 7.7
      vertex 8.28427 0 17.7
      vertex 0 8.28427 17.7
    endloop
  endfacet
  facet normal -0.707107 -0.707107 0
    outer loop
      vertex 0 8.28427 7.7
      vertex 8.28427 0 7.7
      vertex 0 8.28427 17.7
    endloop
  endfacet
  facet normal 0 0 -1
    outer loop
      vertex 0 8.28427 7.7
      vertex 0 20 7.7
      vertex 8.28427 0 7.7
    endloop
  endfacet
  facet normal 0 0 -1
    outer loop
      vertex 2.75 18.75 7.7
      vertex 0 20 7.7
      vertex 15 20 7.7
    endloop
  endfacet
  facet normal 0 0 -1
    outer loop
      vertex 13.865 11.9673 7.7
      vertex 15 20 7.7
      vertex 20 15 7.7
    endloop
  endfacet
  facet normal 0 0 -1
    outer loop
      vertex 18.75 2.75 7.7
      vertex 20 15 7.7
      vertex 20 0 7.7
    endloop
  endfacet
  facet normal 0 0 -1
    outer loop
      vertex 2.75 16.25 7.7
      vertex 0 20 7.7
      vertex 2.75 18.75 7.7
    endloop
  endfacet
  facet normal 0 0 -1
    outer loop
      vertex 6.25 18.75 7.7
      vertex 2.75 18.75 7.7
      vertex 15 20 7.7
    endloop
  endfacet
  facet normal 0 0 -1
    outer loop
      vertex 8.28427 0 7.7
      vertex 0 20 7.7
      vertex 2.75 16.25 7.7
    endloop
  endfacet
  facet normal 0 0 -1
    outer loop
      vertex 12.1328 10.7088 7.7
      vertex 8.28427 0 7.7
      vertex 11.8056 10.7783 7.7
    endloop
  endfacet
  facet normal 0 0 -1
    outer loop
      vertex 11.2294 13.489 7.7
      vertex 6.25 16.25 7.7
      vertex 15 20 7.7
    endloop
  endfacet
  facet normal 0 0 -1
    outer loop
      vertex 6.25 16.25 7.7
      vertex 6.25 18.75 7.7
      vertex 15 20 7.7
    endloop
  endfacet
  facet normal 0 0 -1
    outer loop
      vertex 8.28427 0 7.7
      vertex 6.25 16.25 7.7
      vertex 10.7 12.3 7.7
    endloop
  endfacet
  facet normal 0 0 -1
    outer loop
      vertex 8.28427 0 7.7
      vertex 10.7 12.3 7.7
      vertex 10.735 11.9673 7.7
    endloop
  endfacet
  facet normal 0 0 -1
    outer loop
      vertex 8.28427 0 7.7
      vertex 10.735 11.9673 7.7
      vertex 10.8383 11.6492 7.7
    endloop
  endfacet
  facet normal 0 0 -1
    outer loop
      vertex 8.28427 0 7.7
      vertex 10.8383 11.6492 7.7
      vertex 11.0056 11.3595 7.7
    endloop
  endfacet
  facet normal 0 0 -1
    outer loop
      vertex 8.28427 0 7.7
      vertex 11.0056 11.3595 7.7
      vertex 11.2294 11.111 7.7
    endloop
  endfacet
  facet normal 0 0 -1
    outer loop
      vertex 8.28427 0 7.7
      vertex 11.2294 11.111 7.7
      vertex 11.5 10.9144 7.7
    endloop
  endfacet
  facet normal 0 0 -1
    outer loop
      vertex 8.28427 0 7.7
      vertex 11.5 10.9144 7.7
      vertex 11.8056 10.7783 7.7
    endloop
  endfacet
  facet normal 0 0 -1
    outer loop
      vertex 13.5944 11.3595 7.7
      vertex 20 15 7.7
      vertex 13.3706 11.111 7.7
    endloop
  endfacet
  facet normal 0 0 -1
    outer loop
      vertex 8.28427 0 7.7
      vertex 12.1328 10.7088 7.7
      vertex 12.4672 10.7088 7.7
    endloop
  endfacet
  facet normal 0 0 -1
    outer loop
      vertex 8.28427 0 7.7
      vertex 12.4672 10.7088 7.7
      vertex 12.7944 10.7783 7.7
    endloop
  endfacet
  facet normal 0 0 -1
    outer loop
      vertex 8.28427 0 7.7
      vertex 12.7944 10.7783 7.7
      vertex 13.1 10.9144 7.7
    endloop
  endfacet
  facet normal 0 0 -1
    outer loop
      vertex 8.28427 0 7.7
      vertex 13.1 10.9144 7.7
      vertex 20 15 7.7
    endloop
  endfacet
  facet normal 0 0 -1
    outer loop
      vertex 13.1 10.9144 7.7
      vertex 13.3706 11.111 7.7
      vertex 20 15 7.7
    endloop
  endfacet
  facet normal 0 0 -1
    outer loop
      vertex 13.7617 11.6492 7.7
      vertex 20 15 7.7
      vertex 13.5944 11.3595 7.7
    endloop
  endfacet
  facet normal 0 0 -1
    outer loop
      vertex 12.7944 13.8217 7.7
      vertex 15 20 7.7
      vertex 13.1 13.6856 7.7
    endloop
  endfacet
  facet normal 0 0 -1
    outer loop
      vertex 13.865 12.6327 7.7
      vertex 15 20 7.7
      vertex 13.9 12.3 7.7
    endloop
  endfacet
  facet normal 0 0 -1
    outer loop
      vertex 13.9 12.3 7.7
      vertex 15 20 7.7
      vertex 13.865 11.9673 7.7
    endloop
  endfacet
  facet normal 0 0 -1
    outer loop
      vertex 13.7617 11.6492 7.7
      vertex 13.865 11.9673 7.7
      vertex 20 15 7.7
    endloop
  endfacet
  facet normal 0 0 -1
    outer loop
      vertex 13.7617 12.9508 7.7
      vertex 15 20 7.7
      vertex 13.865 12.6327 7.7
    endloop
  endfacet
  facet normal 0 0 -1
    outer loop
      vertex 13.5944 13.2405 7.7
      vertex 15 20 7.7
      vertex 13.7617 12.9508 7.7
    endloop
  endfacet
  facet normal 0 0 -1
    outer loop
      vertex 13.3706 13.489 7.7
      vertex 15 20 7.7
      vertex 13.5944 13.2405 7.7
    endloop
  endfacet
  facet normal 0 0 -1
    outer loop
      vertex 13.1 13.6856 7.7
      vertex 15 20 7.7
      vertex 13.3706 13.489 7.7
    endloop
  endfacet
  facet normal 0 0 -1
    outer loop
      vertex 12.4672 13.8912 7.7
      vertex 15 20 7.7
      vertex 12.7944 13.8217 7.7
    endloop
  endfacet
  facet normal 0 0 -1
    outer loop
      vertex 12.1328 13.8912 7.7
      vertex 15 20 7.7
      vertex 12.4672 13.8912 7.7
    endloop
  endfacet
  facet normal 0 0 -1
    outer loop
      vertex 11.8056 13.8217 7.7
      vertex 15 20 7.7
      vertex 12.1328 13.8912 7.7
    endloop
  endfacet
  facet normal 0 0 -1
    outer loop
      vertex 11.5 13.6856 7.7
      vertex 15 20 7.7
      vertex 11.8056 13.8217 7.7
    endloop
  endfacet
  facet normal 0 0 -1
    outer loop
      vertex 11.2294 13.489 7.7
      vertex 15 20 7.7
      vertex 11.5 13.6856 7.7
    endloop
  endfacet
  facet normal 0 0 -1
    outer loop
      vertex 11.0056 13.2405 7.7
      vertex 6.25 16.25 7.7
      vertex 11.2294 13.489 7.7
    endloop
  endfacet
  facet normal 0 0 -1
    outer loop
      vertex 18.75 2.75 7.7
      vertex 20 0 7.7
      vertex 16.25 2.75 7.7
    endloop
  endfacet
  facet normal 0 0 -1
    outer loop
      vertex 10.8383 12.9508 7.7
      vertex 6.25 16.25 7.7
      vertex 11.0056 13.2405 7.7
    endloop
  endfacet
  facet normal 0 0 -1
    outer loop
      vertex 10.735 12.6327 7.7
      vertex 6.25 16.25 7.7
      vertex 10.8383 12.9508 7.7
    endloop
  endfacet
  facet normal 0 0 -1
    outer loop
      vertex 10.7 12.3 7.7
      vertex 6.25 16.25 7.7
      vertex 10.735 12.6327 7.7
    endloop
  endfacet
  facet normal 0 0 -1
    outer loop
      vertex 8.28427 0 7.7
      vertex 20 15 7.7
      vertex 16.25 6.25 7.7
    endloop
  endfacet
  facet normal 0 0 -1
    outer loop
      vertex 8.28427 0 7.7
      vertex 16.25 6.25 7.7
      vertex 16.25 2.75 7.7
    endloop
  endfacet
  facet normal 0 0 -1
    outer loop
      vertex 8.28427 0 7.7
      vertex 16.25 2.75 7.7
      vertex 20 0 7.7
    endloop
  endfacet
  facet normal 0 0 -1
    outer loop
      vertex 18.75 6.25 7.7
      vertex 20 15 7.7
      vertex 18.75 2.75 7.7
    endloop
  endfacet
  facet normal 0 0 -1
    outer loop
      vertex 16.25 6.25 7.7
      vertex 20 15 7.7
      vertex 18.75 6.25 7.7
    endloop
  endfacet
  facet normal 0 0 -1
    outer loop
      vertex 6.25 16.25 7.7
      vertex 8.28427 0 7.7
      vertex 2.75 16.25 7.7
    endloop
  endfacet
  facet normal 0 1 0
    outer loop
      vertex 0 20 7.7
      vertex 0 20 17.7
      vertex 15 20 7.7
    endloop
  endfacet
  facet normal 0 1 0
    outer loop
      vertex 15 20 7.7
      vertex 0 20 17.7
      vertex 15 20 17.7
    endloop
  endfacet
  facet normal 0 0 1
    outer loop
      vertex 0 20 17.7
      vertex 0 8.28427 17.7
      vertex 8.28427 0 17.7
    endloop
  endfacet
  facet normal 0 0 1
    outer loop
      vertex 14.216 16.3717 17.7
      vertex 14.7112 16.0995 17.7
      vertex 20 15 17.7
    endloop
  endfacet
  facet normal 0 0 1
    outer loop
      vertex 7.83548 11.736 17.7
      vertex 0 20 17.7
      vertex 8.28427 0 17.7
    endloop
  endfacet
  facet normal 0 0 1
    outer loop
      vertex 13.6906 16.5798 17.7
      vertex 14.216 16.3717 17.7
      vertex 20 15 17.7
    endloop
  endfacet
  facet normal 0 0 1
    outer loop
      vertex 7.94138 11.1809 17.7
      vertex 7.83548 11.736 17.7
      vertex 8.28427 0 17.7
    endloop
  endfacet
  facet normal 0 0 1
    outer loop
      vertex 12.5826 16.7911 17.7
      vertex 13.1432 16.7203 17.7
      vertex 0 20 17.7
    endloop
  endfacet
  facet normal 0 0 1
    outer loop
      vertex 12.0174 7.80888 17.7
      vertex 11.4568 7.87971 17.7
      vertex 20 0 17.7
    endloop
  endfacet
  facet normal 0 0 1
    outer loop
      vertex 7.83548 12.864 17.7
      vertex 0 20 17.7
      vertex 7.8 12.3 17.7
    endloop
  endfacet
  facet normal 0 0 1
    outer loop
      vertex 16.7645 12.864 17.7
      vertex 16.8 12.3 17.7
      vertex 20 0 17.7
    endloop
  endfacet
  facet normal 0 0 1
    outer loop
      vertex 7.94138 13.4191 17.7
      vertex 0 20 17.7
      vertex 7.83548 12.864 17.7
    endloop
  endfacet
  facet normal 0 0 1
    outer loop
      vertex 8.11601 13.9566 17.7
      vertex 0 20 17.7
      vertex 7.94138 13.4191 17.7
    endloop
  endfacet
  facet normal 0 0 1
    outer loop
      vertex 8.35662 14.4679 17.7
      vertex 0 20 17.7
      vertex 8.11601 13.9566 17.7
    endloop
  endfacet
  facet normal 0 0 1
    outer loop
      vertex 16.2434 14.4679 17.7
      vertex 16.484 13.9566 17.7
      vertex 20 15 17.7
    endloop
  endfacet
  facet normal 0 0 1
    outer loop
      vertex 8.65942 14.945 17.7
      vertex 0 20 17.7
      vertex 8.35662 14.4679 17.7
    endloop
  endfacet
  facet normal 0 0 1
    outer loop
      vertex 9.01964 15.3805 17.7
      vertex 0 20 17.7
      vertex 8.65942 14.945 17.7
    endloop
  endfacet
  facet normal 0 0 1
    outer loop
      vertex 9.43159 15.7673 17.7
      vertex 0 20 17.7
      vertex 9.01964 15.3805 17.7
    endloop
  endfacet
  facet normal 0 0 1
    outer loop
      vertex 9.88878 16.0995 17.7
      vertex 0 20 17.7
      vertex 9.43159 15.7673 17.7
    endloop
  endfacet
  facet normal 0 0 1
    outer loop
      vertex 10.384 16.3717 17.7
      vertex 0 20 17.7
      vertex 9.88878 16.0995 17.7
    endloop
  endfacet
  facet normal 0 0 1
    outer loop
      vertex 10.9094 16.5798 17.7
      vertex 0 20 17.7
      vertex 10.384 16.3717 17.7
    endloop
  endfacet
  facet normal 0 0 1
    outer loop
      vertex 11.4568 16.7203 17.7
      vertex 0 20 17.7
      vertex 10.9094 16.5798 17.7
    endloop
  endfacet
  facet normal 0 0 1
    outer loop
      vertex 12.0174 16.7911 17.7
      vertex 0 20 17.7
      vertex 11.4568 16.7203 17.7
    endloop
  endfacet
  facet normal 0 0 1
    outer loop
      vertex 12.5826 16.7911 17.7
      vertex 0 20 17.7
      vertex 12.0174 16.7911 17.7
    endloop
  endfacet
  facet normal 0 0 1
    outer loop
      vertex 14.7112 16.0995 17.7
      vertex 15.1684 15.7673 17.7
      vertex 20 15 17.7
    endloop
  endfacet
  facet normal 0 0 1
    outer loop
      vertex 15 20 17.7
      vertex 13.1432 16.7203 17.7
      vertex 20 15 17.7
    endloop
  endfacet
  facet normal 0 0 1
    outer loop
      vertex 15 20 17.7
      vertex 0 20 17.7
      vertex 13.1432 16.7203 17.7
    endloop
  endfacet
  facet normal 0 0 1
    outer loop
      vertex 13.1432 16.7203 17.7
      vertex 13.6906 16.5798 17.7
      vertex 20 15 17.7
    endloop
  endfacet
  facet normal 0 0 1
    outer loop
      vertex 15.1684 15.7673 17.7
      vertex 15.5804 15.3805 17.7
      vertex 20 15 17.7
    endloop
  endfacet
  facet normal 0 0 1
    outer loop
      vertex 15.9406 14.945 17.7
      vertex 16.2434 14.4679 17.7
      vertex 20 15 17.7
    endloop
  endfacet
  facet normal 0 0 1
    outer loop
      vertex 12.5826 7.80888 17.7
      vertex 12.0174 7.80888 17.7
      vertex 20 0 17.7
    endloop
  endfacet
  facet normal 0 0 1
    outer loop
      vertex 20 15 17.7
      vertex 16.6586 13.4191 17.7
      vertex 20 0 17.7
    endloop
  endfacet
  facet normal 0 0 1
    outer loop
      vertex 20 15 17.7
      vertex 16.484 13.9566 17.7
      vertex 16.6586 13.4191 17.7
    endloop
  endfacet
  facet normal 0 0 1
    outer loop
      vertex 16.6586 13.4191 17.7
      vertex 16.7645 12.864 17.7
      vertex 20 0 17.7
    endloop
  endfacet
  facet normal 0 0 1
    outer loop
      vertex 16.8 12.3 17.7
      vertex 16.7645 11.736 17.7
      vertex 20 0 17.7
    endloop
  endfacet
  facet normal 0 0 1
    outer loop
      vertex 16.7645 11.736 17.7
      vertex 16.6586 11.1809 17.7
      vertex 20 0 17.7
    endloop
  endfacet
  facet normal 0 0 1
    outer loop
      vertex 16.6586 11.1809 17.7
      vertex 16.484 10.6434 17.7
      vertex 20 0 17.7
    endloop
  endfacet
  facet normal 0 0 1
    outer loop
      vertex 16.484 10.6434 17.7
      vertex 16.2434 10.1321 17.7
      vertex 20 0 17.7
    endloop
  endfacet
  facet normal 0 0 1
    outer loop
      vertex 16.2434 10.1321 17.7
      vertex 15.9406 9.65497 17.7
      vertex 20 0 17.7
    endloop
  endfacet
  facet normal 0 0 1
    outer loop
      vertex 15.9406 9.65497 17.7
      vertex 15.5804 9.21954 17.7
      vertex 20 0 17.7
    endloop
  endfacet
  facet normal 0 0 1
    outer loop
      vertex 15.5804 9.21954 17.7
      vertex 15.1684 8.83269 17.7
      vertex 20 0 17.7
    endloop
  endfacet
  facet normal 0 0 1
    outer loop
      vertex 15.1684 8.83269 17.7
      vertex 14.7112 8.50052 17.7
      vertex 20 0 17.7
    endloop
  endfacet
  facet normal 0 0 1
    outer loop
      vertex 14.7112 8.50052 17.7
      vertex 14.216 8.22828 17.7
      vertex 20 0 17.7
    endloop
  endfacet
  facet normal 0 0 1
    outer loop
      vertex 14.216 8.22828 17.7
      vertex 13.6906 8.02025 17.7
      vertex 20 0 17.7
    endloop
  endfacet
  facet normal 0 0 1
    outer loop
      vertex 13.6906 8.02025 17.7
      vertex 13.1432 7.87971 17.7
      vertex 20 0 17.7
    endloop
  endfacet
  facet normal 0 0 1
    outer loop
      vertex 13.1432 7.87971 17.7
      vertex 12.5826 7.80888 17.7
      vertex 20 0 17.7
    endloop
  endfacet
  facet normal 0 0 1
    outer loop
      vertex 20 0 17.7
      vertex 11.4568 7.87971 17.7
      vertex 8.28427 0 17.7
    endloop
  endfacet
  facet normal 0 0 1
    outer loop
      vertex 11.4568 7.87971 17.7
      vertex 10.9094 8.02025 17.7
      vertex 8.28427 0 17.7
    endloop
  endfacet
  facet normal 0 0 1
    outer loop
      vertex 10.9094 8.02025 17.7
      vertex 10.384 8.22828 17.7
      vertex 8.28427 0 17.7
    endloop
  endfacet
  facet normal 0 0 1
    outer loop
      vertex 10.384 8.22828 17.7
      vertex 9.88878 8.50052 17.7
      vertex 8.28427 0 17.7
    endloop
  endfacet
  facet normal 0 0 1
    outer loop
      vertex 9.88878 8.50052 17.7
      vertex 9.43159 8.83269 17.7
      vertex 8.28427 0 17.7
    endloop
  endfacet
  facet normal 0 0 1
    outer loop
      vertex 9.43159 8.83269 17.7
      vertex 9.01964 9.21954 17.7
      vertex 8.28427 0 17.7
    endloop
  endfacet
  facet normal 0 0 1
    outer loop
      vertex 9.01964 9.21954 17.7
      vertex 8.65942 9.65497 17.7
      vertex 8.28427 0 17.7
    endloop
  endfacet
  facet normal 0 0 1
    outer loop
      vertex 8.65942 9.65497 17.7
      vertex 8.35662 10.1321 17.7
      vertex 8.28427 0 17.7
    endloop
  endfacet
  facet normal 0 0 1
    outer loop
      vertex 8.35662 10.1321 17.7
      vertex 8.11601 10.6434 17.7
      vertex 8.28427 0 17.7
    endloop
  endfacet
  facet normal 0 0 1
    outer loop
      vertex 8.11601 10.6434 17.7
      vertex 7.94138 11.1809 17.7
      vertex 8.28427 0 17.7
    endloop
  endfacet
  facet normal 0 0 1
    outer loop
      vertex 7.83548 11.736 17.7
      vertex 7.8 12.3 17.7
      vertex 0 20 17.7
    endloop
  endfacet
  facet normal 0 0 1
    outer loop
      vertex 15.5804 15.3805 17.7
      vertex 15.9406 14.945 17.7
      vertex 20 15 17.7
    endloop
  endfacet
  facet normal 0 -1 0
    outer loop
      vertex 8.28427 0 17.7
      vertex 8.28427 0 7.7
      vertex 20 0 7.7
    endloop
  endfacet
  facet normal 0 -1 0
    outer loop
      vertex 20 0 17.7
      vertex 8.28427 0 17.7
      vertex 20 0 7.7
    endloop
  endfacet
  facet normal 1 0 0
    outer loop
      vertex 20 0 17.7
      vertex 20 0 7.7
      vertex 20 15 7.7
    endloop
  endfacet
  facet normal 1 0 0
    outer loop
      vertex 20 15 17.7
      vertex 20 0 17.7
      vertex 20 15 7.7
    endloop
  endfacet
  facet normal 0.707107 0.707107 0
    outer loop
      vertex 20 15 17.7
      vertex 20 15 7.7
      vertex 15 20 17.7
    endloop
  endfacet
  facet normal 0.707107 0.707107 0
    outer loop
      vertex 15 20 17.7
      vertex 20 15 7.7
      vertex 15 20 7.7
    endloop
  endfacet
  facet normal 1 0 0
    outer loop
      vertex 2.75 18.75 7.7
      vertex 2.75 18.75 13.7
      vertex 2.75 16.25 13.7
    endloop
  endfacet
  facet normal 1 0 0
    outer loop
      vertex 2.75 16.25 7.7
      vertex 2.75 18.75 7.7
      vertex 2.75 16.25 13.7
    endloop
  endfacet
  facet normal 0 -1 0
    outer loop
      vertex 6.25 18.75 7.7
      vertex 6.25 18.75 13.7
      vertex 2.75 18.75 13.7
    endloop
  endfacet
  facet normal 0 -1 0
    outer loop
      vertex 2.75 18.75 7.7
      vertex 6.25 18.75 7.7
      vertex 2.75 18.75 13.7
    endloop
  endfacet
  facet normal -1 0 0
    outer loop
      vertex 6.25 18.75 13.7
      vertex 6.25 18.75 7.7
      vertex 6.25 16.25 13.7
    endloop
  endfacet
  facet normal -1 0 0
    outer loop
      vertex 6.25 16.25 13.7
      vertex 6.25 18.75 7.7
      vertex 6.25 16.25 7.7
    endloop
  endfacet
  facet normal 0 1 0
    outer loop
      vertex 6.25 16.25 13.7
      vertex 6.25 16.25 7.7
      vertex 2.75 16.25 13.7
    endloop
  endfacet
  facet normal 0 1 0
    outer loop
      vertex 2.75 16.25 13.7
      vertex 6.25 16.25 7.7
      vertex 2.75 16.25 7.7
    endloop
  endfacet
  facet normal 0.994522 -0.104529 0
    outer loop
      vertex 10.735 12.6327 7.7
      vertex 10.735 12.6327 9.7
      vertex 10.7 12.3 9.7
    endloop
  endfacet
  facet normal 0.994522 -0.104529 0
    outer loop
      vertex 10.7 12.3 7.7
      vertex 10.735 12.6327 7.7
      vertex 10.7 12.3 9.7
    endloop
  endfacet
  facet normal 0.994522 0.104529 0
    outer loop
      vertex 10.7 12.3 9.7
      vertex 10.735 11.9673 9.7
      vertex 10.735 11.9673 7.7
    endloop
  endfacet
  facet normal 0.994522 0.104529 0
    outer loop
      vertex 10.7 12.3 7.7
      vertex 10.7 12.3 9.7
      vertex 10.735 11.9673 7.7
    endloop
  endfacet
  facet normal 0.951057 -0.309016 0
    outer loop
      vertex 10.8383 12.9508 7.7
      vertex 10.8383 12.9508 9.7
      vertex 10.735 12.6327 9.7
    endloop
  endfacet
  facet normal 0.951057 -0.309016 0
    outer loop
      vertex 10.735 12.6327 7.7
      vertex 10.8383 12.9508 7.7
      vertex 10.735 12.6327 9.7
    endloop
  endfacet
  facet normal 0.866024 -0.500002 0
    outer loop
      vertex 11.0056 13.2405 7.7
      vertex 11.0056 13.2405 9.7
      vertex 10.8383 12.9508 9.7
    endloop
  endfacet
  facet normal 0.866024 -0.500002 0
    outer loop
      vertex 10.8383 12.9508 7.7
      vertex 11.0056 13.2405 7.7
      vertex 10.8383 12.9508 9.7
    endloop
  endfacet
  facet normal 0.743146 -0.669129 0
    outer loop
      vertex 11.2294 13.489 7.7
      vertex 11.2294 13.489 9.7
      vertex 11.0056 13.2405 9.7
    endloop
  endfacet
  facet normal 0.743146 -0.669129 0
    outer loop
      vertex 11.0056 13.2405 7.7
      vertex 11.2294 13.489 7.7
      vertex 11.0056 13.2405 9.7
    endloop
  endfacet
  facet normal 0.587785 -0.809017 0
    outer loop
      vertex 11.5 13.6856 7.7
      vertex 11.5 13.6856 9.7
      vertex 11.2294 13.489 9.7
    endloop
  endfacet
  facet normal 0.587785 -0.809017 0
    outer loop
      vertex 11.2294 13.489 7.7
      vertex 11.5 13.6856 7.7
      vertex 11.2294 13.489 9.7
    endloop
  endfacet
  facet normal 0.406734 -0.913546 0
    outer loop
      vertex 11.8056 13.8217 7.7
      vertex 11.8056 13.8217 9.7
      vertex 11.5 13.6856 9.7
    endloop
  endfacet
  facet normal 0.406734 -0.913546 0
    outer loop
      vertex 11.5 13.6856 7.7
      vertex 11.8056 13.8217 7.7
      vertex 11.5 13.6856 9.7
    endloop
  endfacet
  facet normal 0.207913 -0.978147 0
    outer loop
      vertex 12.1328 13.8912 7.7
      vertex 12.1328 13.8912 9.7
      vertex 11.8056 13.8217 9.7
    endloop
  endfacet
  facet normal 0.207913 -0.978147 0
    outer loop
      vertex 11.8056 13.8217 7.7
      vertex 12.1328 13.8912 7.7
      vertex 11.8056 13.8217 9.7
    endloop
  endfacet
  facet normal 0 -1 0
    outer loop
      vertex 12.4672 13.8912 7.7
      vertex 12.4672 13.8912 9.7
      vertex 12.1328 13.8912 9.7
    endloop
  endfacet
  facet normal 0 -1 0
    outer loop
      vertex 12.1328 13.8912 7.7
      vertex 12.4672 13.8912 7.7
      vertex 12.1328 13.8912 9.7
    endloop
  endfacet
  facet normal -0.207913 -0.978147 0
    outer loop
      vertex 12.7944 13.8217 7.7
      vertex 12.7944 13.8217 9.7
      vertex 12.4672 13.8912 9.7
    endloop
  endfacet
  facet normal -0.207913 -0.978147 0
    outer loop
      vertex 12.4672 13.8912 7.7
      vertex 12.7944 13.8217 7.7
      vertex 12.4672 13.8912 9.7
    endloop
  endfacet
  facet normal -0.406734 -0.913546 0
    outer loop
      vertex 13.1 13.6856 7.7
      vertex 13.1 13.6856 9.7
      vertex 12.7944 13.8217 9.7
    endloop
  endfacet
  facet normal -0.406734 -0.913546 0
    outer loop
      vertex 12.7944 13.8217 7.7
      vertex 13.1 13.6856 7.7
      vertex 12.7944 13.8217 9.7
    endloop
  endfacet
  facet normal -0.587785 -0.809017 0
    outer loop
      vertex 13.3706 13.489 7.7
      vertex 13.3706 13.489 9.7
      vertex 13.1 13.6856 9.7
    endloop
  endfacet
  facet normal -0.587785 -0.809017 0
    outer loop
      vertex 13.1 13.6856 7.7
      vertex 13.3706 13.489 7.7
      vertex 13.1 13.6856 9.7
    endloop
  endfacet
  facet normal -0.743146 -0.669129 0
    outer loop
      vertex 13.5944 13.2405 9.7
      vertex 13.3706 13.489 9.7
      vertex 13.5944 13.2405 7.7
    endloop
  endfacet
  facet normal -0.743146 -0.669129 0
    outer loop
      vertex 13.5944 13.2405 7.7
      vertex 13.3706 13.489 9.7
      vertex 13.3706 13.489 7.7
    endloop
  endfacet
  facet normal -0.866024 -0.500002 0
    outer loop
      vertex 13.7617 12.9508 9.7
      vertex 13.5944 13.2405 9.7
      vertex 13.7617 12.9508 7.7
    endloop
  endfacet
  facet normal -0.866024 -0.500002 0
    outer loop
      vertex 13.7617 12.9508 7.7
      vertex 13.5944 13.2405 9.7
      vertex 13.5944 13.2405 7.7
    endloop
  endfacet
  facet normal -0.951057 -0.309016 0
    outer loop
      vertex 13.865 12.6327 9.7
      vertex 13.7617 12.9508 9.7
      vertex 13.865 12.6327 7.7
    endloop
  endfacet
  facet normal -0.951057 -0.309016 0
    outer loop
      vertex 13.865 12.6327 7.7
      vertex 13.7617 12.9508 9.7
      vertex 13.7617 12.9508 7.7
    endloop
  endfacet
  facet normal -0.994522 -0.104529 0
    outer loop
      vertex 13.9 12.3 9.7
      vertex 13.865 12.6327 9.7
      vertex 13.9 12.3 7.7
    endloop
  endfacet
  facet normal -0.994522 -0.104529 0
    outer loop
      vertex 13.9 12.3 7.7
      vertex 13.865 12.6327 9.7
      vertex 13.865 12.6327 7.7
    endloop
  endfacet
  facet normal -0.994522 0.104529 0
    outer loop
      vertex 13.9 12.3 9.7
      vertex 13.9 12.3 7.7
      vertex 13.865 11.9673 9.7
    endloop
  endfacet
  facet normal -0.994522 0.104529 0
    outer loop
      vertex 13.865 11.9673 9.7
      vertex 13.9 12.3 7.7
      vertex 13.865 11.9673 7.7
    endloop
  endfacet
  facet normal -0.951057 0.309016 0
    outer loop
      vertex 13.865 11.9673 9.7
      vertex 13.865 11.9673 7.7
      vertex 13.7617 11.6492 9.7
    endloop
  endfacet
  facet normal -0.951057 0.309016 0
    outer loop
      vertex 13.7617 11.6492 9.7
      vertex 13.865 11.9673 7.7
      vertex 13.7617 11.6492 7.7
    endloop
  endfacet
  facet normal -0.866024 0.500002 0
    outer loop
      vertex 13.7617 11.6492 9.7
      vertex 13.7617 11.6492 7.7
      vertex 13.5944 11.3595 9.7
    endloop
  endfacet
  facet normal -0.866024 0.500002 0
    outer loop
      vertex 13.5944 11.3595 9.7
      vertex 13.7617 11.6492 7.7
      vertex 13.5944 11.3595 7.7
    endloop
  endfacet
  facet normal -0.743146 0.669129 0
    outer loop
      vertex 13.5944 11.3595 9.7
      vertex 13.5944 11.3595 7.7
      vertex 13.3706 11.111 9.7
    endloop
  endfacet
  facet normal -0.743146 0.669129 0
    outer loop
      vertex 13.3706 11.111 9.7
      vertex 13.5944 11.3595 7.7
      vertex 13.3706 11.111 7.7
    endloop
  endfacet
  facet normal -0.587785 0.809017 0
    outer loop
      vertex 13.3706 11.111 9.7
      vertex 13.3706 11.111 7.7
      vertex 13.1 10.9144 9.7
    endloop
  endfacet
  facet normal -0.587785 0.809017 0
    outer loop
      vertex 13.1 10.9144 9.7
      vertex 13.3706 11.111 7.7
      vertex 13.1 10.9144 7.7
    endloop
  endfacet
  facet normal -0.406734 0.913546 0
    outer loop
      vertex 13.1 10.9144 9.7
      vertex 13.1 10.9144 7.7
      vertex 12.7944 10.7783 9.7
    endloop
  endfacet
  facet normal -0.406734 0.913546 0
    outer loop
      vertex 12.7944 10.7783 9.7
      vertex 13.1 10.9144 7.7
      vertex 12.7944 10.7783 7.7
    endloop
  endfacet
  facet normal -0.207913 0.978147 0
    outer loop
      vertex 12.7944 10.7783 9.7
      vertex 12.7944 10.7783 7.7
      vertex 12.4672 10.7088 9.7
    endloop
  endfacet
  facet normal -0.207913 0.978147 0
    outer loop
      vertex 12.4672 10.7088 9.7
      vertex 12.7944 10.7783 7.7
      vertex 12.4672 10.7088 7.7
    endloop
  endfacet
  facet normal 0 1 0
    outer loop
      vertex 12.4672 10.7088 9.7
      vertex 12.4672 10.7088 7.7
      vertex 12.1328 10.7088 9.7
    endloop
  endfacet
  facet normal 0 1 0
    outer loop
      vertex 12.1328 10.7088 9.7
      vertex 12.4672 10.7088 7.7
      vertex 12.1328 10.7088 7.7
    endloop
  endfacet
  facet normal 0.207913 0.978147 0
    outer loop
      vertex 12.1328 10.7088 9.7
      vertex 12.1328 10.7088 7.7
      vertex 11.8056 10.7783 9.7
    endloop
  endfacet
  facet normal 0.207913 0.978147 0
    outer loop
      vertex 11.8056 10.7783 9.7
      vertex 12.1328 10.7088 7.7
      vertex 11.8056 10.7783 7.7
    endloop
  endfacet
  facet normal 0.406734 0.913546 0
    outer loop
      vertex 11.8056 10.7783 9.7
      vertex 11.8056 10.7783 7.7
      vertex 11.5 10.9144 9.7
    endloop
  endfacet
  facet normal 0.406734 0.913546 0
    outer loop
      vertex 11.5 10.9144 9.7
      vertex 11.8056 10.7783 7.7
      vertex 11.5 10.9144 7.7
    endloop
  endfacet
  facet normal 0.587785 0.809017 0
    outer loop
      vertex 11.5 10.9144 9.7
      vertex 11.5 10.9144 7.7
      vertex 11.2294 11.111 9.7
    endloop
  endfacet
  facet normal 0.587785 0.809017 0
    outer loop
      vertex 11.2294 11.111 9.7
      vertex 11.5 10.9144 7.7
      vertex 11.2294 11.111 7.7
    endloop
  endfacet
  facet normal 0.743146 0.669129 0
    outer loop
      vertex 11.0056 11.3595 9.7
      vertex 11.2294 11.111 9.7
      vertex 11.2294 11.111 7.7
    endloop
  endfacet
  facet normal 0.743146 0.669129 0
    outer loop
      vertex 11.0056 11.3595 7.7
      vertex 11.0056 11.3595 9.7
      vertex 11.2294 11.111 7.7
    endloop
  endfacet
  facet normal 0.866024 0.500002 0
    outer loop
      vertex 10.8383 11.6492 9.7
      vertex 11.0056 11.3595 9.7
      vertex 11.0056 11.3595 7.7
    endloop
  endfacet
  facet normal 0.866024 0.500002 0
    outer loop
      vertex 10.8383 11.6492 7.7
      vertex 10.8383 11.6492 9.7
      vertex 11.0056 11.3595 7.7
    endloop
  endfacet
  facet normal 0.951057 0.309016 0
    outer loop
      vertex 10.735 11.9673 9.7
      vertex 10.8383 11.6492 9.7
      vertex 10.8383 11.6492 7.7
    endloop
  endfacet
  facet normal 0.951057 0.309016 0
    outer loop
      vertex 10.735 11.9673 7.7
      vertex 10.735 11.9673 9.7
      vertex 10.8383 11.6492 7.7
    endloop
  endfacet
  facet normal 1 0 0
    outer loop
      vertex 16.25 6.25 7.7
      vertex 16.25 6.25 13.7
      vertex 16.25 2.75 13.7
    endloop
  endfacet
  facet normal 1 0 0
    outer loop
      vertex 16.25 2.75 7.7
      vertex 16.25 6.25 7.7
      vertex 16.25 2.75 13.7
    endloop
  endfacet
  facet normal 0 -1 0
    outer loop
      vertex 18.75 6.25 7.7
      vertex 18.75 6.25 13.7
      vertex 16.25 6.25 13.7
    endloop
  endfacet
  facet normal 0 -1 0
    outer loop
      vertex 16.25 6.25 7.7
      vertex 18.75 6.25 7.7
      vertex 16.25 6.25 13.7
    endloop
  endfacet
  facet normal -1 0 0
    outer loop
      vertex 18.75 6.25 13.7
      vertex 18.75 6.25 7.7
      vertex 18.75 2.75 13.7
    endloop
  endfacet
  facet normal -1 0 0
    outer loop
      vertex 18.75 2.75 13.7
      vertex 18.75 6.25 7.7
      vertex 18.75 2.75 7.7
    endloop
  endfacet
  facet normal 0 1 0
    outer loop
      vertex 18.75 2.75 13.7
      vertex 18.75 2.75 7.7
      vertex 16.25 2.75 13.7
    endloop
  endfacet
  facet normal 0 1 0
    outer loop
      vertex 16.25 2.75 13.7
      vertex 18.75 2.75 7.7
      vertex 16.25 2.75 7.7
    endloop
  endfacet
  facet normal 0.998027 0.0627907 0
    outer loop
      vertex 7.8 12.3 17.7
      vertex 7.83548 11.736 17.7
      vertex 7.83548 11.736 9.7
    endloop
  endfacet
  facet normal 0.998027 0.0627907 0
    outer loop
      vertex 7.8 12.3 9.7
      vertex 7.8 12.3 17.7
      vertex 7.83548 11.736 9.7
    endloop
  endfacet
  facet normal 0.982287 0.187382 0
    outer loop
      vertex 7.83548 11.736 17.7
      vertex 7.94138 11.1809 17.7
      vertex 7.94138 11.1809 9.7
    endloop
  endfacet
  facet normal 0.982287 0.187382 0
    outer loop
      vertex 7.83548 11.736 9.7
      vertex 7.83548 11.736 17.7
      vertex 7.94138 11.1809 9.7
    endloop
  endfacet
  facet normal 0.951057 0.309017 0
    outer loop
      vertex 7.94138 11.1809 17.7
      vertex 8.11601 10.6434 17.7
      vertex 8.11601 10.6434 9.7
    endloop
  endfacet
  facet normal 0.951057 0.309017 0
    outer loop
      vertex 7.94138 11.1809 9.7
      vertex 7.94138 11.1809 17.7
      vertex 8.11601 10.6434 9.7
    endloop
  endfacet
  facet normal 0.904827 0.425778 0
    outer loop
      vertex 8.11601 10.6434 17.7
      vertex 8.35662 10.1321 17.7
      vertex 8.35662 10.1321 9.7
    endloop
  endfacet
  facet normal 0.904827 0.425778 0
    outer loop
      vertex 8.11601 10.6434 9.7
      vertex 8.11601 10.6434 17.7
      vertex 8.35662 10.1321 9.7
    endloop
  endfacet
  facet normal 0.844328 0.535827 0
    outer loop
      vertex 8.35662 10.1321 17.7
      vertex 8.65942 9.65497 17.7
      vertex 8.65942 9.65497 9.7
    endloop
  endfacet
  facet normal 0.844328 0.535827 0
    outer loop
      vertex 8.35662 10.1321 9.7
      vertex 8.35662 10.1321 17.7
      vertex 8.65942 9.65497 9.7
    endloop
  endfacet
  facet normal 0.770514 0.637424 0
    outer loop
      vertex 8.65942 9.65497 17.7
      vertex 9.01964 9.21954 17.7
      vertex 9.01964 9.21954 9.7
    endloop
  endfacet
  facet normal 0.770514 0.637424 0
    outer loop
      vertex 8.65942 9.65497 9.7
      vertex 8.65942 9.65497 17.7
      vertex 9.01964 9.21954 9.7
    endloop
  endfacet
  facet normal 0.684547 0.728968 0
    outer loop
      vertex 9.43159 8.83269 17.7
      vertex 9.43159 8.83269 9.7
      vertex 9.01964 9.21954 17.7
    endloop
  endfacet
  facet normal 0.684547 0.728968 0
    outer loop
      vertex 9.01964 9.21954 17.7
      vertex 9.43159 8.83269 9.7
      vertex 9.01964 9.21954 9.7
    endloop
  endfacet
  facet normal 0.587785 0.809017 0
    outer loop
      vertex 9.88878 8.50052 17.7
      vertex 9.88878 8.50052 9.7
      vertex 9.43159 8.83269 17.7
    endloop
  endfacet
  facet normal 0.587785 0.809017 0
    outer loop
      vertex 9.43159 8.83269 17.7
      vertex 9.88878 8.50052 9.7
      vertex 9.43159 8.83269 9.7
    endloop
  endfacet
  facet normal 0.481753 0.876307 0
    outer loop
      vertex 10.384 8.22828 17.7
      vertex 10.384 8.22828 9.7
      vertex 9.88878 8.50052 17.7
    endloop
  endfacet
  facet normal 0.481753 0.876307 0
    outer loop
      vertex 9.88878 8.50052 17.7
      vertex 10.384 8.22828 9.7
      vertex 9.88878 8.50052 9.7
    endloop
  endfacet
  facet normal 0.368123 0.929777 0
    outer loop
      vertex 10.9094 8.02025 17.7
      vertex 10.9094 8.02025 9.7
      vertex 10.384 8.22828 17.7
    endloop
  endfacet
  facet normal 0.368123 0.929777 0
    outer loop
      vertex 10.384 8.22828 17.7
      vertex 10.9094 8.02025 9.7
      vertex 10.384 8.22828 9.7
    endloop
  endfacet
  facet normal 0.248691 0.968583 0
    outer loop
      vertex 11.4568 7.87971 17.7
      vertex 11.4568 7.87971 9.7
      vertex 10.9094 8.02025 17.7
    endloop
  endfacet
  facet normal 0.248691 0.968583 0
    outer loop
      vertex 10.9094 8.02025 17.7
      vertex 11.4568 7.87971 9.7
      vertex 10.9094 8.02025 9.7
    endloop
  endfacet
  facet normal 0.125332 0.992115 0
    outer loop
      vertex 12.0174 7.80888 17.7
      vertex 12.0174 7.80888 9.7
      vertex 11.4568 7.87971 17.7
    endloop
  endfacet
  facet normal 0.125332 0.992115 0
    outer loop
      vertex 11.4568 7.87971 17.7
      vertex 12.0174 7.80888 9.7
      vertex 11.4568 7.87971 9.7
    endloop
  endfacet
  facet normal 0 1 0
    outer loop
      vertex 12.5826 7.80888 17.7
      vertex 12.5826 7.80888 9.7
      vertex 12.0174 7.80888 17.7
    endloop
  endfacet
  facet normal 0 1 0
    outer loop
      vertex 12.0174 7.80888 17.7
      vertex 12.5826 7.80888 9.7
      vertex 12.0174 7.80888 9.7
    endloop
  endfacet
  facet normal -0.125332 0.992115 0
    outer loop
      vertex 13.1432 7.87971 17.7
      vertex 13.1432 7.87971 9.7
      vertex 12.5826 7.80888 17.7
    endloop
  endfacet
  facet normal -0.125332 0.992115 0
    outer loop
      vertex 12.5826 7.80888 17.7
      vertex 13.1432 7.87971 9.7
      vertex 12.5826 7.80888 9.7
    endloop
  endfacet
  facet normal -0.248691 0.968583 0
    outer loop
      vertex 13.6906 8.02025 17.7
      vertex 13.6906 8.02025 9.7
      vertex 13.1432 7.87971 17.7
    endloop
  endfacet
  facet normal -0.248691 0.968583 0
    outer loop
      vertex 13.1432 7.87971 17.7
      vertex 13.6906 8.02025 9.7
      vertex 13.1432 7.87971 9.7
    endloop
  endfacet
  facet normal -0.368123 0.929777 0
    outer loop
      vertex 14.216 8.22828 17.7
      vertex 14.216 8.22828 9.7
      vertex 13.6906 8.02025 17.7
    endloop
  endfacet
  facet normal -0.368123 0.929777 0
    outer loop
      vertex 13.6906 8.02025 17.7
      vertex 14.216 8.22828 9.7
      vertex 13.6906 8.02025 9.7
    endloop
  endfacet
  facet normal -0.481753 0.876307 0
    outer loop
      vertex 14.7112 8.50052 17.7
      vertex 14.7112 8.50052 9.7
      vertex 14.216 8.22828 17.7
    endloop
  endfacet
  facet normal -0.481753 0.876307 0
    outer loop
      vertex 14.216 8.22828 17.7
      vertex 14.7112 8.50052 9.7
      vertex 14.216 8.22828 9.7
    endloop
  endfacet
  facet normal -0.587785 0.809017 0
    outer loop
      vertex 15.1684 8.83269 17.7
      vertex 15.1684 8.83269 9.7
      vertex 14.7112 8.50052 17.7
    endloop
  endfacet
  facet normal -0.587785 0.809017 0
    outer loop
      vertex 14.7112 8.50052 17.7
      vertex 15.1684 8.83269 9.7
      vertex 14.7112 8.50052 9.7
    endloop
  endfacet
  facet normal -0.684547 0.728968 0
    outer loop
      vertex 15.5804 9.21954 17.7
      vertex 15.5804 9.21954 9.7
      vertex 15.1684 8.83269 17.7
    endloop
  endfacet
  facet normal -0.684547 0.728968 0
    outer loop
      vertex 15.1684 8.83269 17.7
      vertex 15.5804 9.21954 9.7
      vertex 15.1684 8.83269 9.7
    endloop
  endfacet
  facet normal -0.770514 0.637424 0
    outer loop
      vertex 15.9406 9.65497 17.7
      vertex 15.9406 9.65497 9.7
      vertex 15.5804 9.21954 17.7
    endloop
  endfacet
  facet normal -0.770514 0.637424 0
    outer loop
      vertex 15.5804 9.21954 17.7
      vertex 15.9406 9.65497 9.7
      vertex 15.5804 9.21954 9.7
    endloop
  endfacet
  facet normal -0.844328 0.535827 0
    outer loop
      vertex 16.2434 10.1321 17.7
      vertex 16.2434 10.1321 9.7
      vertex 15.9406 9.65497 17.7
    endloop
  endfacet
  facet normal -0.844328 0.535827 0
    outer loop
      vertex 15.9406 9.65497 17.7
      vertex 16.2434 10.1321 9.7
      vertex 15.9406 9.65497 9.7
    endloop
  endfacet
  facet normal -0.904827 0.425778 0
    outer loop
      vertex 16.484 10.6434 17.7
      vertex 16.484 10.6434 9.7
      vertex 16.2434 10.1321 17.7
    endloop
  endfacet
  facet normal -0.904827 0.425778 0
    outer loop
      vertex 16.2434 10.1321 17.7
      vertex 16.484 10.6434 9.7
      vertex 16.2434 10.1321 9.7
    endloop
  endfacet
  facet normal -0.951057 0.309017 0
    outer loop
      vertex 16.6586 11.1809 17.7
      vertex 16.6586 11.1809 9.7
      vertex 16.484 10.6434 17.7
    endloop
  endfacet
  facet normal -0.951057 0.309017 0
    outer loop
      vertex 16.484 10.6434 17.7
      vertex 16.6586 11.1809 9.7
      vertex 16.484 10.6434 9.7
    endloop
  endfacet
  facet normal -0.982287 0.187382 0
    outer loop
      vertex 16.7645 11.736 17.7
      vertex 16.7645 11.736 9.7
      vertex 16.6586 11.1809 17.7
    endloop
  endfacet
  facet normal -0.982287 0.187382 0
    outer loop
      vertex 16.6586 11.1809 17.7
      vertex 16.7645 11.736 9.7
      vertex 16.6586 11.1809 9.7
    endloop
  endfacet
  facet normal -0.998027 0.0627907 0
    outer loop
      vertex 16.8 12.3 17.7
      vertex 16.8 12.3 9.7
      vertex 16.7645 11.736 17.7
    endloop
  endfacet
  facet normal -0.998027 0.0627907 0
    outer loop
      vertex 16.7645 11.736 17.7
      vertex 16.8 12.3 9.7
      vertex 16.7645 11.736 9.7
    endloop
  endfacet
  facet normal -0.998027 -0.0627907 0
    outer loop
      vertex 16.8 12.3 17.7
      vertex 16.7645 12.864 17.7
      vertex 16.8 12.3 9.7
    endloop
  endfacet
  facet normal -0.998027 -0.0627907 0
    outer loop
      vertex 16.8 12.3 9.7
      vertex 16.7645 12.864 17.7
      vertex 16.7645 12.864 9.7
    endloop
  endfacet
  facet normal -0.982287 -0.187382 0
    outer loop
      vertex 16.7645 12.864 17.7
      vertex 16.6586 13.4191 17.7
      vertex 16.7645 12.864 9.7
    endloop
  endfacet
  facet normal -0.982287 -0.187382 0
    outer loop
      vertex 16.7645 12.864 9.7
      vertex 16.6586 13.4191 17.7
      vertex 16.6586 13.4191 9.7
    endloop
  endfacet
  facet normal -0.951057 -0.309017 0
    outer loop
      vertex 16.6586 13.4191 17.7
      vertex 16.484 13.9566 17.7
      vertex 16.6586 13.4191 9.7
    endloop
  endfacet
  facet normal -0.951057 -0.309017 0
    outer loop
      vertex 16.6586 13.4191 9.7
      vertex 16.484 13.9566 17.7
      vertex 16.484 13.9566 9.7
    endloop
  endfacet
  facet normal -0.904827 -0.425778 0
    outer loop
      vertex 16.484 13.9566 17.7
      vertex 16.2434 14.4679 17.7
      vertex 16.484 13.9566 9.7
    endloop
  endfacet
  facet normal -0.904827 -0.425778 0
    outer loop
      vertex 16.484 13.9566 9.7
      vertex 16.2434 14.4679 17.7
      vertex 16.2434 14.4679 9.7
    endloop
  endfacet
  facet normal -0.844328 -0.535827 0
    outer loop
      vertex 16.2434 14.4679 17.7
      vertex 15.9406 14.945 17.7
      vertex 16.2434 14.4679 9.7
    endloop
  endfacet
  facet normal -0.844328 -0.535827 0
    outer loop
      vertex 16.2434 14.4679 9.7
      vertex 15.9406 14.945 17.7
      vertex 15.9406 14.945 9.7
    endloop
  endfacet
  facet normal -0.770514 -0.637424 0
    outer loop
      vertex 15.9406 14.945 17.7
      vertex 15.5804 15.3805 17.7
      vertex 15.9406 14.945 9.7
    endloop
  endfacet
  facet normal -0.770514 -0.637424 0
    outer loop
      vertex 15.9406 14.945 9.7
      vertex 15.5804 15.3805 17.7
      vertex 15.5804 15.3805 9.7
    endloop
  endfacet
  facet normal -0.684547 -0.728968 0
    outer loop
      vertex 15.5804 15.3805 9.7
      vertex 15.5804 15.3805 17.7
      vertex 15.1684 15.7673 17.7
    endloop
  endfacet
  facet normal -0.684547 -0.728968 0
    outer loop
      vertex 15.1684 15.7673 9.7
      vertex 15.5804 15.3805 9.7
      vertex 15.1684 15.7673 17.7
    endloop
  endfacet
  facet normal -0.587785 -0.809017 0
    outer loop
      vertex 15.1684 15.7673 9.7
      vertex 15.1684 15.7673 17.7
      vertex 14.7112 16.0995 17.7
    endloop
  endfacet
  facet normal -0.587785 -0.809017 0
    outer loop
      vertex 14.7112 16.0995 9.7
      vertex 15.1684 15.7673 9.7
      vertex 14.7112 16.0995 17.7
    endloop
  endfacet
  facet normal -0.481753 -0.876307 0
    outer loop
      vertex 14.7112 16.0995 9.7
      vertex 14.7112 16.0995 17.7
      vertex 14.216 16.3717 17.7
    endloop
  endfacet
  facet normal -0.481753 -0.876307 0
    outer loop
      vertex 14.216 16.3717 9.7
      vertex 14.7112 16.0995 9.7
      vertex 14.216 16.3717 17.7
    endloop
  endfacet
  facet normal -0.368123 -0.929777 0
    outer loop
      vertex 14.216 16.3717 9.7
      vertex 14.216 16.3717 17.7
      vertex 13.6906 16.5798 17.7
    endloop
  endfacet
  facet normal -0.368123 -0.929777 0
    outer loop
      vertex 13.6906 16.5798 9.7
      vertex 14.216 16.3717 9.7
      vertex 13.6906 16.5798 17.7
    endloop
  endfacet
  facet normal -0.248691 -0.968583 0
    outer loop
      vertex 13.6906 16.5798 9.7
      vertex 13.6906 16.5798 17.7
      vertex 13.1432 16.7203 17.7
    endloop
  endfacet
  facet normal -0.248691 -0.968583 0
    outer loop
      vertex 13.1432 16.7203 9.7
      vertex 13.6906 16.5798 9.7
      vertex 13.1432 16.7203 17.7
    endloop
  endfacet
  facet normal -0.125332 -0.992115 0
    outer loop
      vertex 13.1432 16.7203 9.7
      vertex 13.1432 16.7203 17.7
      vertex 12.5826 16.7911 17.7
    endloop
  endfacet
  facet normal -0.125332 -0.992115 0
    outer loop
      vertex 12.5826 16.7911 9.7
      vertex 13.1432 16.7203 9.7
      vertex 12.5826 16.7911 17.7
    endloop
  endfacet
  facet normal 0 -1 0
    outer loop
      vertex 12.5826 16.7911 9.7
      vertex 12.5826 16.7911 17.7
      vertex 12.0174 16.7911 17.7
    endloop
  endfacet
  facet normal 0 -1 0
    outer loop
      vertex 12.0174 16.7911 9.7
      vertex 12.5826 16.7911 9.7
      vertex 12.0174 16.7911 17.7
    endloop
  endfacet
  facet normal 0.125332 -0.992115 0
    outer loop
      vertex 12.0174 16.7911 9.7
      vertex 12.0174 16.7911 17.7
      vertex 11.4568 16.7203 17.7
    endloop
  endfacet
  facet normal 0.125332 -0.992115 0
    outer loop
      vertex 11.4568 16.7203 9.7
      vertex 12.0174 16.7911 9.7
      vertex 11.4568 16.7203 17.7
    endloop
  endfacet
  facet normal 0.248691 -0.968583 0
    outer loop
      vertex 11.4568 16.7203 9.7
      vertex 11.4568 16.7203 17.7
      vertex 10.9094 16.5798 17.7
    endloop
  endfacet
  facet normal 0.248691 -0.968583 0
    outer loop
      vertex 10.9094 16.5798 9.7
      vertex 11.4568 16.7203 9.7
      vertex 10.9094 16.5798 17.7
    endloop
  endfacet
  facet normal 0.368123 -0.929777 0
    outer loop
      vertex 10.9094 16.5798 9.7
      vertex 10.9094 16.5798 17.7
      vertex 10.384 16.3717 17.7
    endloop
  endfacet
  facet normal 0.368123 -0.929777 0
    outer loop
      vertex 10.384 16.3717 9.7
      vertex 10.9094 16.5798 9.7
      vertex 10.384 16.3717 17.7
    endloop
  endfacet
  facet normal 0.481753 -0.876307 0
    outer loop
      vertex 10.384 16.3717 9.7
      vertex 10.384 16.3717 17.7
      vertex 9.88878 16.0995 17.7
    endloop
  endfacet
  facet normal 0.481753 -0.876307 0
    outer loop
      vertex 9.88878 16.0995 9.7
      vertex 10.384 16.3717 9.7
      vertex 9.88878 16.0995 17.7
    endloop
  endfacet
  facet normal 0.587785 -0.809017 0
    outer loop
      vertex 9.88878 16.0995 9.7
      vertex 9.88878 16.0995 17.7
      vertex 9.43159 15.7673 17.7
    endloop
  endfacet
  facet normal 0.587785 -0.809017 0
    outer loop
      vertex 9.43159 15.7673 9.7
      vertex 9.88878 16.0995 9.7
      vertex 9.43159 15.7673 17.7
    endloop
  endfacet
  facet normal 0.684547 -0.728968 0
    outer loop
      vertex 9.43159 15.7673 9.7
      vertex 9.43159 15.7673 17.7
      vertex 9.01964 15.3805 17.7
    endloop
  endfacet
  facet normal 0.684547 -0.728968 0
    outer loop
      vertex 9.01964 15.3805 9.7
      vertex 9.43159 15.7673 9.7
      vertex 9.01964 15.3805 17.7
    endloop
  endfacet
  facet normal 0.770514 -0.637424 0
    outer loop
      vertex 9.01964 15.3805 9.7
      vertex 9.01964 15.3805 17.7
      vertex 8.65942 14.945 17.7
    endloop
  endfacet
  facet normal 0.770514 -0.637424 0
    outer loop
      vertex 8.65942 14.945 9.7
      vertex 9.01964 15.3805 9.7
      vertex 8.65942 14.945 17.7
    endloop
  endfacet
  facet normal 0.844328 -0.535827 0
    outer loop
      vertex 8.65942 14.945 9.7
      vertex 8.65942 14.945 17.7
      vertex 8.35662 14.4679 17.7
    endloop
  endfacet
  facet normal 0.844328 -0.535827 0
    outer loop
      vertex 8.35662 14.4679 9.7
      vertex 8.65942 14.945 9.7
      vertex 8.35662 14.4679 17.7
    endloop
  endfacet
  facet normal 0.904827 -0.425778 0
    outer loop
      vertex 8.35662 14.4679 9.7
      vertex 8.35662 14.4679 17.7
      vertex 8.11601 13.9566 17.7
    endloop
  endfacet
  facet normal 0.904827 -0.425778 0
    outer loop
      vertex 8.11601 13.9566 9.7
      vertex 8.35662 14.4679 9.7
      vertex 8.11601 13.9566 17.7
    endloop
  endfacet
  facet normal 0.951057 -0.309017 0
    outer loop
      vertex 8.11601 13.9566 9.7
      vertex 8.11601 13.9566 17.7
      vertex 7.94138 13.4191 17.7
    endloop
  endfacet
  facet normal 0.951057 -0.309017 0
    outer loop
      vertex 7.94138 13.4191 9.7
      vertex 8.11601 13.9566 9.7
      vertex 7.94138 13.4191 17.7
    endloop
  endfacet
  facet normal 0.982287 -0.187382 0
    outer loop
      vertex 7.94138 13.4191 9.7
      vertex 7.94138 13.4191 17.7
      vertex 7.83548 12.864 17.7
    endloop
  endfacet
  facet normal 0.982287 -0.187382 0
    outer loop
      vertex 7.83548 12.864 9.7
      vertex 7.94138 13.4191 9.7
      vertex 7.83548 12.864 17.7
    endloop
  endfacet
  facet normal 0.998027 -0.0627907 0
    outer loop
      vertex 7.83548 12.864 9.7
      vertex 7.83548 12.864 17.7
      vertex 7.8 12.3 17.7
    endloop
  endfacet
  facet normal 0.998027 -0.0627907 0
    outer loop
      vertex 7.8 12.3 9.7
      vertex 7.83548 12.864 9.7
      vertex 7.8 12.3 17.7
    endloop
  endfacet
  facet normal 0 0 -1
    outer loop
      vertex 6.25 18.75 13.7
      vertex 6.25 16.25 13.7
      vertex 2.75 18.75 13.7
    endloop
  endfacet
  facet normal 0 0 -1
    outer loop
      vertex 2.75 18.75 13.7
      vertex 6.25 16.25 13.7
      vertex 2.75 16.25 13.7
    endloop
  endfacet
  facet normal 0 0 1
    outer loop
      vertex 7.83548 11.736 9.7
      vertex 7.94138 11.1809 9.7
      vertex 8.11601 10.6434 9.7
    endloop
  endfacet
  facet normal 0 0 1
    outer loop
      vertex 8.65942 9.65497 9.7
      vertex 7.83548 11.736 9.7
      vertex 8.35662 10.1321 9.7
    endloop
  endfacet
  facet normal 0 0 1
    outer loop
      vertex 8.35662 10.1321 9.7
      vertex 7.83548 11.736 9.7
      vertex 8.11601 10.6434 9.7
    endloop
  endfacet
  facet normal 0 0 1
    outer loop
      vertex 9.01964 9.21954 9.7
      vertex 7.83548 11.736 9.7
      vertex 8.65942 9.65497 9.7
    endloop
  endfacet
  facet normal 0 0 1
    outer loop
      vertex 9.43159 8.83269 9.7
      vertex 7.83548 11.736 9.7
      vertex 9.01964 9.21954 9.7
    endloop
  endfacet
  facet normal 0 0 1
    outer loop
      vertex 9.88878 8.50052 9.7
      vertex 7.83548 11.736 9.7
      vertex 9.43159 8.83269 9.7
    endloop
  endfacet
  facet normal 0 0 1
    outer loop
      vertex 10.384 8.22828 9.7
      vertex 7.83548 11.736 9.7
      vertex 9.88878 8.50052 9.7
    endloop
  endfacet
  facet normal 0 0 1
    outer loop
      vertex 10.9094 8.02025 9.7
      vertex 7.83548 11.736 9.7
      vertex 10.384 8.22828 9.7
    endloop
  endfacet
  facet normal 0 0 1
    outer loop
      vertex 11.4568 7.87971 9.7
      vertex 7.83548 11.736 9.7
      vertex 10.9094 8.02025 9.7
    endloop
  endfacet
  facet normal 0 0 1
    outer loop
      vertex 12.0174 7.80888 9.7
      vertex 7.83548 11.736 9.7
      vertex 11.4568 7.87971 9.7
    endloop
  endfacet
  facet normal 0 0 1
    outer loop
      vertex 12.5826 7.80888 9.7
      vertex 7.83548 11.736 9.7
      vertex 12.0174 7.80888 9.7
    endloop
  endfacet
  facet normal 0 0 1
    outer loop
      vertex 13.1432 7.87971 9.7
      vertex 7.83548 11.736 9.7
      vertex 12.5826 7.80888 9.7
    endloop
  endfacet
  facet normal 0 0 1
    outer loop
      vertex 13.6906 8.02025 9.7
      vertex 7.83548 11.736 9.7
      vertex 13.1432 7.87971 9.7
    endloop
  endfacet
  facet normal 0 0 1
    outer loop
      vertex 14.216 8.22828 9.7
      vertex 7.83548 11.736 9.7
      vertex 13.6906 8.02025 9.7
    endloop
  endfacet
  facet normal 0 0 1
    outer loop
      vertex 14.7112 8.50052 9.7
      vertex 7.83548 11.736 9.7
      vertex 14.216 8.22828 9.7
    endloop
  endfacet
  facet normal 0 0 1
    outer loop
      vertex 15.1684 8.83269 9.7
      vertex 7.83548 11.736 9.7
      vertex 14.7112 8.50052 9.7
    endloop
  endfacet
  facet normal 0 0 1
    outer loop
      vertex 15.5804 9.21954 9.7
      vertex 7.83548 11.736 9.7
      vertex 15.1684 8.83269 9.7
    endloop
  endfacet
  facet normal 0 0 1
    outer loop
      vertex 15.9406 9.65497 9.7
      vertex 7.83548 11.736 9.7
      vertex 15.5804 9.21954 9.7
    endloop
  endfacet
  facet normal 0 0 1
    outer loop
      vertex 11.8056 10.7783 9.7
      vertex 7.83548 11.736 9.7
      vertex 15.9406 9.65497 9.7
    endloop
  endfacet
  facet normal 0 0 1
    outer loop
      vertex 11.8056 10.7783 9.7
      vertex 11.5 10.9144 9.7
      vertex 7.83548 11.736 9.7
    endloop
  endfacet
  facet normal 0 0 1
    outer loop
      vertex 13.865 11.9673 9.7
      vertex 13.7617 11.6492 9.7
      vertex 16.7645 11.736 9.7
    endloop
  endfacet
  facet normal 0 0 1
    outer loop
      vertex 10.7 12.3 9.7
      vertex 10.735 12.6327 9.7
      vertex 7.83548 11.736 9.7
    endloop
  endfacet
  facet normal 0 0 1
    outer loop
      vertex 13.7617 12.9508 9.7
      vertex 13.865 12.6327 9.7
      vertex 16.6586 13.4191 9.7
    endloop
  endfacet
  facet normal 0 0 1
    outer loop
      vertex 13.9 12.3 9.7
      vertex 13.865 11.9673 9.7
      vertex 16.8 12.3 9.7
    endloop
  endfacet
  facet normal 0 0 1
    outer loop
      vertex 10.8383 12.9508 9.7
      vertex 11.0056 13.2405 9.7
      vertex 7.83548 11.736 9.7
    endloop
  endfacet
  facet normal 0 0 1
    outer loop
      vertex 14.7112 16.0995 9.7
      vertex 7.83548 11.736 9.7
      vertex 15.1684 15.7673 9.7
    endloop
  endfacet
  facet normal 0 0 1
    outer loop
      vertex 14.216 16.3717 9.7
      vertex 7.83548 11.736 9.7
      vertex 14.7112 16.0995 9.7
    endloop
  endfacet
  facet normal 0 0 1
    outer loop
      vertex 13.6906 16.5798 9.7
      vertex 7.83548 11.736 9.7
      vertex 14.216 16.3717 9.7
    endloop
  endfacet
  facet normal 0 0 1
    outer loop
      vertex 13.1432 16.7203 9.7
      vertex 7.83548 11.736 9.7
      vertex 13.6906 16.5798 9.7
    endloop
  endfacet
  facet normal 0 0 1
    outer loop
      vertex 12.5826 16.7911 9.7
      vertex 7.83548 11.736 9.7
      vertex 13.1432 16.7203 9.7
    endloop
  endfacet
  facet normal 0 0 1
    outer loop
      vertex 12.0174 16.7911 9.7
      vertex 7.83548 11.736 9.7
      vertex 12.5826 16.7911 9.7
    endloop
  endfacet
  facet normal 0 0 1
    outer loop
      vertex 11.4568 16.7203 9.7
      vertex 7.83548 11.736 9.7
      vertex 12.0174 16.7911 9.7
    endloop
  endfacet
  facet normal 0 0 1
    outer loop
      vertex 10.9094 16.5798 9.7
      vertex 7.83548 11.736 9.7
      vertex 11.4568 16.7203 9.7
    endloop
  endfacet
  facet normal 0 0 1
    outer loop
      vertex 10.384 16.3717 9.7
      vertex 7.83548 11.736 9.7
      vertex 10.9094 16.5798 9.7
    endloop
  endfacet
  facet normal 0 0 1
    outer loop
      vertex 9.88878 16.0995 9.7
      vertex 7.83548 11.736 9.7
      vertex 10.384 16.3717 9.7
    endloop
  endfacet
  facet normal 0 0 1
    outer loop
      vertex 9.43159 15.7673 9.7
      vertex 7.83548 11.736 9.7
      vertex 9.88878 16.0995 9.7
    endloop
  endfacet
  facet normal 0 0 1
    outer loop
      vertex 9.01964 15.3805 9.7
      vertex 7.83548 11.736 9.7
      vertex 9.43159 15.7673 9.7
    endloop
  endfacet
  facet normal 0 0 1
    outer loop
      vertex 8.65942 14.945 9.7
      vertex 7.83548 11.736 9.7
      vertex 9.01964 15.3805 9.7
    endloop
  endfacet
  facet normal 0 0 1
    outer loop
      vertex 8.35662 14.4679 9.7
      vertex 7.83548 11.736 9.7
      vertex 8.65942 14.945 9.7
    endloop
  endfacet
  facet normal 0 0 1
    outer loop
      vertex 8.11601 13.9566 9.7
      vertex 7.83548 11.736 9.7
      vertex 8.35662 14.4679 9.7
    endloop
  endfacet
  facet normal 0 0 1
    outer loop
      vertex 7.94138 13.4191 9.7
      vertex 7.83548 11.736 9.7
      vertex 8.11601 13.9566 9.7
    endloop
  endfacet
  facet normal 0 0 1
    outer loop
      vertex 7.83548 12.864 9.7
      vertex 7.83548 11.736 9.7
      vertex 7.94138 13.4191 9.7
    endloop
  endfacet
  facet normal 0 0 1
    outer loop
      vertex 7.8 12.3 9.7
      vertex 7.83548 11.736 9.7
      vertex 7.83548 12.864 9.7
    endloop
  endfacet
  facet normal 0 0 1
    outer loop
      vertex 13.865 12.6327 9.7
      vertex 13.9 12.3 9.7
      vertex 16.7645 12.864 9.7
    endloop
  endfacet
  facet normal 0 0 1
    outer loop
      vertex 13.3706 13.489 9.7
      vertex 13.5944 13.2405 9.7
      vertex 16.484 13.9566 9.7
    endloop
  endfacet
  facet normal 0 0 1
    outer loop
      vertex 13.5944 13.2405 9.7
      vertex 13.7617 12.9508 9.7
      vertex 16.484 13.9566 9.7
    endloop
  endfacet
  facet normal 0 0 1
    outer loop
      vertex 13.1 13.6856 9.7
      vertex 13.3706 13.489 9.7
      vertex 16.2434 14.4679 9.7
    endloop
  endfacet
  facet normal 0 0 1
    outer loop
      vertex 12.4672 13.8912 9.7
      vertex 12.7944 13.8217 9.7
      vertex 15.5804 15.3805 9.7
    endloop
  endfacet
  facet normal 0 0 1
    outer loop
      vertex 11.2294 13.489 9.7
      vertex 7.83548 11.736 9.7
      vertex 11.0056 13.2405 9.7
    endloop
  endfacet
  facet normal 0 0 1
    outer loop
      vertex 11.5 13.6856 9.7
      vertex 7.83548 11.736 9.7
      vertex 11.2294 13.489 9.7
    endloop
  endfacet
  facet normal 0 0 1
    outer loop
      vertex 11.8056 13.8217 9.7
      vertex 12.1328 13.8912 9.7
      vertex 15.1684 15.7673 9.7
    endloop
  endfacet
  facet normal 0 0 1
    outer loop
      vertex 15.1684 15.7673 9.7
      vertex 7.83548 11.736 9.7
      vertex 11.5 13.6856 9.7
    endloop
  endfacet
  facet normal 0 0 1
    outer loop
      vertex 12.1328 13.8912 9.7
      vertex 12.4672 13.8912 9.7
      vertex 15.5804 15.3805 9.7
    endloop
  endfacet
  facet normal 0 0 1
    outer loop
      vertex 15.1684 15.7673 9.7
      vertex 12.1328 13.8912 9.7
      vertex 15.5804 15.3805 9.7
    endloop
  endfacet
  facet normal 0 0 1
    outer loop
      vertex 12.7944 13.8217 9.7
      vertex 13.1 13.6856 9.7
      vertex 15.9406 14.945 9.7
    endloop
  endfacet
  facet normal 0 0 1
    outer loop
      vertex 11.5 13.6856 9.7
      vertex 11.8056 13.8217 9.7
      vertex 15.1684 15.7673 9.7
    endloop
  endfacet
  facet normal 0 0 1
    outer loop
      vertex 15.5804 15.3805 9.7
      vertex 12.7944 13.8217 9.7
      vertex 15.9406 14.945 9.7
    endloop
  endfacet
  facet normal 0 0 1
    outer loop
      vertex 15.9406 14.945 9.7
      vertex 13.1 13.6856 9.7
      vertex 16.2434 14.4679 9.7
    endloop
  endfacet
  facet normal 0 0 1
    outer loop
      vertex 16.2434 14.4679 9.7
      vertex 13.3706 13.489 9.7
      vertex 16.484 13.9566 9.7
    endloop
  endfacet
  facet normal 0 0 1
    outer loop
      vertex 16.484 13.9566 9.7
      vertex 13.7617 12.9508 9.7
      vertex 16.6586 13.4191 9.7
    endloop
  endfacet
  facet normal 0 0 1
    outer loop
      vertex 16.6586 13.4191 9.7
      vertex 13.865 12.6327 9.7
      vertex 16.7645 12.864 9.7
    endloop
  endfacet
  facet normal 0 0 1
    outer loop
      vertex 16.7645 12.864 9.7
      vertex 13.9 12.3 9.7
      vertex 16.8 12.3 9.7
    endloop
  endfacet
  facet normal 0 0 1
    outer loop
      vertex 10.735 12.6327 9.7
      vertex 10.8383 12.9508 9.7
      vertex 7.83548 11.736 9.7
    endloop
  endfacet
  facet normal 0 0 1
    outer loop
      vertex 16.8 12.3 9.7
      vertex 13.865 11.9673 9.7
      vertex 16.7645 11.736 9.7
    endloop
  endfacet
  facet normal 0 0 1
    outer loop
      vertex 16.7645 11.736 9.7
      vertex 13.7617 11.6492 9.7
      vertex 16.6586 11.1809 9.7
    endloop
  endfacet
  facet normal 0 0 1
    outer loop
      vertex 16.6586 11.1809 9.7
      vertex 13.5944 11.3595 9.7
      vertex 16.484 10.6434 9.7
    endloop
  endfacet
  facet normal 0 0 1
    outer loop
      vertex 13.5944 11.3595 9.7
      vertex 13.3706 11.111 9.7
      vertex 16.484 10.6434 9.7
    endloop
  endfacet
  facet normal 0 0 1
    outer loop
      vertex 16.484 10.6434 9.7
      vertex 13.1 10.9144 9.7
      vertex 16.2434 10.1321 9.7
    endloop
  endfacet
  facet normal 0 0 1
    outer loop
      vertex 16.2434 10.1321 9.7
      vertex 12.7944 10.7783 9.7
      vertex 15.9406 9.65497 9.7
    endloop
  endfacet
  facet normal 0 0 1
    outer loop
      vertex 12.7944 10.7783 9.7
      vertex 12.4672 10.7088 9.7
      vertex 15.9406 9.65497 9.7
    endloop
  endfacet
  facet normal 0 0 1
    outer loop
      vertex 11.2294 11.111 9.7
      vertex 11.0056 11.3595 9.7
      vertex 7.83548 11.736 9.7
    endloop
  endfacet
  facet normal 0 0 1
    outer loop
      vertex 12.4672 10.7088 9.7
      vertex 12.1328 10.7088 9.7
      vertex 15.9406 9.65497 9.7
    endloop
  endfacet
  facet normal 0 0 1
    outer loop
      vertex 12.1328 10.7088 9.7
      vertex 11.8056 10.7783 9.7
      vertex 15.9406 9.65497 9.7
    endloop
  endfacet
  facet normal 0 0 1
    outer loop
      vertex 11.0056 11.3595 9.7
      vertex 10.8383 11.6492 9.7
      vertex 7.83548 11.736 9.7
    endloop
  endfacet
  facet normal 0 0 1
    outer loop
      vertex 11.5 10.9144 9.7
      vertex 11.2294 11.111 9.7
      vertex 7.83548 11.736 9.7
    endloop
  endfacet
  facet normal 0 0 1
    outer loop
      vertex 13.1 10.9144 9.7
      vertex 12.7944 10.7783 9.7
      vertex 16.2434 10.1321 9.7
    endloop
  endfacet
  facet normal 0 0 1
    outer loop
      vertex 10.8383 11.6492 9.7
      vertex 10.735 11.9673 9.7
      vertex 7.83548 11.736 9.7
    endloop
  endfacet
  facet normal 0 0 1
    outer loop
      vertex 13.3706 11.111 9.7
      vertex 13.1 10.9144 9.7
      vertex 16.484 10.6434 9.7
    endloop
  endfacet
  facet normal 0 0 1
    outer loop
      vertex 13.7617 11.6492 9.7
      vertex 13.5944 11.3595 9.7
      vertex 16.6586 11.1809 9.7
    endloop
  endfacet
  facet normal 0 0 1
    outer loop
      vertex 10.735 11.9673 9.7
      vertex 10.7 12.3 9.7
      vertex 7.83548 11.736 9.7
    endloop
  endfacet
  facet normal 0 0 -1
    outer loop
      vertex 18.75 6.25 13.7
      vertex 18.75 2.75 13.7
      vertex 16.25 6.25 13.7
    endloop
  endfacet
  facet normal 0 0 -1
    outer loop
      vertex 16.25 6.25 13.7
      vertex 18.75 2.75 13.7
      vertex 16.25 2.75 13.7
    endloop
  endfacet
endsolid OpenSCAD_Model
