solid OpenSCAD_Model
  facet normal -1 0 0
    outer loop
      vertex 0 8.28427 -15
      vertex 0 8.28427 -5
      vertex 0 20 -15
    endloop
  endfacet
  facet normal -1 0 0
    outer loop
      vertex 0 20 -15
      vertex 0 8.28427 -5
      vertex 0 20 -5
    endloop
  endfacet
  facet normal -0.707107 -0.707107 0
    outer loop
      vertex 8.28427 0 -15
      vertex 8.28427 0 -5
      vertex 7.75462 0.529646 -5
    endloop
  endfacet
  facet normal -0.707107 -0.707107 0
    outer loop
      vertex 0.542136 7.74214 -11
      vertex 8.28427 0 -15
      vertex 7.75462 0.529646 -11
    endloop
  endfacet
  facet normal -0.707107 -0.707107 0
    outer loop
      vertex 7.75462 0.529646 -11
      vertex 8.28427 0 -15
      vertex 7.75462 0.529646 -5
    endloop
  endfacet
  facet normal -0.707107 -0.707107 0
    outer loop
      vertex 0 8.28427 -15
      vertex 8.28427 0 -15
      vertex 0.542136 7.74214 -11
    endloop
  endfacet
  facet normal -0.707107 -0.707107 0
    outer loop
      vertex 0 8.28427 -5
      vertex 0.542136 7.74214 -11
      vertex 0.542136 7.74214 -5
    endloop
  endfacet
  facet normal -0.707107 -0.707107 0
    outer loop
      vertex 0 8.28427 -15
      vertex 0.542136 7.74214 -11
      vertex 0 8.28427 -5
    endloop
  endfacet
  facet normal 0 0 -1
    outer loop
      vertex 0 8.28427 -15
      vertex 0 20 -15
      vertex 8.28427 0 -15
    endloop
  endfacet
  facet normal 0 0 -1
    outer loop
      vertex 10.55 15.3311 -15
      vertex 0 20 -15
      vertex 15 20 -15
    endloop
  endfacet
  facet normal 0 0 -1
    outer loop
      vertex 15.8 12.3 -15
      vertex 15 20 -15
      vertex 20 15 -15
    endloop
  endfacet
  facet normal 0 0 -1
    outer loop
      vertex 8.28427 0 -15
      vertex 20 15 -15
      vertex 20 0 -15
    endloop
  endfacet
  facet normal 0 0 -1
    outer loop
      vertex 8.28427 0 -15
      vertex 0 20 -15
      vertex 8.8 12.3 -15
    endloop
  endfacet
  facet normal 0 0 -1
    outer loop
      vertex 8.28427 0 -15
      vertex 8.8 12.3 -15
      vertex 10.55 9.26891 -15
    endloop
  endfacet
  facet normal 0 0 -1
    outer loop
      vertex 10.55 15.3311 -15
      vertex 15 20 -15
      vertex 14.05 15.3311 -15
    endloop
  endfacet
  facet normal 0 0 -1
    outer loop
      vertex 8.28427 0 -15
      vertex 14.05 9.26891 -15
      vertex 20 15 -15
    endloop
  endfacet
  facet normal 0 0 -1
    outer loop
      vertex 14.05 9.26891 -15
      vertex 15.8 12.3 -15
      vertex 20 15 -15
    endloop
  endfacet
  facet normal 0 0 -1
    outer loop
      vertex 14.05 15.3311 -15
      vertex 15 20 -15
      vertex 15.8 12.3 -15
    endloop
  endfacet
  facet normal 0 0 -1
    outer loop
      vertex 8.8 12.3 -15
      vertex 0 20 -15
      vertex 10.55 15.3311 -15
    endloop
  endfacet
  facet normal 0 0 -1
    outer loop
      vertex 14.05 9.26891 -15
      vertex 8.28427 0 -15
      vertex 10.55 9.26891 -15
    endloop
  endfacet
  facet normal 0 1 0
    outer loop
      vertex 0 20 -15
      vertex 0 20 -5
      vertex 15 20 -15
    endloop
  endfacet
  facet normal 0 1 0
    outer loop
      vertex 15 20 -15
      vertex 0 20 -5
      vertex 15 20 -5
    endloop
  endfacet
  facet normal 0 0 1
    outer loop
      vertex 0 20 -5
      vertex 0 8.28427 -5
      vertex 0.542136 7.74214 -5
    endloop
  endfacet
  facet normal 0 0 1
    outer loop
      vertex 8.58226 15.7912 -5
      vertex 0 20 -5
      vertex 8.53949 15.7395 -5
    endloop
  endfacet
  facet normal 0 0 1
    outer loop
      vertex 8.53949 15.7395 -5
      vertex 0 20 -5
      vertex 0.542136 7.74214 -5
    endloop
  endfacet
  facet normal 0 0 1
    outer loop
      vertex 8.72881 15.9288 -5
      vertex 0 20 -5
      vertex 8.58226 15.7912 -5
    endloop
  endfacet
  facet normal 0 0 1
    outer loop
      vertex 8.94214 16.1421 -5
      vertex 0 20 -5
      vertex 8.72881 15.9288 -5
    endloop
  endfacet
  facet normal 0 0 1
    outer loop
      vertex 9.04914 16.2296 -5
      vertex 0 20 -5
      vertex 8.94214 16.1421 -5
    endloop
  endfacet
  facet normal 0 0 1
    outer loop
      vertex 9.04914 16.2296 -5
      vertex 8.94214 16.1421 -5
      vertex 8.94884 16.1354 -5
    endloop
  endfacet
  facet normal 0 0 1
    outer loop
      vertex 9.56728 16.6061 -5
      vertex 0 20 -5
      vertex 9.04914 16.2296 -5
    endloop
  endfacet
  facet normal 0 0 1
    outer loop
      vertex 10.1285 16.9146 -5
      vertex 0 20 -5
      vertex 9.56728 16.6061 -5
    endloop
  endfacet
  facet normal 0 0 1
    outer loop
      vertex 10.724 17.1504 -5
      vertex 0 20 -5
      vertex 10.1285 16.9146 -5
    endloop
  endfacet
  facet normal 0 0 1
    outer loop
      vertex 11.3444 17.3097 -5
      vertex 0 20 -5
      vertex 10.724 17.1504 -5
    endloop
  endfacet
  facet normal 0 0 1
    outer loop
      vertex 11.9798 17.3899 -5
      vertex 0 20 -5
      vertex 11.3444 17.3097 -5
    endloop
  endfacet
  facet normal 0 0 1
    outer loop
      vertex 12.6202 17.3899 -5
      vertex 0 20 -5
      vertex 11.9798 17.3899 -5
    endloop
  endfacet
  facet normal 0 0 1
    outer loop
      vertex 13.2556 17.3097 -5
      vertex 0 20 -5
      vertex 12.6202 17.3899 -5
    endloop
  endfacet
  facet normal 0 0 1
    outer loop
      vertex 15 20 -5
      vertex 0 20 -5
      vertex 13.2556 17.3097 -5
    endloop
  endfacet
  facet normal 0 0 1
    outer loop
      vertex 15 20 -5
      vertex 13.2556 17.3097 -5
      vertex 13.876 17.1504 -5
    endloop
  endfacet
  facet normal 0 0 1
    outer loop
      vertex 20 15 -5
      vertex 13.876 17.1504 -5
      vertex 14.4715 16.9146 -5
    endloop
  endfacet
  facet normal 0 0 1
    outer loop
      vertex 20 15 -5
      vertex 14.4715 16.9146 -5
      vertex 15.0327 16.6061 -5
    endloop
  endfacet
  facet normal 0 0 1
    outer loop
      vertex 20 15 -5
      vertex 15.0327 16.6061 -5
      vertex 15.5509 16.2296 -5
    endloop
  endfacet
  facet normal 0 0 1
    outer loop
      vertex 20 15 -5
      vertex 15.5509 16.2296 -5
      vertex 16.0177 15.7912 -5
    endloop
  endfacet
  facet normal 0 0 1
    outer loop
      vertex 20 15 -5
      vertex 16.0177 15.7912 -5
      vertex 16.426 15.2977 -5
    endloop
  endfacet
  facet normal 0 0 1
    outer loop
      vertex 20 15 -5
      vertex 16.426 15.2977 -5
      vertex 16.7692 14.7569 -5
    endloop
  endfacet
  facet normal 0 0 1
    outer loop
      vertex 20 15 -5
      vertex 16.7692 14.7569 -5
      vertex 17.0419 14.1774 -5
    endloop
  endfacet
  facet normal 0 0 1
    outer loop
      vertex 20 15 -5
      vertex 17.0419 14.1774 -5
      vertex 17.2398 13.5683 -5
    endloop
  endfacet
  facet normal 0 0 1
    outer loop
      vertex 20 0 -5
      vertex 17.2398 13.5683 -5
      vertex 17.3598 12.9392 -5
    endloop
  endfacet
  facet normal 0 0 1
    outer loop
      vertex 20 0 -5
      vertex 17.3598 12.9392 -5
      vertex 17.4 12.3 -5
    endloop
  endfacet
  facet normal 0 0 1
    outer loop
      vertex 20 0 -5
      vertex 17.4 12.3 -5
      vertex 17.3598 11.6608 -5
    endloop
  endfacet
  facet normal 0 0 1
    outer loop
      vertex 20 0 -5
      vertex 17.3598 11.6608 -5
      vertex 17.2398 11.0317 -5
    endloop
  endfacet
  facet normal 0 0 1
    outer loop
      vertex 20 0 -5
      vertex 17.2398 11.0317 -5
      vertex 17.0419 10.4226 -5
    endloop
  endfacet
  facet normal 0 0 1
    outer loop
      vertex 20 0 -5
      vertex 17.0419 10.4226 -5
      vertex 16.7692 9.84306 -5
    endloop
  endfacet
  facet normal 0 0 1
    outer loop
      vertex 20 0 -5
      vertex 16.7692 9.84306 -5
      vertex 16.426 9.3023 -5
    endloop
  endfacet
  facet normal 0 0 1
    outer loop
      vertex 16.1546 8.92965 -5
      vertex 16.426 9.3023 -5
      vertex 16.1344 8.94985 -5
    endloop
  endfacet
  facet normal 0 0 1
    outer loop
      vertex 20 0 -5
      vertex 16.426 9.3023 -5
      vertex 16.1546 8.92965 -5
    endloop
  endfacet
  facet normal 0 0 1
    outer loop
      vertex 8.28427 0 -5
      vertex 16.1546 8.92965 -5
      vertex 7.75462 0.529646 -5
    endloop
  endfacet
  facet normal 0 0 1
    outer loop
      vertex 20 0 -5
      vertex 16.1546 8.92965 -5
      vertex 8.28427 0 -5
    endloop
  endfacet
  facet normal 0 0 1
    outer loop
      vertex 20 15 -5
      vertex 17.2398 13.5683 -5
      vertex 20 0 -5
    endloop
  endfacet
  facet normal 0 0 1
    outer loop
      vertex 15 20 -5
      vertex 13.876 17.1504 -5
      vertex 20 15 -5
    endloop
  endfacet
  facet normal 0 -1 0
    outer loop
      vertex 8.28427 0 -5
      vertex 8.28427 0 -15
      vertex 20 0 -15
    endloop
  endfacet
  facet normal 0 -1 0
    outer loop
      vertex 20 0 -5
      vertex 8.28427 0 -5
      vertex 20 0 -15
    endloop
  endfacet
  facet normal 0.707107 -0.707107 0
    outer loop
      vertex 8.53949 15.7395 -11
      vertex 8.53949 15.7395 -5
      vertex 0.542136 7.74214 -5
    endloop
  endfacet
  facet normal 0.707107 -0.707107 0
    outer loop
      vertex 0.542136 7.74214 -11
      vertex 8.53949 15.7395 -11
      vertex 0.542136 7.74214 -5
    endloop
  endfacet
  facet normal 0 0 1
    outer loop
      vertex 8.94884 16.1354 -11
      vertex 8.94214 16.1421 -11
      vertex 7.75462 0.529646 -11
    endloop
  endfacet
  facet normal 0 0 1
    outer loop
      vertex 7.75462 0.529646 -11
      vertex 16.1546 8.92965 -11
      vertex 16.1344 8.94985 -11
    endloop
  endfacet
  facet normal 0 0 1
    outer loop
      vertex 16.426 9.3023 -11
      vertex 7.75462 0.529646 -11
      vertex 16.1344 8.94985 -11
    endloop
  endfacet
  facet normal 0 0 1
    outer loop
      vertex 16.426 9.3023 -11
      vertex 16.7692 9.84306 -11
      vertex 7.75462 0.529646 -11
    endloop
  endfacet
  facet normal 0 0 1
    outer loop
      vertex 16.7692 9.84306 -11
      vertex 17.0419 10.4226 -11
      vertex 7.75462 0.529646 -11
    endloop
  endfacet
  facet normal 0 0 1
    outer loop
      vertex 17.0419 10.4226 -11
      vertex 17.2398 11.0317 -11
      vertex 7.75462 0.529646 -11
    endloop
  endfacet
  facet normal 0 0 1
    outer loop
      vertex 17.2398 11.0317 -11
      vertex 17.3598 11.6608 -11
      vertex 7.75462 0.529646 -11
    endloop
  endfacet
  facet normal 0 0 1
    outer loop
      vertex 17.3598 11.6608 -11
      vertex 17.4 12.3 -11
      vertex 7.75462 0.529646 -11
    endloop
  endfacet
  facet normal 0 0 1
    outer loop
      vertex 17.4 12.3 -11
      vertex 17.3598 12.9392 -11
      vertex 7.75462 0.529646 -11
    endloop
  endfacet
  facet normal 0 0 1
    outer loop
      vertex 17.3598 12.9392 -11
      vertex 17.2398 13.5683 -11
      vertex 7.75462 0.529646 -11
    endloop
  endfacet
  facet normal 0 0 1
    outer loop
      vertex 17.2398 13.5683 -11
      vertex 17.0419 14.1774 -11
      vertex 7.75462 0.529646 -11
    endloop
  endfacet
  facet normal 0 0 1
    outer loop
      vertex 17.0419 14.1774 -11
      vertex 16.7692 14.7569 -11
      vertex 7.75462 0.529646 -11
    endloop
  endfacet
  facet normal 0 0 1
    outer loop
      vertex 16.7692 14.7569 -11
      vertex 16.426 15.2977 -11
      vertex 7.75462 0.529646 -11
    endloop
  endfacet
  facet normal 0 0 1
    outer loop
      vertex 13.7158 11.2714 -11
      vertex 13.471 10.9995 -11
      vertex 7.75462 0.529646 -11
    endloop
  endfacet
  facet normal 0 0 1
    outer loop
      vertex 13.471 13.6005 -11
      vertex 13.7158 13.3286 -11
      vertex 15.0327 16.6061 -11
    endloop
  endfacet
  facet normal 0 0 1
    outer loop
      vertex 11.7592 10.6357 -11
      vertex 11.425 10.7845 -11
      vertex 7.75462 0.529646 -11
    endloop
  endfacet
  facet normal 0 0 1
    outer loop
      vertex 12.1171 14.0404 -11
      vertex 12.4829 14.0404 -11
      vertex 13.2556 17.3097 -11
    endloop
  endfacet
  facet normal 0 0 1
    outer loop
      vertex 10.7013 11.5882 -11
      vertex 10.5882 11.9362 -11
      vertex 7.75462 0.529646 -11
    endloop
  endfacet
  facet normal 0 0 1
    outer loop
      vertex 10.5882 12.6638 -11
      vertex 11.3444 17.3097 -11
      vertex 7.75462 0.529646 -11
    endloop
  endfacet
  facet normal 0 0 1
    outer loop
      vertex 11.3444 17.3097 -11
      vertex 10.724 17.1504 -11
      vertex 7.75462 0.529646 -11
    endloop
  endfacet
  facet normal 0 0 1
    outer loop
      vertex 10.724 17.1504 -11
      vertex 10.1285 16.9146 -11
      vertex 7.75462 0.529646 -11
    endloop
  endfacet
  facet normal 0 0 1
    outer loop
      vertex 10.1285 16.9146 -11
      vertex 9.56728 16.6061 -11
      vertex 7.75462 0.529646 -11
    endloop
  endfacet
  facet normal 0 0 1
    outer loop
      vertex 9.56728 16.6061 -11
      vertex 9.04914 16.2296 -11
      vertex 7.75462 0.529646 -11
    endloop
  endfacet
  facet normal 0 0 1
    outer loop
      vertex 9.04914 16.2296 -11
      vertex 8.94884 16.1354 -11
      vertex 7.75462 0.529646 -11
    endloop
  endfacet
  facet normal 0 0 1
    outer loop
      vertex 8.72881 15.9288 -11
      vertex 8.58226 15.7912 -11
      vertex 7.75462 0.529646 -11
    endloop
  endfacet
  facet normal 0 0 1
    outer loop
      vertex 8.94214 16.1421 -11
      vertex 8.72881 15.9288 -11
      vertex 7.75462 0.529646 -11
    endloop
  endfacet
  facet normal 0 0 1
    outer loop
      vertex 8.53949 15.7395 -11
      vertex 0.542136 7.74214 -11
      vertex 7.75462 0.529646 -11
    endloop
  endfacet
  facet normal 0 0 1
    outer loop
      vertex 8.58226 15.7912 -11
      vertex 8.53949 15.7395 -11
      vertex 7.75462 0.529646 -11
    endloop
  endfacet
  facet normal 0 0 1
    outer loop
      vertex 10.55 12.3 -11
      vertex 10.5882 12.6638 -11
      vertex 7.75462 0.529646 -11
    endloop
  endfacet
  facet normal 0 0 1
    outer loop
      vertex 10.7013 13.0118 -11
      vertex 10.8842 13.3286 -11
      vertex 11.9798 17.3899 -11
    endloop
  endfacet
  facet normal 0 0 1
    outer loop
      vertex 11.9798 17.3899 -11
      vertex 11.3444 17.3097 -11
      vertex 10.7013 13.0118 -11
    endloop
  endfacet
  facet normal 0 0 1
    outer loop
      vertex 10.5882 12.6638 -11
      vertex 10.7013 13.0118 -11
      vertex 11.3444 17.3097 -11
    endloop
  endfacet
  facet normal 0 0 1
    outer loop
      vertex 12.6202 17.3899 -11
      vertex 11.9798 17.3899 -11
      vertex 11.129 13.6005 -11
    endloop
  endfacet
  facet normal 0 0 1
    outer loop
      vertex 12.4829 14.0404 -11
      vertex 12.8408 13.9643 -11
      vertex 13.876 17.1504 -11
    endloop
  endfacet
  facet normal 0 0 1
    outer loop
      vertex 12.6202 17.3899 -11
      vertex 11.129 13.6005 -11
      vertex 11.425 13.8155 -11
    endloop
  endfacet
  facet normal 0 0 1
    outer loop
      vertex 10.8842 11.2714 -11
      vertex 10.7013 11.5882 -11
      vertex 7.75462 0.529646 -11
    endloop
  endfacet
  facet normal 0 0 1
    outer loop
      vertex 13.2556 17.3097 -11
      vertex 12.6202 17.3899 -11
      vertex 11.7592 13.9643 -11
    endloop
  endfacet
  facet normal 0 0 1
    outer loop
      vertex 13.2556 17.3097 -11
      vertex 11.7592 13.9643 -11
      vertex 12.1171 14.0404 -11
    endloop
  endfacet
  facet normal 0 0 1
    outer loop
      vertex 13.876 17.1504 -11
      vertex 13.2556 17.3097 -11
      vertex 12.4829 14.0404 -11
    endloop
  endfacet
  facet normal 0 0 1
    outer loop
      vertex 14.4715 16.9146 -11
      vertex 13.876 17.1504 -11
      vertex 12.8408 13.9643 -11
    endloop
  endfacet
  facet normal 0 0 1
    outer loop
      vertex 13.8987 13.0118 -11
      vertex 14.0118 12.6638 -11
      vertex 15.5509 16.2296 -11
    endloop
  endfacet
  facet normal 0 0 1
    outer loop
      vertex 14.4715 16.9146 -11
      vertex 12.8408 13.9643 -11
      vertex 13.175 13.8155 -11
    endloop
  endfacet
  facet normal 0 0 1
    outer loop
      vertex 15.0327 16.6061 -11
      vertex 14.4715 16.9146 -11
      vertex 13.471 13.6005 -11
    endloop
  endfacet
  facet normal 0 0 1
    outer loop
      vertex 11.425 10.7845 -11
      vertex 11.129 10.9995 -11
      vertex 7.75462 0.529646 -11
    endloop
  endfacet
  facet normal 0 0 1
    outer loop
      vertex 15.5509 16.2296 -11
      vertex 15.0327 16.6061 -11
      vertex 13.7158 13.3286 -11
    endloop
  endfacet
  facet normal 0 0 1
    outer loop
      vertex 14.05 12.3 -11
      vertex 14.0118 11.9362 -11
      vertex 16.0177 15.7912 -11
    endloop
  endfacet
  facet normal 0 0 1
    outer loop
      vertex 15.5509 16.2296 -11
      vertex 13.7158 13.3286 -11
      vertex 13.8987 13.0118 -11
    endloop
  endfacet
  facet normal 0 0 1
    outer loop
      vertex 12.8408 10.6357 -11
      vertex 12.4829 10.5596 -11
      vertex 7.75462 0.529646 -11
    endloop
  endfacet
  facet normal 0 0 1
    outer loop
      vertex 16.0177 15.7912 -11
      vertex 15.5509 16.2296 -11
      vertex 14.0118 12.6638 -11
    endloop
  endfacet
  facet normal 0 0 1
    outer loop
      vertex 12.4829 10.5596 -11
      vertex 12.1171 10.5596 -11
      vertex 7.75462 0.529646 -11
    endloop
  endfacet
  facet normal 0 0 1
    outer loop
      vertex 16.0177 15.7912 -11
      vertex 14.0118 12.6638 -11
      vertex 14.05 12.3 -11
    endloop
  endfacet
  facet normal 0 0 1
    outer loop
      vertex 13.471 10.9995 -11
      vertex 13.175 10.7845 -11
      vertex 7.75462 0.529646 -11
    endloop
  endfacet
  facet normal 0 0 1
    outer loop
      vertex 16.426 15.2977 -11
      vertex 16.0177 15.7912 -11
      vertex 14.0118 11.9362 -11
    endloop
  endfacet
  facet normal 0 0 1
    outer loop
      vertex 16.426 15.2977 -11
      vertex 13.8987 11.5882 -11
      vertex 7.75462 0.529646 -11
    endloop
  endfacet
  facet normal 0 0 1
    outer loop
      vertex 16.426 15.2977 -11
      vertex 14.0118 11.9362 -11
      vertex 13.8987 11.5882 -11
    endloop
  endfacet
  facet normal 0 0 1
    outer loop
      vertex 13.8987 11.5882 -11
      vertex 13.7158 11.2714 -11
      vertex 7.75462 0.529646 -11
    endloop
  endfacet
  facet normal 0 0 1
    outer loop
      vertex 13.175 10.7845 -11
      vertex 12.8408 10.6357 -11
      vertex 7.75462 0.529646 -11
    endloop
  endfacet
  facet normal 0 0 1
    outer loop
      vertex 12.1171 10.5596 -11
      vertex 11.7592 10.6357 -11
      vertex 7.75462 0.529646 -11
    endloop
  endfacet
  facet normal 0 0 1
    outer loop
      vertex 13.175 13.8155 -11
      vertex 13.471 13.6005 -11
      vertex 14.4715 16.9146 -11
    endloop
  endfacet
  facet normal 0 0 1
    outer loop
      vertex 11.129 10.9995 -11
      vertex 10.8842 11.2714 -11
      vertex 7.75462 0.529646 -11
    endloop
  endfacet
  facet normal 0 0 1
    outer loop
      vertex 11.425 13.8155 -11
      vertex 11.7592 13.9643 -11
      vertex 12.6202 17.3899 -11
    endloop
  endfacet
  facet normal 0 0 1
    outer loop
      vertex 10.5882 11.9362 -11
      vertex 10.55 12.3 -11
      vertex 7.75462 0.529646 -11
    endloop
  endfacet
  facet normal 0 0 1
    outer loop
      vertex 10.8842 13.3286 -11
      vertex 11.129 13.6005 -11
      vertex 11.9798 17.3899 -11
    endloop
  endfacet
  facet normal -0.707107 0.707107 0
    outer loop
      vertex 16.1546 8.92965 -5
      vertex 16.1546 8.92965 -11
      vertex 7.75462 0.529646 -5
    endloop
  endfacet
  facet normal -0.707107 0.707107 0
    outer loop
      vertex 7.75462 0.529646 -5
      vertex 16.1546 8.92965 -11
      vertex 7.75462 0.529646 -11
    endloop
  endfacet
  facet normal 1 0 0
    outer loop
      vertex 20 0 -5
      vertex 20 0 -15
      vertex 20 15 -15
    endloop
  endfacet
  facet normal 1 0 0
    outer loop
      vertex 20 15 -5
      vertex 20 0 -5
      vertex 20 15 -15
    endloop
  endfacet
  facet normal 0.707107 0.707107 0
    outer loop
      vertex 20 15 -5
      vertex 20 15 -15
      vertex 15 20 -5
    endloop
  endfacet
  facet normal 0.707107 0.707107 0
    outer loop
      vertex 15 20 -5
      vertex 20 15 -15
      vertex 15 20 -15
    endloop
  endfacet
  facet normal 0.866025 -0.5 0
    outer loop
      vertex 10.55 15.3311 -15
      vertex 10.55 15.3311 -13
      vertex 8.8 12.3 -13
    endloop
  endfacet
  facet normal 0.866025 -0.5 0
    outer loop
      vertex 8.8 12.3 -15
      vertex 10.55 15.3311 -15
      vertex 8.8 12.3 -13
    endloop
  endfacet
  facet normal 0.866025 0.5 0
    outer loop
      vertex 8.8 12.3 -13
      vertex 10.55 9.26891 -13
      vertex 10.55 9.26891 -15
    endloop
  endfacet
  facet normal 0.866025 0.5 0
    outer loop
      vertex 8.8 12.3 -15
      vertex 8.8 12.3 -13
      vertex 10.55 9.26891 -15
    endloop
  endfacet
  facet normal 0 -1 0
    outer loop
      vertex 14.05 15.3311 -15
      vertex 14.05 15.3311 -13
      vertex 10.55 15.3311 -13
    endloop
  endfacet
  facet normal 0 -1 0
    outer loop
      vertex 10.55 15.3311 -15
      vertex 14.05 15.3311 -15
      vertex 10.55 15.3311 -13
    endloop
  endfacet
  facet normal -0.866025 -0.5 0
    outer loop
      vertex 15.8 12.3 -13
      vertex 14.05 15.3311 -13
      vertex 15.8 12.3 -15
    endloop
  endfacet
  facet normal -0.866025 -0.5 0
    outer loop
      vertex 15.8 12.3 -15
      vertex 14.05 15.3311 -13
      vertex 14.05 15.3311 -15
    endloop
  endfacet
  facet normal -0.866025 0.5 0
    outer loop
      vertex 15.8 12.3 -13
      vertex 15.8 12.3 -15
      vertex 14.05 9.26891 -13
    endloop
  endfacet
  facet normal -0.866025 0.5 0
    outer loop
      vertex 14.05 9.26891 -13
      vertex 15.8 12.3 -15
      vertex 14.05 9.26891 -15
    endloop
  endfacet
  facet normal 0 1 0
    outer loop
      vertex 14.05 9.26891 -13
      vertex 14.05 9.26891 -15
      vertex 10.55 9.26891 -13
    endloop
  endfacet
  facet normal 0 1 0
    outer loop
      vertex 10.55 9.26891 -13
      vertex 14.05 9.26891 -15
      vertex 10.55 9.26891 -15
    endloop
  endfacet
  facet normal -0.707107 -0.707107 0
    outer loop
      vertex 16.1546 8.92965 -11
      vertex 16.1546 8.92965 -5
      vertex 16.1344 8.94985 -5
    endloop
  endfacet
  facet normal -0.707107 -0.707107 0
    outer loop
      vertex 16.1344 8.94985 -11
      vertex 16.1546 8.92965 -11
      vertex 16.1344 8.94985 -5
    endloop
  endfacet
  facet normal -0.770513 0.637425 0
    outer loop
      vertex 16.426 9.3023 -5
      vertex 16.426 9.3023 -11
      vertex 16.1344 8.94985 -5
    endloop
  endfacet
  facet normal -0.770513 0.637425 0
    outer loop
      vertex 16.1344 8.94985 -5
      vertex 16.426 9.3023 -11
      vertex 16.1344 8.94985 -11
    endloop
  endfacet
  facet normal -0.844328 0.535826 0
    outer loop
      vertex 16.7692 9.84306 -5
      vertex 16.7692 9.84306 -11
      vertex 16.426 9.3023 -5
    endloop
  endfacet
  facet normal -0.844328 0.535826 0
    outer loop
      vertex 16.426 9.3023 -5
      vertex 16.7692 9.84306 -11
      vertex 16.426 9.3023 -11
    endloop
  endfacet
  facet normal -0.904827 0.425779 0
    outer loop
      vertex 17.0419 10.4226 -5
      vertex 17.0419 10.4226 -11
      vertex 16.7692 9.84306 -5
    endloop
  endfacet
  facet normal -0.904827 0.425779 0
    outer loop
      vertex 16.7692 9.84306 -5
      vertex 17.0419 10.4226 -11
      vertex 16.7692 9.84306 -11
    endloop
  endfacet
  facet normal -0.951057 0.309017 0
    outer loop
      vertex 17.2398 11.0317 -5
      vertex 17.2398 11.0317 -11
      vertex 17.0419 10.4226 -5
    endloop
  endfacet
  facet normal -0.951057 0.309017 0
    outer loop
      vertex 17.0419 10.4226 -5
      vertex 17.2398 11.0317 -11
      vertex 17.0419 10.4226 -11
    endloop
  endfacet
  facet normal -0.982287 0.187382 0
    outer loop
      vertex 17.3598 11.6608 -5
      vertex 17.3598 11.6608 -11
      vertex 17.2398 11.0317 -5
    endloop
  endfacet
  facet normal -0.982287 0.187382 0
    outer loop
      vertex 17.2398 11.0317 -5
      vertex 17.3598 11.6608 -11
      vertex 17.2398 11.0317 -11
    endloop
  endfacet
  facet normal -0.998027 0.0627905 0
    outer loop
      vertex 17.4 12.3 -5
      vertex 17.4 12.3 -11
      vertex 17.3598 11.6608 -5
    endloop
  endfacet
  facet normal -0.998027 0.0627905 0
    outer loop
      vertex 17.3598 11.6608 -5
      vertex 17.4 12.3 -11
      vertex 17.3598 11.6608 -11
    endloop
  endfacet
  facet normal -0.998027 -0.0627905 0
    outer loop
      vertex 17.4 12.3 -5
      vertex 17.3598 12.9392 -5
      vertex 17.4 12.3 -11
    endloop
  endfacet
  facet normal -0.998027 -0.0627905 0
    outer loop
      vertex 17.4 12.3 -11
      vertex 17.3598 12.9392 -5
      vertex 17.3598 12.9392 -11
    endloop
  endfacet
  facet normal -0.982287 -0.187382 0
    outer loop
      vertex 17.3598 12.9392 -5
      vertex 17.2398 13.5683 -5
      vertex 17.3598 12.9392 -11
    endloop
  endfacet
  facet normal -0.982287 -0.187382 0
    outer loop
      vertex 17.3598 12.9392 -11
      vertex 17.2398 13.5683 -5
      vertex 17.2398 13.5683 -11
    endloop
  endfacet
  facet normal -0.951057 -0.309017 0
    outer loop
      vertex 17.2398 13.5683 -5
      vertex 17.0419 14.1774 -5
      vertex 17.2398 13.5683 -11
    endloop
  endfacet
  facet normal -0.951057 -0.309017 0
    outer loop
      vertex 17.2398 13.5683 -11
      vertex 17.0419 14.1774 -5
      vertex 17.0419 14.1774 -11
    endloop
  endfacet
  facet normal -0.904827 -0.425779 0
    outer loop
      vertex 17.0419 14.1774 -5
      vertex 16.7692 14.7569 -5
      vertex 17.0419 14.1774 -11
    endloop
  endfacet
  facet normal -0.904827 -0.425779 0
    outer loop
      vertex 17.0419 14.1774 -11
      vertex 16.7692 14.7569 -5
      vertex 16.7692 14.7569 -11
    endloop
  endfacet
  facet normal -0.844328 -0.535826 0
    outer loop
      vertex 16.7692 14.7569 -5
      vertex 16.426 15.2977 -5
      vertex 16.7692 14.7569 -11
    endloop
  endfacet
  facet normal -0.844328 -0.535826 0
    outer loop
      vertex 16.7692 14.7569 -11
      vertex 16.426 15.2977 -5
      vertex 16.426 15.2977 -11
    endloop
  endfacet
  facet normal -0.770513 -0.637425 0
    outer loop
      vertex 16.426 15.2977 -5
      vertex 16.0177 15.7912 -5
      vertex 16.426 15.2977 -11
    endloop
  endfacet
  facet normal -0.770513 -0.637425 0
    outer loop
      vertex 16.426 15.2977 -11
      vertex 16.0177 15.7912 -5
      vertex 16.0177 15.7912 -11
    endloop
  endfacet
  facet normal -0.684547 -0.728968 0
    outer loop
      vertex 16.0177 15.7912 -11
      vertex 16.0177 15.7912 -5
      vertex 15.5509 16.2296 -5
    endloop
  endfacet
  facet normal -0.684547 -0.728968 0
    outer loop
      vertex 15.5509 16.2296 -11
      vertex 16.0177 15.7912 -11
      vertex 15.5509 16.2296 -5
    endloop
  endfacet
  facet normal -0.587785 -0.809017 0
    outer loop
      vertex 15.5509 16.2296 -11
      vertex 15.5509 16.2296 -5
      vertex 15.0327 16.6061 -5
    endloop
  endfacet
  facet normal -0.587785 -0.809017 0
    outer loop
      vertex 15.0327 16.6061 -11
      vertex 15.5509 16.2296 -11
      vertex 15.0327 16.6061 -5
    endloop
  endfacet
  facet normal -0.481754 -0.876307 0
    outer loop
      vertex 15.0327 16.6061 -11
      vertex 15.0327 16.6061 -5
      vertex 14.4715 16.9146 -5
    endloop
  endfacet
  facet normal -0.481754 -0.876307 0
    outer loop
      vertex 14.4715 16.9146 -11
      vertex 15.0327 16.6061 -11
      vertex 14.4715 16.9146 -5
    endloop
  endfacet
  facet normal -0.368125 -0.929776 0
    outer loop
      vertex 14.4715 16.9146 -11
      vertex 14.4715 16.9146 -5
      vertex 13.876 17.1504 -5
    endloop
  endfacet
  facet normal -0.368125 -0.929776 0
    outer loop
      vertex 13.876 17.1504 -11
      vertex 14.4715 16.9146 -11
      vertex 13.876 17.1504 -5
    endloop
  endfacet
  facet normal -0.24869 -0.968583 0
    outer loop
      vertex 13.876 17.1504 -11
      vertex 13.876 17.1504 -5
      vertex 13.2556 17.3097 -5
    endloop
  endfacet
  facet normal -0.24869 -0.968583 0
    outer loop
      vertex 13.2556 17.3097 -11
      vertex 13.876 17.1504 -11
      vertex 13.2556 17.3097 -5
    endloop
  endfacet
  facet normal -0.125333 -0.992115 0
    outer loop
      vertex 13.2556 17.3097 -11
      vertex 13.2556 17.3097 -5
      vertex 12.6202 17.3899 -5
    endloop
  endfacet
  facet normal -0.125333 -0.992115 0
    outer loop
      vertex 12.6202 17.3899 -11
      vertex 13.2556 17.3097 -11
      vertex 12.6202 17.3899 -5
    endloop
  endfacet
  facet normal 0 -1 0
    outer loop
      vertex 12.6202 17.3899 -11
      vertex 12.6202 17.3899 -5
      vertex 11.9798 17.3899 -5
    endloop
  endfacet
  facet normal 0 -1 0
    outer loop
      vertex 11.9798 17.3899 -11
      vertex 12.6202 17.3899 -11
      vertex 11.9798 17.3899 -5
    endloop
  endfacet
  facet normal 0.125333 -0.992115 0
    outer loop
      vertex 11.9798 17.3899 -11
      vertex 11.9798 17.3899 -5
      vertex 11.3444 17.3097 -5
    endloop
  endfacet
  facet normal 0.125333 -0.992115 0
    outer loop
      vertex 11.3444 17.3097 -11
      vertex 11.9798 17.3899 -11
      vertex 11.3444 17.3097 -5
    endloop
  endfacet
  facet normal 0.24869 -0.968583 0
    outer loop
      vertex 11.3444 17.3097 -11
      vertex 11.3444 17.3097 -5
      vertex 10.724 17.1504 -5
    endloop
  endfacet
  facet normal 0.24869 -0.968583 0
    outer loop
      vertex 10.724 17.1504 -11
      vertex 11.3444 17.3097 -11
      vertex 10.724 17.1504 -5
    endloop
  endfacet
  facet normal 0.368125 -0.929776 0
    outer loop
      vertex 10.724 17.1504 -11
      vertex 10.724 17.1504 -5
      vertex 10.1285 16.9146 -5
    endloop
  endfacet
  facet normal 0.368125 -0.929776 0
    outer loop
      vertex 10.1285 16.9146 -11
      vertex 10.724 17.1504 -11
      vertex 10.1285 16.9146 -5
    endloop
  endfacet
  facet normal 0.481754 -0.876307 0
    outer loop
      vertex 10.1285 16.9146 -11
      vertex 10.1285 16.9146 -5
      vertex 9.56728 16.6061 -5
    endloop
  endfacet
  facet normal 0.481754 -0.876307 0
    outer loop
      vertex 9.56728 16.6061 -11
      vertex 10.1285 16.9146 -11
      vertex 9.56728 16.6061 -5
    endloop
  endfacet
  facet normal 0.587785 -0.809017 0
    outer loop
      vertex 9.56728 16.6061 -11
      vertex 9.56728 16.6061 -5
      vertex 9.04914 16.2296 -5
    endloop
  endfacet
  facet normal 0.587785 -0.809017 0
    outer loop
      vertex 9.04914 16.2296 -11
      vertex 9.56728 16.6061 -11
      vertex 9.04914 16.2296 -5
    endloop
  endfacet
  facet normal 0.684547 -0.728968 0
    outer loop
      vertex 9.04914 16.2296 -11
      vertex 9.04914 16.2296 -5
      vertex 8.94884 16.1354 -5
    endloop
  endfacet
  facet normal 0.684547 -0.728968 0
    outer loop
      vertex 8.94884 16.1354 -11
      vertex 9.04914 16.2296 -11
      vertex 8.94884 16.1354 -5
    endloop
  endfacet
  facet normal -0.707107 -0.707107 0
    outer loop
      vertex 8.94884 16.1354 -11
      vertex 8.94884 16.1354 -5
      vertex 8.94214 16.1421 -5
    endloop
  endfacet
  facet normal -0.707107 -0.707107 0
    outer loop
      vertex 8.94214 16.1421 -11
      vertex 8.94884 16.1354 -11
      vertex 8.94214 16.1421 -5
    endloop
  endfacet
  facet normal 0.707107 -0.707107 0
    outer loop
      vertex 8.94214 16.1421 -11
      vertex 8.94214 16.1421 -5
      vertex 8.72881 15.9288 -5
    endloop
  endfacet
  facet normal 0.707107 -0.707107 0
    outer loop
      vertex 8.72881 15.9288 -11
      vertex 8.94214 16.1421 -11
      vertex 8.72881 15.9288 -5
    endloop
  endfacet
  facet normal 0.684547 -0.728968 0
    outer loop
      vertex 8.72881 15.9288 -11
      vertex 8.72881 15.9288 -5
      vertex 8.58226 15.7912 -5
    endloop
  endfacet
  facet normal 0.684547 -0.728968 0
    outer loop
      vertex 8.58226 15.7912 -11
      vertex 8.72881 15.9288 -11
      vertex 8.58226 15.7912 -5
    endloop
  endfacet
  facet normal 0.770513 -0.637425 0
    outer loop
      vertex 8.58226 15.7912 -11
      vertex 8.58226 15.7912 -5
      vertex 8.53949 15.7395 -5
    endloop
  endfacet
  facet normal 0.770513 -0.637425 0
    outer loop
      vertex 8.53949 15.7395 -11
      vertex 8.58226 15.7912 -11
      vertex 8.53949 15.7395 -5
    endloop
  endfacet
  facet normal 0.994522 -0.104529 0
    outer loop
      vertex 10.5882 12.6638 -13
      vertex 10.5882 12.6638 -11
      vertex 10.55 12.3 -11
    endloop
  endfacet
  facet normal 0.994522 -0.104529 0
    outer loop
      vertex 10.55 12.3 -13
      vertex 10.5882 12.6638 -13
      vertex 10.55 12.3 -11
    endloop
  endfacet
  facet normal 0.994522 0.104529 0
    outer loop
      vertex 10.55 12.3 -11
      vertex 10.5882 11.9362 -11
      vertex 10.5882 11.9362 -13
    endloop
  endfacet
  facet normal 0.994522 0.104529 0
    outer loop
      vertex 10.55 12.3 -13
      vertex 10.55 12.3 -11
      vertex 10.5882 11.9362 -13
    endloop
  endfacet
  facet normal 0.951057 0.309015 0
    outer loop
      vertex 10.5882 11.9362 -11
      vertex 10.7013 11.5882 -11
      vertex 10.7013 11.5882 -13
    endloop
  endfacet
  facet normal 0.951057 0.309015 0
    outer loop
      vertex 10.5882 11.9362 -13
      vertex 10.5882 11.9362 -11
      vertex 10.7013 11.5882 -13
    endloop
  endfacet
  facet normal 0.866025 0.5 0
    outer loop
      vertex 10.7013 11.5882 -11
      vertex 10.8842 11.2714 -11
      vertex 10.8842 11.2714 -13
    endloop
  endfacet
  facet normal 0.866025 0.5 0
    outer loop
      vertex 10.7013 11.5882 -13
      vertex 10.7013 11.5882 -11
      vertex 10.8842 11.2714 -13
    endloop
  endfacet
  facet normal 0.743145 0.669131 0
    outer loop
      vertex 10.8842 11.2714 -11
      vertex 11.129 10.9995 -11
      vertex 11.129 10.9995 -13
    endloop
  endfacet
  facet normal 0.743145 0.669131 0
    outer loop
      vertex 10.8842 11.2714 -13
      vertex 10.8842 11.2714 -11
      vertex 11.129 10.9995 -13
    endloop
  endfacet
  facet normal 0.587785 0.809017 0
    outer loop
      vertex 11.425 10.7845 -11
      vertex 11.425 10.7845 -13
      vertex 11.129 10.9995 -11
    endloop
  endfacet
  facet normal 0.587785 0.809017 0
    outer loop
      vertex 11.129 10.9995 -11
      vertex 11.425 10.7845 -13
      vertex 11.129 10.9995 -13
    endloop
  endfacet
  facet normal 0.406738 0.913545 0
    outer loop
      vertex 11.7592 10.6357 -11
      vertex 11.7592 10.6357 -13
      vertex 11.425 10.7845 -11
    endloop
  endfacet
  facet normal 0.406738 0.913545 0
    outer loop
      vertex 11.425 10.7845 -11
      vertex 11.7592 10.6357 -13
      vertex 11.425 10.7845 -13
    endloop
  endfacet
  facet normal 0.207911 0.978148 0
    outer loop
      vertex 12.1171 10.5596 -11
      vertex 12.1171 10.5596 -13
      vertex 11.7592 10.6357 -11
    endloop
  endfacet
  facet normal 0.207911 0.978148 0
    outer loop
      vertex 11.7592 10.6357 -11
      vertex 12.1171 10.5596 -13
      vertex 11.7592 10.6357 -13
    endloop
  endfacet
  facet normal 0 1 0
    outer loop
      vertex 12.4829 10.5596 -11
      vertex 12.4829 10.5596 -13
      vertex 12.1171 10.5596 -11
    endloop
  endfacet
  facet normal 0 1 0
    outer loop
      vertex 12.1171 10.5596 -11
      vertex 12.4829 10.5596 -13
      vertex 12.1171 10.5596 -13
    endloop
  endfacet
  facet normal -0.207911 0.978148 0
    outer loop
      vertex 12.8408 10.6357 -11
      vertex 12.8408 10.6357 -13
      vertex 12.4829 10.5596 -11
    endloop
  endfacet
  facet normal -0.207911 0.978148 0
    outer loop
      vertex 12.4829 10.5596 -11
      vertex 12.8408 10.6357 -13
      vertex 12.4829 10.5596 -13
    endloop
  endfacet
  facet normal -0.406738 0.913545 0
    outer loop
      vertex 13.175 10.7845 -11
      vertex 13.175 10.7845 -13
      vertex 12.8408 10.6357 -11
    endloop
  endfacet
  facet normal -0.406738 0.913545 0
    outer loop
      vertex 12.8408 10.6357 -11
      vertex 13.175 10.7845 -13
      vertex 12.8408 10.6357 -13
    endloop
  endfacet
  facet normal -0.587785 0.809017 0
    outer loop
      vertex 13.471 10.9995 -11
      vertex 13.471 10.9995 -13
      vertex 13.175 10.7845 -11
    endloop
  endfacet
  facet normal -0.587785 0.809017 0
    outer loop
      vertex 13.175 10.7845 -11
      vertex 13.471 10.9995 -13
      vertex 13.175 10.7845 -13
    endloop
  endfacet
  facet normal -0.743145 0.669131 0
    outer loop
      vertex 13.7158 11.2714 -11
      vertex 13.7158 11.2714 -13
      vertex 13.471 10.9995 -11
    endloop
  endfacet
  facet normal -0.743145 0.669131 0
    outer loop
      vertex 13.471 10.9995 -11
      vertex 13.7158 11.2714 -13
      vertex 13.471 10.9995 -13
    endloop
  endfacet
  facet normal -0.866025 0.5 0
    outer loop
      vertex 13.8987 11.5882 -11
      vertex 13.8987 11.5882 -13
      vertex 13.7158 11.2714 -11
    endloop
  endfacet
  facet normal -0.866025 0.5 0
    outer loop
      vertex 13.7158 11.2714 -11
      vertex 13.8987 11.5882 -13
      vertex 13.7158 11.2714 -13
    endloop
  endfacet
  facet normal -0.951057 0.309015 0
    outer loop
      vertex 14.0118 11.9362 -11
      vertex 14.0118 11.9362 -13
      vertex 13.8987 11.5882 -11
    endloop
  endfacet
  facet normal -0.951057 0.309015 0
    outer loop
      vertex 13.8987 11.5882 -11
      vertex 14.0118 11.9362 -13
      vertex 13.8987 11.5882 -13
    endloop
  endfacet
  facet normal -0.994522 0.104529 0
    outer loop
      vertex 14.05 12.3 -11
      vertex 14.05 12.3 -13
      vertex 14.0118 11.9362 -11
    endloop
  endfacet
  facet normal -0.994522 0.104529 0
    outer loop
      vertex 14.0118 11.9362 -11
      vertex 14.05 12.3 -13
      vertex 14.0118 11.9362 -13
    endloop
  endfacet
  facet normal -0.994522 -0.104529 0
    outer loop
      vertex 14.05 12.3 -11
      vertex 14.0118 12.6638 -11
      vertex 14.05 12.3 -13
    endloop
  endfacet
  facet normal -0.994522 -0.104529 0
    outer loop
      vertex 14.05 12.3 -13
      vertex 14.0118 12.6638 -11
      vertex 14.0118 12.6638 -13
    endloop
  endfacet
  facet normal -0.951057 -0.309015 0
    outer loop
      vertex 14.0118 12.6638 -11
      vertex 13.8987 13.0118 -11
      vertex 14.0118 12.6638 -13
    endloop
  endfacet
  facet normal -0.951057 -0.309015 0
    outer loop
      vertex 14.0118 12.6638 -13
      vertex 13.8987 13.0118 -11
      vertex 13.8987 13.0118 -13
    endloop
  endfacet
  facet normal -0.866025 -0.5 0
    outer loop
      vertex 13.8987 13.0118 -11
      vertex 13.7158 13.3286 -11
      vertex 13.8987 13.0118 -13
    endloop
  endfacet
  facet normal -0.866025 -0.5 0
    outer loop
      vertex 13.8987 13.0118 -13
      vertex 13.7158 13.3286 -11
      vertex 13.7158 13.3286 -13
    endloop
  endfacet
  facet normal -0.743145 -0.669131 0
    outer loop
      vertex 13.7158 13.3286 -11
      vertex 13.471 13.6005 -11
      vertex 13.7158 13.3286 -13
    endloop
  endfacet
  facet normal -0.743145 -0.669131 0
    outer loop
      vertex 13.7158 13.3286 -13
      vertex 13.471 13.6005 -11
      vertex 13.471 13.6005 -13
    endloop
  endfacet
  facet normal -0.587785 -0.809017 0
    outer loop
      vertex 13.471 13.6005 -13
      vertex 13.471 13.6005 -11
      vertex 13.175 13.8155 -11
    endloop
  endfacet
  facet normal -0.587785 -0.809017 0
    outer loop
      vertex 13.175 13.8155 -13
      vertex 13.471 13.6005 -13
      vertex 13.175 13.8155 -11
    endloop
  endfacet
  facet normal -0.406738 -0.913545 0
    outer loop
      vertex 13.175 13.8155 -13
      vertex 13.175 13.8155 -11
      vertex 12.8408 13.9643 -11
    endloop
  endfacet
  facet normal -0.406738 -0.913545 0
    outer loop
      vertex 12.8408 13.9643 -13
      vertex 13.175 13.8155 -13
      vertex 12.8408 13.9643 -11
    endloop
  endfacet
  facet normal -0.207911 -0.978148 0
    outer loop
      vertex 12.8408 13.9643 -13
      vertex 12.8408 13.9643 -11
      vertex 12.4829 14.0404 -11
    endloop
  endfacet
  facet normal -0.207911 -0.978148 0
    outer loop
      vertex 12.4829 14.0404 -13
      vertex 12.8408 13.9643 -13
      vertex 12.4829 14.0404 -11
    endloop
  endfacet
  facet normal 0 -1 0
    outer loop
      vertex 12.4829 14.0404 -13
      vertex 12.4829 14.0404 -11
      vertex 12.1171 14.0404 -11
    endloop
  endfacet
  facet normal 0 -1 0
    outer loop
      vertex 12.1171 14.0404 -13
      vertex 12.4829 14.0404 -13
      vertex 12.1171 14.0404 -11
    endloop
  endfacet
  facet normal 0.207911 -0.978148 0
    outer loop
      vertex 12.1171 14.0404 -13
      vertex 12.1171 14.0404 -11
      vertex 11.7592 13.9643 -11
    endloop
  endfacet
  facet normal 0.207911 -0.978148 0
    outer loop
      vertex 11.7592 13.9643 -13
      vertex 12.1171 14.0404 -13
      vertex 11.7592 13.9643 -11
    endloop
  endfacet
  facet normal 0.406738 -0.913545 0
    outer loop
      vertex 11.7592 13.9643 -13
      vertex 11.7592 13.9643 -11
      vertex 11.425 13.8155 -11
    endloop
  endfacet
  facet normal 0.406738 -0.913545 0
    outer loop
      vertex 11.425 13.8155 -13
      vertex 11.7592 13.9643 -13
      vertex 11.425 13.8155 -11
    endloop
  endfacet
  facet normal 0.587785 -0.809017 0
    outer loop
      vertex 11.425 13.8155 -13
      vertex 11.425 13.8155 -11
      vertex 11.129 13.6005 -11
    endloop
  endfacet
  facet normal 0.587785 -0.809017 0
    outer loop
      vertex 11.129 13.6005 -13
      vertex 11.425 13.8155 -13
      vertex 11.129 13.6005 -11
    endloop
  endfacet
  facet normal 0.743145 -0.669131 0
    outer loop
      vertex 11.129 13.6005 -13
      vertex 11.129 13.6005 -11
      vertex 10.8842 13.3286 -11
    endloop
  endfacet
  facet normal 0.743145 -0.669131 0
    outer loop
      vertex 10.8842 13.3286 -13
      vertex 11.129 13.6005 -13
      vertex 10.8842 13.3286 -11
    endloop
  endfacet
  facet normal 0.866025 -0.5 0
    outer loop
      vertex 10.8842 13.3286 -13
      vertex 10.8842 13.3286 -11
      vertex 10.7013 13.0118 -11
    endloop
  endfacet
  facet normal 0.866025 -0.5 0
    outer loop
      vertex 10.7013 13.0118 -13
      vertex 10.8842 13.3286 -13
      vertex 10.7013 13.0118 -11
    endloop
  endfacet
  facet normal 0.951057 -0.309015 0
    outer loop
      vertex 10.7013 13.0118 -13
      vertex 10.7013 13.0118 -11
      vertex 10.5882 12.6638 -11
    endloop
  endfacet
  facet normal 0.951057 -0.309015 0
    outer loop
      vertex 10.5882 12.6638 -13
      vertex 10.7013 13.0118 -13
      vertex 10.5882 12.6638 -11
    endloop
  endfacet
  facet normal 0 0 -1
    outer loop
      vertex 14.05 15.3311 -13
      vertex 15.8 12.3 -13
      vertex 10.55 15.3311 -13
    endloop
  endfacet
  facet normal 0 0 -1
    outer loop
      vertex 13.175 10.7845 -13
      vertex 15.8 12.3 -13
      vertex 14.05 9.26891 -13
    endloop
  endfacet
  facet normal 0 0 -1
    outer loop
      vertex 11.425 10.7845 -13
      vertex 14.05 9.26891 -13
      vertex 10.55 9.26891 -13
    endloop
  endfacet
  facet normal 0 0 -1
    outer loop
      vertex 10.55 12.3 -13
      vertex 10.55 9.26891 -13
      vertex 8.8 12.3 -13
    endloop
  endfacet
  facet normal 0 0 -1
    outer loop
      vertex 13.175 10.7845 -13
      vertex 14.05 9.26891 -13
      vertex 12.8408 10.6357 -13
    endloop
  endfacet
  facet normal 0 0 -1
    outer loop
      vertex 11.129 13.6005 -13
      vertex 10.55 15.3311 -13
      vertex 11.425 13.8155 -13
    endloop
  endfacet
  facet normal 0 0 -1
    outer loop
      vertex 10.5882 11.9362 -13
      vertex 10.7013 11.5882 -13
      vertex 10.55 9.26891 -13
    endloop
  endfacet
  facet normal 0 0 -1
    outer loop
      vertex 12.4829 10.5596 -13
      vertex 14.05 9.26891 -13
      vertex 12.1171 10.5596 -13
    endloop
  endfacet
  facet normal 0 0 -1
    outer loop
      vertex 10.7013 11.5882 -13
      vertex 10.8842 11.2714 -13
      vertex 10.55 9.26891 -13
    endloop
  endfacet
  facet normal 0 0 -1
    outer loop
      vertex 12.1171 10.5596 -13
      vertex 14.05 9.26891 -13
      vertex 11.7592 10.6357 -13
    endloop
  endfacet
  facet normal 0 0 -1
    outer loop
      vertex 10.8842 11.2714 -13
      vertex 11.129 10.9995 -13
      vertex 10.55 9.26891 -13
    endloop
  endfacet
  facet normal 0 0 -1
    outer loop
      vertex 11.129 10.9995 -13
      vertex 11.425 10.7845 -13
      vertex 10.55 9.26891 -13
    endloop
  endfacet
  facet normal 0 0 -1
    outer loop
      vertex 12.8408 10.6357 -13
      vertex 14.05 9.26891 -13
      vertex 12.4829 10.5596 -13
    endloop
  endfacet
  facet normal 0 0 -1
    outer loop
      vertex 13.471 10.9995 -13
      vertex 15.8 12.3 -13
      vertex 13.175 10.7845 -13
    endloop
  endfacet
  facet normal 0 0 -1
    outer loop
      vertex 12.8408 13.9643 -13
      vertex 10.55 15.3311 -13
      vertex 13.175 13.8155 -13
    endloop
  endfacet
  facet normal 0 0 -1
    outer loop
      vertex 13.7158 11.2714 -13
      vertex 15.8 12.3 -13
      vertex 13.471 10.9995 -13
    endloop
  endfacet
  facet normal 0 0 -1
    outer loop
      vertex 13.8987 11.5882 -13
      vertex 15.8 12.3 -13
      vertex 13.7158 11.2714 -13
    endloop
  endfacet
  facet normal 0 0 -1
    outer loop
      vertex 14.0118 11.9362 -13
      vertex 15.8 12.3 -13
      vertex 13.8987 11.5882 -13
    endloop
  endfacet
  facet normal 0 0 -1
    outer loop
      vertex 14.05 12.3 -13
      vertex 15.8 12.3 -13
      vertex 14.0118 11.9362 -13
    endloop
  endfacet
  facet normal 0 0 -1
    outer loop
      vertex 14.0118 12.6638 -13
      vertex 15.8 12.3 -13
      vertex 14.05 12.3 -13
    endloop
  endfacet
  facet normal 0 0 -1
    outer loop
      vertex 13.8987 13.0118 -13
      vertex 15.8 12.3 -13
      vertex 14.0118 12.6638 -13
    endloop
  endfacet
  facet normal 0 0 -1
    outer loop
      vertex 13.7158 13.3286 -13
      vertex 15.8 12.3 -13
      vertex 13.8987 13.0118 -13
    endloop
  endfacet
  facet normal 0 0 -1
    outer loop
      vertex 13.471 13.6005 -13
      vertex 15.8 12.3 -13
      vertex 13.7158 13.3286 -13
    endloop
  endfacet
  facet normal 0 0 -1
    outer loop
      vertex 13.175 13.8155 -13
      vertex 15.8 12.3 -13
      vertex 13.471 13.6005 -13
    endloop
  endfacet
  facet normal 0 0 -1
    outer loop
      vertex 10.55 15.3311 -13
      vertex 15.8 12.3 -13
      vertex 13.175 13.8155 -13
    endloop
  endfacet
  facet normal 0 0 -1
    outer loop
      vertex 12.4829 14.0404 -13
      vertex 10.55 15.3311 -13
      vertex 12.8408 13.9643 -13
    endloop
  endfacet
  facet normal 0 0 -1
    outer loop
      vertex 12.1171 14.0404 -13
      vertex 10.55 15.3311 -13
      vertex 12.4829 14.0404 -13
    endloop
  endfacet
  facet normal 0 0 -1
    outer loop
      vertex 11.7592 13.9643 -13
      vertex 10.55 15.3311 -13
      vertex 12.1171 14.0404 -13
    endloop
  endfacet
  facet normal 0 0 -1
    outer loop
      vertex 11.425 13.8155 -13
      vertex 10.55 15.3311 -13
      vertex 11.7592 13.9643 -13
    endloop
  endfacet
  facet normal 0 0 -1
    outer loop
      vertex 10.55 12.3 -13
      vertex 10.55 15.3311 -13
      vertex 10.5882 12.6638 -13
    endloop
  endfacet
  facet normal 0 0 -1
    outer loop
      vertex 10.55 15.3311 -13
      vertex 11.129 13.6005 -13
      vertex 10.8842 13.3286 -13
    endloop
  endfacet
  facet normal 0 0 -1
    outer loop
      vertex 10.55 15.3311 -13
      vertex 10.8842 13.3286 -13
      vertex 10.7013 13.0118 -13
    endloop
  endfacet
  facet normal 0 0 -1
    outer loop
      vertex 10.55 15.3311 -13
      vertex 10.7013 13.0118 -13
      vertex 10.5882 12.6638 -13
    endloop
  endfacet
  facet normal 0 0 -1
    outer loop
      vertex 10.5882 11.9362 -13
      vertex 10.55 9.26891 -13
      vertex 10.55 12.3 -13
    endloop
  endfacet
  facet normal 0 0 -1
    outer loop
      vertex 10.55 15.3311 -13
      vertex 10.55 12.3 -13
      vertex 8.8 12.3 -13
    endloop
  endfacet
  facet normal 0 0 -1
    outer loop
      vertex 11.7592 10.6357 -13
      vertex 14.05 9.26891 -13
      vertex 11.425 10.7845 -13
    endloop
  endfacet
endsolid OpenSCAD_Model
